<svg width="48" height="48" viewBox="0 0 48 48" fill="none" xmlns="http://www.w3.org/2000/svg">
<path d="M33.9129 35.0706C38.0916 36.3701 40 38.178 40 39.2938C40 41.6243 33.3755 45 23 45C12.6245 45 6 41.6243 6 39.3079C6 38.2062 7.40387 36.4972 11.2755 35.226C14.0832 38.6299 18.091 40 22.5 40C26.909 40 30.9845 38.5311 33.7923 35C33.8361 35.0282 33.869 35.0565 33.9129 35.0706Z" fill="white"/>
<path d="M22.3318 20.8574C26.3484 20.8574 30.0561 21.7514 32.4209 23.2041C30.0323 24.2471 26.7168 25.0479 22.5338 25.0479C18.3508 25.0479 14.8214 24.1912 12.4209 23.0923C14.8214 21.6955 18.434 20.8574 22.3318 20.8574Z" fill="#C6C6C6"/>
<path d="M35.3512 22.9004V27.158C35.3512 33.3018 29.535 38.3004 22.3782 38.3004C15.2215 38.3004 9.40527 33.3018 9.40527 27.158V22.9004C12.1945 24.5594 17.308 25.4264 22.3782 25.4264C27.4485 25.4264 32.562 24.5594 35.3512 22.9004Z" fill="#08D8CD"/>
<path d="M42.9403 24.9764C43.643 25.6695 44.0106 26.5826 43.9998 27.6167C43.989 29.355 42.9295 31.1372 41.8917 32.1383C40.6052 33.3705 38.8863 34.2066 36.6809 34.6687C40.0647 35.8568 41.8376 37.452 41.8376 39.3553C41.8376 43.7119 32.3133 46.0002 22.9188 46.0002C13.5243 46.0002 4 43.7229 4 39.3663C4 37.8481 5.05945 35.8128 9.75132 34.3606C8.17295 32.2043 7.24322 29.63 7.24322 26.8466V20.5428C7.24322 20.5098 7.24322 20.5758 7.24322 20.5428C7.24322 17.9684 10.9837 15.9771 17.254 15.207C17.8594 15.141 18.3891 15.5591 18.454 16.1642C18.5296 16.7693 18.108 17.3193 17.5134 17.3853C11.7837 18.0894 9.40537 19.7947 9.40537 20.5428C9.40537 20.9608 9.97834 21.4999 11.0702 22.039C11.1027 22.006 11.1351 21.973 11.1783 21.9399C13.4702 20.6418 17.5891 19.8717 22.1945 19.8717C27.0269 19.8717 31.3296 20.7408 33.5025 22.138C34.7241 21.5659 35.3512 20.9828 35.3512 20.5428C35.3512 19.7727 33.1133 18.2875 28.2917 17.5284C27.708 17.4403 27.2972 16.8793 27.3945 16.2742C27.4809 15.6801 28.0323 15.2621 28.6269 15.3611C31.2971 15.7791 37.5133 17.1213 37.5133 20.5428C37.5133 20.5648 37.5132 20.4975 37.5132 20.5195L37.5133 24.5693C39.9025 23.7002 41.7619 23.8212 42.9403 24.9764ZM41.8376 27.6057C41.8376 27.1657 41.7079 26.8356 41.4376 26.5606C40.8214 25.9665 39.3728 26.1095 37.5133 26.9346C37.4917 28.9369 36.9944 30.8292 36.1187 32.5344C37.989 32.1603 39.3944 31.5112 40.4106 30.5431C41.1133 29.861 41.8268 28.6399 41.8376 27.6057ZM39.6755 39.3553C39.6755 38.4862 37.7944 37.078 33.6755 36.0659C33.6323 36.0659 33.5998 36.0329 33.5566 36.0109C30.789 38.7612 26.8107 40.4995 22.3783 40.4995C17.9459 40.4995 14.1297 38.8382 11.3621 36.1869C7.54593 37.177 6.16215 38.5082 6.16215 39.3663C6.16215 41.1705 12.6918 43.7999 22.9188 43.7999C33.1458 43.7999 39.6755 41.1705 39.6755 39.3553ZM35.3512 26.8466V23.6012C32.562 25.3064 27.4485 26.1975 22.3783 26.1975C17.308 26.1975 12.1945 25.3064 9.40537 23.6012V26.8466C9.40537 33.1615 15.2216 38.2992 22.3783 38.2992C29.535 38.2992 35.3512 33.1615 35.3512 26.8466ZM31.3728 22.9081C29.2215 22.05 25.8485 21.5219 22.1945 21.5219C18.5405 21.5219 15.3621 22.017 13.1783 22.8421C15.3621 23.4912 18.4432 23.9972 22.3783 23.9972C26.3134 23.9972 29.1999 23.5242 31.3728 22.9081Z" fill="#6F6F6F"/>
<path d="M26.3349 9.40823C27.1392 10.9991 27.9434 13.3309 25.6747 15.3793C25.4946 15.5428 25.2665 15.619 25.0384 15.619C24.8104 15.619 24.5823 15.5428 24.4022 15.3793C24.0541 15.0524 24.0541 14.5403 24.4022 14.2243C25.5666 13.1783 25.6506 11.9797 24.7023 10.0947L24.2702 9.31016C23.874 8.60191 23.4779 7.87187 23.2138 7.07645C22.5776 5.14783 23.0938 3.36086 24.6183 2.19497C25.0024 1.90077 25.5666 1.94435 25.8907 2.29303C26.2148 2.63081 26.1668 3.15383 25.7827 3.43713C24.5463 4.39599 24.6423 5.69264 24.9424 6.60791C25.1585 7.27258 25.5066 7.90456 25.8787 8.56923C26.0348 8.85253 26.1908 9.12493 26.3349 9.40823Z" fill="#6F6F6F"/>
<path d="M22.1186 13.4529C22.5876 14.2343 24.0428 16.6084 21.4331 18.5718C21.2648 18.702 21.0483 18.7621 20.8318 18.7621C20.5913 18.7621 20.3387 18.682 20.1704 18.5117C19.8336 18.2111 19.8577 17.7303 20.2305 17.4498C21.361 16.5984 21.4451 15.6668 20.5071 14.1341C20.3628 13.8937 20.2065 13.6633 20.0621 13.4329C19.6773 12.8519 19.2684 12.2509 19.0159 11.5797C18.3544 9.92686 18.8836 8.39421 20.447 7.39249C20.8438 7.14206 21.4091 7.20216 21.7097 7.53273C22.0104 7.8633 21.9382 8.33411 21.5414 8.59456C20.3508 9.35587 20.4349 10.3877 20.7236 11.1189C20.94 11.6498 21.2768 12.1607 21.6376 12.7117C21.7939 12.9521 21.9623 13.2025 22.1186 13.4529Z" fill="#6F6F6F"/>
</svg>
