<svg width="315" height="370" viewBox="0 0 315 370" fill="none" xmlns="http://www.w3.org/2000/svg">
<rect width="315" height="370" rx="20" fill="white"/>
<path d="M199.098 113.756L259.398 154.166L162.118 233.99L64.8281 313.804L101.818 193.58L138.798 73.3555L199.098 113.756Z" fill="#F9F4C4"/>
<path d="M259.402 154.175C264.055 147.243 240.832 123.53 207.531 101.213C174.23 78.8955 143.462 66.424 138.808 73.3569C134.154 80.2899 157.378 104.002 190.679 126.319C223.98 148.637 254.748 161.108 259.402 154.175Z" fill="#F9F4C4"/>
<path d="M259.399 154.166L257.911 155.383C258.54 155.074 259.049 154.685 259.399 154.166Z" fill="#F9F4C4"/>
<path d="M190.666 126.318C159.853 105.669 137.681 83.8339 138.23 75.1895L130.127 101.542L125.268 117.325C134.029 127.864 150.603 142.022 170.969 155.661C191.335 169.311 210.733 179.262 223.815 183.359L236.587 172.88L257.911 155.392C250.118 159.181 221.49 146.967 190.666 126.318Z" fill="#FFFADE"/>
<path d="M151.271 185.015C136.034 174.805 122.913 164.306 113.603 155.253L109.921 167.228L102.237 192.204C110.45 199.293 120.448 206.91 131.574 214.368C142.7 221.826 153.547 228.177 163.226 233.073L183.442 216.492L193.131 208.545C181.217 203.371 166.509 195.235 151.271 185.025V185.015Z" fill="#FFFADE"/>
<path d="M111.876 243.71C104.352 238.665 97.3375 233.55 91.051 228.575L88.9356 235.465L80.0049 264.509C83.8765 267.36 87.9477 270.222 92.1886 273.054C96.4294 275.895 100.62 278.567 104.731 281.07L128.231 261.787L133.809 257.21C126.814 253.282 119.42 248.746 111.886 243.7L111.876 243.71Z" fill="#FFFADE"/>
<path d="M273.058 114.856L263.365 114.736C261.294 121.322 262.308 130.083 263.673 133.559L273.641 132.709C271.999 128.403 271.802 118.663 273.058 114.856Z" fill="#FA6EE3"/>
<path d="M161.358 87.9869L170.982 85.1756C171.274 78.1538 167.935 69.9552 165.649 67L156 70.8443C158.781 74.5318 161.574 83.9203 161.358 88V87.9869Z" fill="#00EB8C"/>
<path d="M240.164 80.1886L244.467 89.3028C251.328 88.5509 258.737 84.0113 261.23 81.3227L255.935 72.3348C252.812 75.6347 244.169 79.7945 240.175 80.1933L240.164 80.1886Z" fill="#00EB8C"/>
<path d="M204.013 100.845L207.721 110C214.635 109.625 222.335 105.591 225 103.08L220.275 94C216.927 97.0601 208.017 100.682 204 100.845H204.013Z" fill="#FFD029"/>
<path d="M205.792 46L196 49.6718C196.36 56.5902 200.623 64.3202 203.288 67L213 62.3233C209.749 58.9607 205.952 50.0196 205.792 46Z" fill="#FA6EE3"/>
<path d="M207.344 270H196.999L200.447 290.248C201.137 294.628 203.383 297 206.999 297C210.615 297 212.861 294.647 213.551 290.248L216.999 270H207.344Z" fill="#FF9739"/>
<path d="M245.344 270H234.999L238.447 290.248C239.137 294.628 241.383 297 244.999 297C248.615 297 250.861 294.647 251.551 290.248L254.999 270H245.344Z" fill="#FF9739"/>
<path d="M214.011 218.346C214.2 215.296 215.428 212.852 219.061 212.187C221.625 211.72 224.24 211.352 226.875 211.034C241.466 209.306 257.114 209.852 273.172 212.018C285.038 213.627 284.419 196.491 283.631 189.338C282.533 179.166 268.252 173.871 259.4 170.722C248.002 166.679 235.767 165 223.641 165C203.452 165 185.568 169.56 170.987 179.961C167.235 182.633 164.999 186.229 164.999 190.958V219.478V218.992V252.529C164.999 257.258 167.245 261.688 170.987 264.36C185.558 274.761 204.101 281 224.29 281C245.478 281 264.859 274.126 279.729 262.781C282.114 260.963 283.541 258.082 283.541 255.012V248.337C283.541 241.423 284.719 224.873 273.172 226.432C257.104 228.608 241.466 229.144 226.875 227.416C224.24 227.098 221.615 226.72 219.061 226.263C215.927 225.687 214.28 223.909 214.041 220.76C213.981 219.935 213.961 219.111 214.011 218.336V218.346Z" fill="#FFB92C"/>
<path d="M223.024 273.552C201.019 271.643 177.433 262.786 164.999 250V252.349C164.999 257.108 167.235 261.566 170.963 264.255C185.474 274.722 203.941 281 224.048 281C245.148 281 264.45 274.082 279.26 262.666C279.926 262.156 280.492 261.566 280.999 260.906C263.953 269.904 244.463 275.412 223.024 273.552Z" fill="#FF9739"/>
<path d="M246.783 206C247.641 206 248.254 207.119 247.894 208.117C246.657 211.603 244.036 214 240.997 214C237.958 214 235.338 211.603 234.1 208.117C233.75 207.129 234.354 206 235.211 206H246.783Z" fill="#FF9739"/>
<path d="M220.999 207C227.631 207 232.999 201.845 232.999 195.5C232.999 189.155 227.621 184 220.999 184C214.377 184 208.999 189.155 208.999 195.5C208.999 201.845 214.377 207 220.999 207Z" fill="white"/>
<path d="M220.999 207C227.631 207 232.999 201.845 232.999 195.5C232.999 189.155 227.621 184 220.999 184C214.377 184 208.999 189.155 208.999 195.5C208.999 201.845 214.377 207 220.999 207Z" fill="white"/>
<path d="M225.046 192C223.82 192 222.71 192.639 221.989 193.641C221.269 192.639 220.169 192 218.923 192C216.761 192 214.999 193.975 214.999 196.417C214.999 200.804 220.802 203.752 221.999 204C223.197 203.752 228.999 200.804 228.999 196.417C228.999 193.984 227.237 192 225.066 192H225.046Z" fill="#262626"/>
<path d="M271.999 195.5C271.999 189.145 266.621 184 259.999 184C253.367 184 247.999 189.155 247.999 195.5C247.999 201.855 253.377 207 259.999 207C266.631 207 271.999 201.845 271.999 195.5Z" fill="white"/>
<path d="M255.932 192C253.761 192 251.999 193.975 251.999 196.417C251.999 200.804 257.802 203.752 258.999 204C260.197 203.752 265.999 200.804 265.999 196.417C265.999 193.984 264.237 192 262.076 192C260.839 192 259.739 192.639 259.009 193.641C258.288 192.639 257.178 192 255.952 192H255.932Z" fill="#262626"/>
<path d="M93.3699 266.095H81.8672L85.7048 289.264C86.4743 294.282 88.9627 296.99 92.9902 296.99C97.0176 296.99 99.5061 294.292 100.276 289.264L104.113 266.095H93.3799H93.3699Z" fill="#00B5AB"/>
<path d="M137.852 266.095H126.35L130.187 289.264C130.957 294.282 133.445 296.99 137.473 296.99C141.5 296.99 143.988 294.292 144.758 289.264L148.596 266.095H137.862H137.852Z" fill="#00B5AB"/>
<path d="M177.827 243.858C177.827 233.038 167.004 223.645 161.967 214.977C156.151 204.949 155.021 193.831 154.731 181.88V180.382C154.731 169.125 146.277 160 135.843 160C132.935 160 130.057 160.734 127.489 162.103C123.261 164.364 120.023 168.242 118.344 172.725C116.216 178.388 116.965 184.835 116.965 190.766C116.965 192.859 116.805 194.753 115.506 196.489C114.537 197.768 113.158 198.602 111.629 198.919C111.409 198.969 111.179 198.969 110.959 198.919C109.43 198.592 108.041 197.759 107.081 196.489C105.772 194.763 105.612 192.859 105.622 190.766C105.622 184.835 106.372 178.388 104.243 172.725C102.554 168.242 99.3264 164.344 95.099 162.103C92.5307 160.734 89.6525 160 86.7443 160C76.3209 160 67.8562 169.125 67.8562 180.382V181.88C67.5664 193.821 66.4371 204.949 60.6208 214.977C55.5839 223.645 44.7607 233.038 44.7607 243.858C44.7607 256.325 56.1036 264.974 66.2172 269.874C88.0135 280.437 113.687 281.657 137.063 276.41C151.963 273.057 173.949 265.163 177.437 247.766C177.697 246.477 177.827 245.168 177.827 243.858Z" fill="#08D8CD"/>
<path d="M90.672 217.893C97.0979 217.893 102.315 212.616 102.315 206.11C102.315 199.604 97.1079 194.327 90.672 194.327C84.236 194.327 79.0293 199.604 79.0293 206.11C79.0293 212.616 84.236 217.893 90.672 217.893Z" fill="white"/>
<path d="M94.2995 200.406C92.9004 200.406 91.6412 201.14 90.8217 202.291C90.0022 201.14 88.753 200.406 87.3439 200.406C84.8855 200.406 82.8867 202.678 82.8867 205.484C82.8867 210.533 89.4726 213.925 90.8317 214.212C92.1909 213.925 98.7767 210.533 98.7767 205.484C98.7767 202.678 96.778 200.406 94.3095 200.406H94.2995Z" fill="#262626"/>
<path d="M130.706 217.893C137.132 217.893 142.349 212.616 142.349 206.11C142.349 199.604 137.142 194.327 130.706 194.327C124.27 194.327 119.063 199.604 119.063 206.11C119.063 212.616 124.27 217.893 130.706 217.893Z" fill="white"/>
<path d="M134.024 200.406C132.625 200.406 131.366 201.14 130.546 202.291C129.727 201.14 128.478 200.406 127.069 200.406C124.61 200.406 122.611 202.678 122.611 205.484C122.611 210.533 129.197 213.925 130.556 214.212C131.915 213.925 138.501 210.533 138.501 205.484C138.501 202.678 136.503 200.406 134.034 200.406H134.024Z" fill="#262626"/>
<path d="M140.351 268.455C116.106 275.448 89.0531 275.765 65.478 266.025C59.2819 263.466 52.5961 259.658 47.8291 254.441C51.8566 261.374 59.3918 266.501 66.3374 269.874C88.1337 280.436 113.808 281.656 137.183 276.41C152.083 273.057 174.07 265.153 177.557 247.756C177.747 246.814 177.797 245.852 177.847 244.89C170.552 257.595 153.063 264.786 140.361 268.445L140.351 268.455Z" fill="#00B5AB"/>
<mask id="mask0_1523_2462" style="mask-type:luminance" maskUnits="userSpaceOnUse" x="30" y="190" width="81" height="57">
<path d="M100.066 190.541L30.0029 212.531L40.8184 246.429L110.882 224.439L100.066 190.541Z" fill="white"/>
</mask>
<g mask="url(#mask0_1523_2462)">
<path d="M48.3077 206.784C50.916 205.961 53.6443 207.221 54.4038 209.581C54.7736 210.752 54.5937 212.051 53.9241 213.132C52.9947 214.64 51.4657 215.076 49.8867 215.76C49.447 215.949 49.0372 216.187 48.6375 216.435L41.2021 210.702C43.2009 208.986 45.5994 207.627 48.3177 206.774L48.3077 206.784Z" fill="#FFD029"/>
<path d="M44.9602 220.71C44.7603 221.176 44.6104 221.652 44.5005 222.138L34.9365 221.225C35.716 217.208 37.9246 213.489 41.1926 210.702L48.6279 216.435C46.9989 217.476 45.6898 219.014 44.9602 220.71Z" fill="#FA6EE3"/>
<path d="M35.4062 229.487C34.5268 226.74 34.4168 223.923 34.9365 221.235L44.5005 222.148C44.3306 222.862 44.2407 223.596 44.2606 224.32C44.2806 225.094 44.4105 225.857 44.6504 226.591C44.8303 227.157 45.0801 227.692 45.3599 228.198L38.3144 234.883C37.0452 233.306 36.0458 231.511 35.4062 229.487Z" fill="#FFD029"/>
<path d="M38.3145 234.872L45.36 228.188C46.7891 230.667 49.4374 232.264 52.3956 232.542L51.9758 241.597C46.5493 241.339 41.5524 238.869 38.3244 234.862L38.3145 234.872Z" fill="#FA6EE3"/>
<path d="M52.3953 232.552C53.6945 232.671 55.0536 232.552 56.3828 232.136L63.0586 230.043L65.7869 238.602L59.1111 240.695C56.7226 241.449 54.3041 241.737 51.9756 241.617L52.3953 232.562V232.552Z" fill="#FFD029"/>
<path d="M63.0586 230.032L74.9511 226.293L77.6794 234.852L65.7869 238.592L63.0586 230.032Z" fill="#FA6EE3"/>
<path d="M74.9512 226.304L86.8437 222.564L89.572 231.124L77.6795 234.863L74.9512 226.304Z" fill="#FFD029"/>
<path d="M86.8438 222.564L97.3371 219.271L100.065 227.831L89.572 231.124L86.8438 222.564Z" fill="#FA6EE3"/>
<path d="M97.3369 219.271L103.523 217.327C106.071 216.524 108.76 217.793 109.509 220.154C110.259 222.514 108.8 225.083 106.251 225.887L100.065 227.831L97.3369 219.271Z" fill="#FFD029"/>
</g>
<path d="M109.81 221.978C101.605 217.297 108.151 212.368 112.898 214.996L113.427 227.642C104.443 230.111 104.733 221.969 109.81 221.969V221.978Z" fill="#08D8CD"/>
<path d="M112.119 215.006C107.371 212.378 100.826 217.307 109.03 221.988C103.954 221.988 103.664 230.121 112.648 227.661" stroke="#00B5AB" stroke-width="3" stroke-linecap="round" stroke-linejoin="round"/>
</svg>
