<svg width="315" height="370" viewBox="0 0 315 370" fill="none" xmlns="http://www.w3.org/2000/svg">
<circle opacity="0.5" cx="157.5" cy="188.5" r="125.5" fill="#FFFADE"/>
<circle opacity="0.6" cx="157.5" cy="188.5" r="101.5" fill="#FFFADE"/>
<circle cx="157.5" cy="188.5" r="77.5" fill="#FFF9D7"/>
<path d="M131.489 61.5007C129.19 63.9944 128.586 65.4688 128.518 68.863C126.021 66.5688 124.544 65.9664 121.144 65.9001C123.443 63.4064 124.047 61.932 124.115 58.5378C126.612 60.832 128.089 61.4344 131.489 61.5007Z" fill="#08D8CD"/>
<path d="M211.698 148.537C208.303 148.627 206.823 149.221 204.335 151.535C204.245 148.149 203.65 146.672 201.33 144.19C204.725 144.1 206.206 143.507 208.694 141.192C208.783 144.578 209.378 146.055 211.698 148.537Z" fill="#08D8CD"/>
<path d="M184.003 82.5357L178.42 80.3625L174.409 90.5718L179.993 92.7449L184.003 82.5357Z" fill="#FFB92C"/>
<path d="M125.561 134.279L121.64 129.755L113.313 136.908L117.233 141.432L125.561 134.279Z" fill="#FFB92C"/>
<path d="M182.626 130.286C184.522 129.925 185.767 128.097 185.406 126.204C185.045 124.311 183.215 123.069 181.318 123.43C179.422 123.792 178.177 125.619 178.538 127.512C178.899 129.405 180.729 130.647 182.626 130.286Z" fill="#FF9739"/>
<path d="M83.7429 136.285C85.6395 135.924 86.8841 134.098 86.5227 132.205C86.1613 130.312 84.3308 129.07 82.4341 129.43C80.5375 129.791 79.293 131.618 79.6544 133.511C80.0158 135.404 81.8463 136.646 83.7429 136.285Z" fill="#E0E0E0"/>
<path d="M233.566 125.301C235.463 124.94 236.707 123.113 236.346 121.22C235.985 119.327 234.155 118.085 232.259 118.446C230.362 118.807 229.117 120.634 229.478 122.527C229.839 124.42 231.669 125.662 233.566 125.301Z" fill="#E0E0E0"/>
<path d="M212.59 72.466C214.487 72.105 215.732 70.2777 215.371 68.3847C215.01 66.4917 213.18 65.2498 211.283 65.6109C209.387 65.972 208.142 67.7992 208.503 69.6922C208.864 71.5852 210.694 72.8271 212.59 72.466Z" fill="#E0E0E0"/>
<path d="M160.651 64.5088C162.548 64.1477 163.793 62.3204 163.432 60.4274C163.071 58.5344 161.24 57.2926 159.344 57.6536C157.447 58.0147 156.203 59.8419 156.564 61.7349C156.925 63.6279 158.755 64.8698 160.651 64.5088Z" fill="#FF9739"/>
<path d="M114.061 87.9414C115.958 87.5803 117.202 85.753 116.841 83.86C116.48 81.967 114.65 80.7252 112.754 81.0862C110.857 81.4473 109.612 83.2746 109.973 85.1676C110.334 87.0606 112.165 88.3024 114.061 87.9414Z" fill="#E0E0E0"/>
<path d="M83.4952 103.409C91.0102 100.921 99.1395 105.374 101.653 113.354L96.7879 114.965C95.1702 109.841 89.9476 106.978 85.121 108.575L83.4885 103.41L83.4952 103.409Z" fill="#08D8CD"/>
<path d="M200.963 102.701C204.031 95.4163 212.74 92.2368 220.414 95.5981L218.429 100.315C213.499 98.1592 207.902 100.201 205.931 104.879L200.96 102.707L200.963 102.701Z" fill="#08D8CD"/>
<path d="M152.579 98.8791C154.989 106.406 150.437 114.47 142.415 116.891L140.854 112.018C146.006 110.46 148.932 105.279 147.385 100.445L152.578 98.8725L152.579 98.8791Z" fill="#00B5AB"/>
<path d="M191.677 278.402H181.107L184.627 299.101C185.327 303.58 187.627 306 191.317 306C195.006 306 197.306 303.59 198.006 299.101L201.526 278.402H191.667H191.677Z" fill="#FF9739"/>
<path d="M229.874 278.352H219.304L222.824 299.051C223.524 303.53 225.824 305.95 229.514 305.95C233.203 305.95 235.503 303.54 236.203 299.051L239.723 278.352H229.864H229.874Z" fill="#FF9739"/>
<path d="M198.426 225.046C198.616 221.956 199.856 219.476 203.516 218.806C206.106 218.336 208.735 217.957 211.395 217.637C226.104 215.887 241.883 216.437 258.082 218.636C270.051 220.266 269.421 202.908 268.631 195.658C267.521 185.349 253.122 179.989 244.193 176.8C232.704 172.7 220.365 171 208.135 171C187.777 171 169.738 175.62 155.04 186.159C151.26 188.869 149 192.508 149 197.298V226.186V225.696V259.673C149 264.463 151.26 268.953 155.04 271.663C169.728 282.202 188.427 288.521 208.785 288.521C230.154 288.521 249.692 281.562 264.691 270.063C267.101 268.223 268.531 265.303 268.531 262.193V255.434C268.531 248.434 269.721 231.666 258.072 233.245C241.873 235.445 226.094 235.995 211.385 234.245C208.725 233.925 206.086 233.545 203.506 233.075C200.346 232.495 198.686 230.686 198.446 227.496C198.386 226.656 198.366 225.826 198.416 225.036L198.426 225.046Z" fill="#FFB92C"/>
<path d="M207.766 281.022C185.487 279.102 161.599 270.183 149.01 257.314V259.684C149.01 264.473 151.27 268.963 155.05 271.673C169.738 282.212 188.437 288.531 208.795 288.531C230.164 288.531 249.702 281.572 264.701 270.073C265.371 269.563 265.951 268.963 266.461 268.303C249.202 277.362 229.464 282.902 207.766 281.032V281.022Z" fill="#FF9739"/>
<path d="M231.174 213.277C232.064 213.277 232.694 214.407 232.324 215.407C231.044 218.917 228.334 221.337 225.194 221.337C222.054 221.337 219.345 218.917 218.065 215.407C217.705 214.407 218.325 213.277 219.215 213.277H231.164H231.174Z" fill="#FF9739"/>
<path d="M205.246 214.767C211.845 214.767 217.195 209.498 217.195 202.998C217.195 196.498 211.845 191.229 205.246 191.229C198.646 191.229 193.297 196.498 193.297 202.998C193.297 209.498 198.646 214.767 205.246 214.767Z" fill="white"/>
<path d="M206.905 212.427C211.285 212.427 214.835 208.935 214.835 204.628C214.835 200.32 211.285 196.828 206.905 196.828C202.526 196.828 198.976 200.32 198.976 204.628C198.976 208.935 202.526 212.427 206.905 212.427Z" fill="#262626"/>
<path d="M213.295 201.418C214.168 201.418 214.875 200.72 214.875 199.858C214.875 198.997 214.168 198.298 213.295 198.298C212.423 198.298 211.715 198.997 211.715 199.858C211.715 200.72 212.423 201.418 213.295 201.418Z" fill="white"/>
<path d="M245.142 214.767C251.742 214.767 257.092 209.498 257.092 202.998C257.092 196.498 251.742 191.229 245.142 191.229C238.543 191.229 233.193 196.498 233.193 202.998C233.193 209.498 238.543 214.767 245.142 214.767Z" fill="white"/>
<path d="M247.492 198C246.083 198 244.815 198.748 243.99 199.916C243.165 198.748 241.907 198 240.488 198C238.013 198 236 200.305 236 203.149C236 208.268 242.631 211.711 244 212C245.369 211.711 252 208.268 252 203.149C252 200.305 249.987 198 247.502 198H247.492Z" fill="#262626"/>
<path d="M237.62 200.26C238.515 200.26 239.24 199.53 239.24 198.63C239.24 197.73 238.515 197 237.62 197C236.725 197 236 197.73 236 198.63C236 199.53 236.725 200.26 237.62 200.26Z" fill="white"/>
<path d="M205.246 214.767C211.845 214.767 217.195 209.498 217.195 202.998C217.195 196.498 211.845 191.229 205.246 191.229C198.646 191.229 193.297 196.498 193.297 202.998C193.297 209.498 198.646 214.767 205.246 214.767Z" fill="white"/>
<path d="M209.492 198C208.083 198 206.815 198.748 205.99 199.916C205.165 198.748 203.907 198 202.488 198C200.013 198 198 200.305 198 203.149C198 208.268 204.631 211.711 206 212C207.369 211.711 214 208.268 214 203.149C214 200.305 211.987 198 209.502 198H209.492Z" fill="#262626"/>
<path d="M212.62 200.26C213.515 200.26 214.24 199.53 214.24 198.63C214.24 197.73 213.515 197 212.62 197C211.725 197 211 197.73 211 198.63C211 199.53 211.725 200.26 212.62 200.26Z" fill="white"/>
<path d="M95.4374 274.65H83.8547L87.7156 298.16C88.4898 303.25 91.0009 306 95.0504 306C99.0998 306 101.611 303.26 102.385 298.16L106.246 274.65H95.4374Z" fill="#00B5AB"/>
<path d="M140.23 274.65H128.647L132.508 298.16C133.282 303.25 135.793 306 139.843 306C143.892 306 146.403 303.26 147.177 298.16L151.038 274.65H140.23Z" fill="#00B5AB"/>
<path d="M179.99 251.09C179.99 240.11 169.092 230.58 164.02 221.78C158.165 211.61 157.023 200.32 156.735 188.2V186.68C156.735 175.26 148.22 166 137.719 166C134.791 166 131.893 166.74 129.302 168.13C125.044 170.42 121.789 174.36 120.092 178.91C117.948 184.66 118.702 191.2 118.702 197.22C118.702 199.34 118.543 201.27 117.233 203.03C116.191 204.42 114.662 205.29 112.995 205.56C111.328 205.29 109.789 204.41 108.757 203.03C107.437 201.28 107.278 199.35 107.288 197.22C107.288 191.2 108.042 184.66 105.899 178.91C104.201 174.36 100.946 170.41 96.688 168.13C94.0975 166.74 91.1993 166 88.2714 166C77.7705 166 69.2547 175.26 69.2547 186.68V188.2C68.9669 200.32 67.8255 211.61 61.9696 221.78C56.8979 230.58 46 240.11 46 251.09C46 263.74 57.4239 272.52 67.6071 277.49C89.5517 288.21 115.407 289.45 138.949 284.12C153.956 280.72 176.089 272.71 179.603 255.06C179.861 253.75 180 252.42 180 251.09H179.99Z" fill="#08D8CD"/>
<path d="M120.552 223.38C120.552 226.84 117.118 229.64 112.88 229.64C108.642 229.64 105.208 226.84 105.208 223.38" stroke="#00B5AB" stroke-width="3" stroke-linecap="round" stroke-linejoin="round"/>
<path d="M92.7216 225.74C99.1953 225.74 104.443 220.385 104.443 213.78C104.443 207.175 99.1953 201.82 92.7216 201.82C86.248 201.82 81 207.175 81 213.78C81 220.385 86.248 225.74 92.7216 225.74Z" fill="white"/>
<path d="M96.3763 208C94.9675 208 93.6996 208.748 92.8745 209.916C92.0493 208.748 90.7914 208 89.3726 208C86.8971 208 84.8845 210.305 84.8845 213.149C84.8845 218.268 91.516 221.711 92.8845 222C94.2531 221.711 100.885 218.268 100.885 213.149C100.885 210.305 98.8719 208 96.3864 208H96.3763Z" fill="#262626"/>
<path d="M99.7445 211.74C100.639 211.74 101.365 211.01 101.365 210.11C101.365 209.21 100.639 208.48 99.7445 208.48C98.8498 208.48 98.1245 209.21 98.1245 210.11C98.1245 211.01 98.8498 211.74 99.7445 211.74Z" fill="white"/>
<path d="M133.038 225.74C139.511 225.74 144.759 220.385 144.759 213.78C144.759 207.175 139.511 201.82 133.038 201.82C126.564 201.82 121.316 207.175 121.316 213.78C121.316 220.385 126.564 225.74 133.038 225.74Z" fill="white"/>
<path d="M136.376 208C134.968 208 133.7 208.748 132.875 209.916C132.049 208.748 130.792 208 129.373 208C126.897 208 124.885 210.305 124.885 213.149C124.885 218.268 131.516 221.711 132.885 222C134.253 221.711 140.885 218.268 140.885 213.149C140.885 210.305 138.872 208 136.387 208H136.376Z" fill="#262626"/>
<path d="M139.745 211.74C140.639 211.74 141.365 211.01 141.365 210.11C141.365 209.21 140.639 208.48 139.745 208.48C138.85 208.48 138.125 209.21 138.125 210.11C138.125 211.01 138.85 211.74 139.745 211.74Z" fill="white"/>
<path d="M142.245 276.07C117.829 283.16 90.584 283.49 66.8529 273.6C60.61 271 53.8807 267.14 49.0769 261.85C53.1363 268.88 60.7192 274.09 67.7164 277.51C89.661 288.23 115.516 289.47 139.059 284.14C154.066 280.74 176.199 272.72 179.712 255.07C179.901 254.11 179.95 253.14 180 252.16C172.655 265.05 155.038 272.35 142.255 276.06L142.245 276.07Z" fill="#00B5AB"/>
</svg>
