<svg width="315" height="370" viewBox="0 0 315 370" fill="none" xmlns="http://www.w3.org/2000/svg">
<rect width="315" height="370" rx="20" fill="white"/>
<circle opacity="0.3" cx="157.5" cy="196.5" r="125.5" fill="#FFFADD"/>
<circle opacity="0.5" cx="157.5" cy="196.5" r="101.5" fill="#FFFADD"/>
<circle cx="157.5" cy="196.5" r="77.5" fill="#FFFADD"/>
<path d="M134.056 69.6138C131.652 72.2183 131.02 73.7577 130.947 77.301C128.339 74.9076 126.797 74.2796 123.244 74.2123C125.648 71.6078 126.28 70.0684 126.353 66.5252C128.961 68.9186 130.503 69.5466 134.056 69.6138Z" fill="#08D8CD"/>
<path d="M212.267 149.325C209.864 151.93 209.232 153.469 209.159 157.012C206.551 154.619 205.008 153.991 201.456 153.924C203.859 151.319 204.491 149.78 204.564 146.236C207.172 148.63 208.715 149.258 212.267 149.325Z" fill="#08D8CD"/>
<path d="M201.084 111.373C203.636 101.51 213.717 95.5622 223.602 98.0966L221.946 104.479C215.594 102.851 209.115 106.676 207.478 113.013L201.084 111.373Z" fill="#08D8CD"/>
<path d="M144.271 118.052C153.93 114.728 159.065 104.234 155.749 94.6151L149.497 96.7655C151.625 102.948 148.327 109.687 142.118 111.829L144.265 118.062L144.271 118.052Z" fill="#00B5AB"/>
<path d="M187.997 83.7292L182.242 83.3953L181.559 94.8152L187.314 95.1491L187.997 83.7292Z" fill="#FFB92C"/>
<path d="M127.453 142.351L123.69 138L115 145.479L118.763 149.83L127.453 142.351Z" fill="#FFB92C"/>
<path d="M174.747 136.55C176.646 136.188 177.892 134.355 177.53 132.456C177.169 130.557 175.337 129.311 173.438 129.674C171.539 130.036 170.293 131.869 170.654 133.768C171.016 135.667 172.848 136.912 174.747 136.55Z" fill="#FF9739"/>
<path d="M85.7469 144.55C87.6456 144.188 88.8919 142.355 88.5304 140.456C88.169 138.557 86.3368 137.311 84.438 137.674C82.5393 138.036 81.293 139.869 81.6544 141.768C82.0158 143.667 83.8481 144.912 85.7469 144.55Z" fill="#F4F4F4"/>
<path d="M230.455 133.01C232.354 132.648 233.6 130.815 233.239 128.916C232.878 127.017 231.045 125.772 229.147 126.134C227.248 126.496 226.001 128.329 226.363 130.228C226.724 132.127 228.557 133.372 230.455 133.01Z" fill="#F4F4F4"/>
<path d="M216.794 80.4493C218.693 80.0871 219.939 78.2541 219.578 76.3552C219.217 74.4563 217.384 73.2105 215.486 73.5727C213.587 73.9349 212.341 75.7679 212.702 77.6668C213.063 79.5657 214.896 80.8115 216.794 80.4493Z" fill="#F4F4F4"/>
<path d="M162.747 72.5501C164.646 72.1879 165.892 70.3549 165.53 68.456C165.169 66.5571 163.337 65.3114 161.438 65.6735C159.539 66.0357 158.293 67.8687 158.654 69.7676C159.016 71.6665 160.848 72.9123 162.747 72.5501Z" fill="#FF9739"/>
<path d="M116.102 96.0557C118.001 95.6935 119.247 93.8605 118.886 91.9616C118.524 90.0627 116.692 88.817 114.793 89.1792C112.894 89.5413 111.648 91.3743 112.01 93.2732C112.371 95.1721 114.203 96.4179 116.102 96.0557Z" fill="#F4F4F4"/>
<path d="M83.5924 110.516C93.3122 107.376 103.724 112.688 106.85 122.379L100.557 124.413C98.5456 118.19 91.8564 114.775 85.6138 116.79L83.5839 110.518L83.5924 110.516Z" fill="#08D8CD"/>
<path d="M191.677 284.402H181.107L184.627 305.101C185.327 309.58 187.627 312 191.317 312C195.006 312 197.306 309.59 198.006 305.101L201.526 284.402H191.667H191.677Z" fill="#FF9739"/>
<path d="M229.874 284.352H219.304L222.824 305.051C223.524 309.53 225.824 311.95 229.514 311.95C233.203 311.95 235.503 309.54 236.203 305.051L239.723 284.352H229.864H229.874Z" fill="#FF9739"/>
<path d="M198.426 231.046C198.616 227.956 199.856 225.476 203.516 224.806C206.106 224.336 208.735 223.957 211.395 223.637C226.104 221.887 241.883 222.437 258.082 224.636C270.051 226.266 269.421 208.908 268.631 201.658C267.521 191.349 253.122 185.989 244.193 182.8C232.704 178.7 220.365 177 208.135 177C187.777 177 169.738 181.62 155.04 192.159C151.26 194.869 149 198.508 149 203.298V232.186V231.696V265.673C149 270.463 151.26 274.953 155.04 277.663C169.728 288.202 188.427 294.521 208.785 294.521C230.154 294.521 249.692 287.562 264.691 276.063C267.101 274.223 268.531 271.303 268.531 268.193V261.434C268.531 254.434 269.721 237.666 258.072 239.245C241.873 241.445 226.094 241.995 211.385 240.245C208.725 239.925 206.086 239.545 203.506 239.075C200.346 238.495 198.686 236.686 198.446 233.496C198.386 232.656 198.366 231.826 198.416 231.036L198.426 231.046Z" fill="#FFB92C"/>
<path d="M207.766 287.022C185.487 285.102 161.599 276.183 149.01 263.314V265.684C149.01 270.473 151.27 274.963 155.05 277.673C169.738 288.212 188.437 294.531 208.795 294.531C230.164 294.531 249.702 287.572 264.701 276.073C265.371 275.563 265.951 274.963 266.461 274.303C249.202 283.362 229.464 288.902 207.766 287.032V287.022Z" fill="#FF9739"/>
<path d="M231.174 219.277C232.064 219.277 232.694 220.407 232.324 221.407C231.044 224.917 228.334 227.337 225.194 227.337C222.054 227.337 219.345 224.917 218.065 221.407C217.705 220.407 218.325 219.277 219.215 219.277H231.164H231.174Z" fill="#FF9739"/>
<path d="M205.246 220.767C211.845 220.767 217.195 215.498 217.195 208.998C217.195 202.498 211.845 197.229 205.246 197.229C198.646 197.229 193.297 202.498 193.297 208.998C193.297 215.498 198.646 220.767 205.246 220.767Z" fill="white"/>
<path d="M206.905 218.427C211.285 218.427 214.835 214.935 214.835 210.628C214.835 206.32 211.285 202.828 206.905 202.828C202.526 202.828 198.976 206.32 198.976 210.628C198.976 214.935 202.526 218.427 206.905 218.427Z" fill="#262626"/>
<path d="M213.295 207.418C214.168 207.418 214.875 206.72 214.875 205.858C214.875 204.997 214.168 204.298 213.295 204.298C212.423 204.298 211.715 204.997 211.715 205.858C211.715 206.72 212.423 207.418 213.295 207.418Z" fill="white"/>
<path d="M245.142 220.767C251.742 220.767 257.092 215.498 257.092 208.998C257.092 202.498 251.742 197.229 245.142 197.229C238.543 197.229 233.193 202.498 233.193 208.998C233.193 215.498 238.543 220.767 245.142 220.767Z" fill="white"/>
<path d="M247.492 204C246.083 204 244.815 204.748 243.99 205.916C243.165 204.748 241.907 204 240.488 204C238.013 204 236 206.305 236 209.149C236 214.268 242.631 217.711 244 218C245.369 217.711 252 214.268 252 209.149C252 206.305 249.987 204 247.502 204H247.492Z" fill="#262626"/>
<path d="M237.62 206.26C238.515 206.26 239.24 205.53 239.24 204.63C239.24 203.73 238.515 203 237.62 203C236.725 203 236 203.73 236 204.63C236 205.53 236.725 206.26 237.62 206.26Z" fill="white"/>
<path d="M205.246 220.767C211.845 220.767 217.195 215.498 217.195 208.998C217.195 202.498 211.845 197.229 205.246 197.229C198.646 197.229 193.297 202.498 193.297 208.998C193.297 215.498 198.646 220.767 205.246 220.767Z" fill="white"/>
<path d="M209.492 204C208.083 204 206.815 204.748 205.99 205.916C205.165 204.748 203.907 204 202.488 204C200.013 204 198 206.305 198 209.149C198 214.268 204.631 217.711 206 218C207.369 217.711 214 214.268 214 209.149C214 206.305 211.987 204 209.502 204H209.492Z" fill="#262626"/>
<path d="M212.62 206.26C213.515 206.26 214.24 205.53 214.24 204.63C214.24 203.73 213.515 203 212.62 203C211.725 203 211 203.73 211 204.63C211 205.53 211.725 206.26 212.62 206.26Z" fill="white"/>
<path d="M95.4374 280.65H83.8547L87.7156 304.16C88.4898 309.25 91.0009 312 95.0504 312C99.0998 312 101.611 309.26 102.385 304.16L106.246 280.65H95.4374Z" fill="#00B5AB"/>
<path d="M140.23 280.65H128.647L132.508 304.16C133.282 309.25 135.793 312 139.843 312C143.892 312 146.403 309.26 147.177 304.16L151.038 280.65H140.23Z" fill="#00B5AB"/>
<path d="M179.99 257.09C179.99 246.11 169.092 236.58 164.02 227.78C158.165 217.61 157.023 206.32 156.735 194.2V192.68C156.735 181.26 148.22 172 137.719 172C134.791 172 131.893 172.74 129.302 174.13C125.044 176.42 121.789 180.36 120.092 184.91C117.948 190.66 118.702 197.2 118.702 203.22C118.702 205.34 118.543 207.27 117.233 209.03C116.191 210.42 114.662 211.29 112.995 211.56C111.328 211.29 109.789 210.41 108.757 209.03C107.437 207.28 107.278 205.35 107.288 203.22C107.288 197.2 108.042 190.66 105.899 184.91C104.201 180.36 100.946 176.41 96.688 174.13C94.0975 172.74 91.1993 172 88.2714 172C77.7705 172 69.2547 181.26 69.2547 192.68V194.2C68.9669 206.32 67.8255 217.61 61.9696 227.78C56.8979 236.58 46 246.11 46 257.09C46 269.74 57.4239 278.52 67.6071 283.49C89.5517 294.21 115.407 295.45 138.949 290.12C153.956 286.72 176.089 278.71 179.603 261.06C179.861 259.75 180 258.42 180 257.09H179.99Z" fill="#08D8CD"/>
<path d="M120.552 229.38C120.552 232.84 117.118 235.64 112.88 235.64C108.642 235.64 105.208 232.84 105.208 229.38" stroke="#00B5AB" stroke-width="3" stroke-linecap="round" stroke-linejoin="round"/>
<path d="M92.7216 231.74C99.1953 231.74 104.443 226.385 104.443 219.78C104.443 213.175 99.1953 207.82 92.7216 207.82C86.248 207.82 81 213.175 81 219.78C81 226.385 86.248 231.74 92.7216 231.74Z" fill="white"/>
<path d="M96.3763 214C94.9675 214 93.6996 214.748 92.8745 215.916C92.0493 214.748 90.7914 214 89.3726 214C86.8971 214 84.8845 216.305 84.8845 219.149C84.8845 224.268 91.516 227.711 92.8845 228C94.2531 227.711 100.885 224.268 100.885 219.149C100.885 216.305 98.8719 214 96.3864 214H96.3763Z" fill="#262626"/>
<path d="M99.7445 217.74C100.639 217.74 101.365 217.01 101.365 216.11C101.365 215.21 100.639 214.48 99.7445 214.48C98.8498 214.48 98.1245 215.21 98.1245 216.11C98.1245 217.01 98.8498 217.74 99.7445 217.74Z" fill="white"/>
<path d="M133.038 231.74C139.511 231.74 144.759 226.385 144.759 219.78C144.759 213.175 139.511 207.82 133.038 207.82C126.564 207.82 121.316 213.175 121.316 219.78C121.316 226.385 126.564 231.74 133.038 231.74Z" fill="white"/>
<path d="M136.376 214C134.968 214 133.7 214.748 132.874 215.916C132.049 214.748 130.791 214 129.373 214C126.897 214 124.885 216.305 124.885 219.149C124.885 224.268 131.516 227.711 132.885 228C134.253 227.711 140.885 224.268 140.885 219.149C140.885 216.305 138.872 214 136.386 214H136.376Z" fill="#262626"/>
<path d="M139.745 217.74C140.639 217.74 141.365 217.01 141.365 216.11C141.365 215.21 140.639 214.48 139.745 214.48C138.85 214.48 138.125 215.21 138.125 216.11C138.125 217.01 138.85 217.74 139.745 217.74Z" fill="white"/>
<path d="M142.245 282.07C117.829 289.16 90.584 289.49 66.8529 279.6C60.61 277 53.8807 273.14 49.0769 267.85C53.1363 274.88 60.7192 280.09 67.7164 283.51C89.661 294.23 115.516 295.47 139.059 290.14C154.066 286.74 176.199 278.72 179.712 261.07C179.901 260.11 179.95 259.14 180 258.16C172.655 271.05 155.038 278.35 142.255 282.06L142.245 282.07Z" fill="#00B5AB"/>
</svg>
