<svg width="303" height="340" viewBox="0 0 303 340" fill="none" xmlns="http://www.w3.org/2000/svg">
<g clip-path="url(#clip0_507_945)">
<path d="M151.5 339.42C235.171 339.42 303 271.591 303 187.92C303 104.249 235.171 36.42 151.5 36.42C67.8289 36.42 0 104.249 0 187.92C0 271.591 67.8289 339.42 151.5 339.42Z" fill="#FDF5CA"/>
<path d="M151.5 339.42C235.171 339.42 303 271.591 303 187.92C303 104.249 235.171 36.42 151.5 36.42C67.8289 36.42 0 104.249 0 187.92C0 271.591 67.8289 339.42 151.5 339.42Z" fill="#FDF5CA"/>
<path d="M151.5 287.42C206.452 287.42 251 242.872 251 187.92C251 132.968 206.452 88.42 151.5 88.42C96.5477 88.42 52 132.968 52 187.92C52 242.872 96.5477 287.42 151.5 287.42Z" fill="#FFFADD"/>
<path d="M127.445 239.715H112.401L117.416 269.779C118.419 276.293 121.678 279.8 126.943 279.8C132.208 279.8 135.468 276.293 136.471 269.779L141.485 239.715H127.445Z" fill="#00B5AB"/>
<path d="M185.612 239.715H170.568L175.583 269.779C176.586 276.293 179.845 279.8 185.11 279.8C190.375 279.8 193.635 276.293 194.638 269.779L199.652 239.715H185.612Z" fill="#00B5AB"/>
<path d="M237.25 209.591C237.25 195.551 223.099 183.365 216.51 172.111C208.909 159.114 207.424 144.673 207.043 129.18V127.236C207.043 112.635 195.991 100.8 182.352 100.8C178.551 100.8 174.78 101.752 171.421 103.526C165.895 106.452 161.663 111.493 159.456 117.315C156.678 124.661 157.661 133.028 157.661 140.725C157.661 143.441 157.461 145.906 155.756 148.151C154.412 149.924 152.416 151.037 150.25 151.387C148.084 151.037 146.088 149.924 144.744 148.151C143.039 145.906 142.829 143.441 142.839 140.725C142.839 133.028 143.822 124.661 141.044 117.315C138.837 111.493 134.605 106.452 129.079 103.526C125.72 101.752 121.949 100.8 118.148 100.8C104.509 100.8 93.4568 112.635 93.4568 127.236V129.18C93.0857 144.673 91.6015 159.114 83.9896 172.111C77.4107 183.355 63.25 195.541 63.25 209.591C63.25 225.765 78.0927 236.989 91.3006 243.343C119.803 257.052 153.369 258.625 183.937 251.821C203.423 247.481 232.155 237.23 236.729 214.662C237.069 212.988 237.24 211.295 237.24 209.591H237.25Z" fill="#08D8CD"/>
<path d="M160.209 174.016C160.209 178.415 155.756 181.983 150.25 181.983C144.744 181.983 140.292 178.415 140.292 174.016" stroke="#00B5AB" stroke-width="4" stroke-linecap="round" stroke-linejoin="round"/>
<path d="M124.075 177.012C132.483 177.012 139.299 170.201 139.299 161.799C139.299 153.398 132.483 146.587 124.075 146.587C115.667 146.587 108.851 153.398 108.851 161.799C108.851 170.201 115.667 177.012 124.075 177.012Z" fill="white"/>
<path d="M176.425 177.012C184.833 177.012 191.649 170.201 191.649 161.799C191.649 153.398 184.833 146.587 176.425 146.587C168.017 146.587 161.201 153.398 161.201 161.799C161.201 170.201 168.017 177.012 176.425 177.012Z" fill="white"/>
<path d="M182.091 154.534C179.093 154.534 176.666 156.959 176.666 159.955C176.666 156.959 174.239 154.534 171.24 154.534C168.242 154.534 165.815 156.959 165.815 159.955C165.815 162.601 167.881 165.607 169.626 167.481C171.501 169.506 174.45 170.688 176.676 171.279C178.902 170.688 181.851 169.506 183.726 167.481C185.461 165.607 187.537 162.601 187.537 159.955C187.537 156.959 185.11 154.534 182.112 154.534H182.091Z" fill="#262626"/>
<path d="M188.229 241.529C156.528 250.588 121.146 251.009 90.3278 238.372C82.2245 235.045 73.4794 230.104 67.2415 223.35C72.5166 232.339 82.3649 239.003 91.441 243.373C119.943 257.082 153.509 258.665 184.077 251.851C203.563 247.511 232.296 237.26 236.869 214.682C237.12 213.459 237.18 212.207 237.25 210.964C227.713 227.439 204.837 236.779 188.239 241.519L188.229 241.529Z" fill="#00B5AB"/>
<path d="M183.014 159.765C183.906 159.765 184.629 159.043 184.629 158.152C184.629 157.261 183.906 156.538 183.014 156.538C182.123 156.538 181.4 157.261 181.4 158.152C181.4 159.043 182.123 159.765 183.014 159.765Z" fill="white"/>
<path d="M129.46 154.745C126.462 154.745 124.035 157.17 124.035 160.166C124.035 157.17 121.608 154.745 118.609 154.745C115.611 154.745 113.184 157.17 113.184 160.166C113.184 162.812 115.25 165.818 116.995 167.692C118.87 169.716 121.818 170.899 124.045 171.49C126.271 170.899 129.22 169.716 131.095 167.692C132.83 165.818 134.906 162.812 134.906 160.166C134.906 157.17 132.479 154.745 129.48 154.745H129.46Z" fill="#262626"/>
<path d="M130.383 159.976C131.275 159.976 131.998 159.253 131.998 158.362C131.998 157.471 131.275 156.749 130.383 156.749C129.491 156.749 128.768 157.471 128.768 158.362C128.768 159.253 129.491 159.976 130.383 159.976Z" fill="white"/>
<path d="M198.058 3.12674L190.69 0.0098877L183.576 16.827L190.944 19.9439L198.058 3.12674Z" fill="#FDBA2D"/>
<path d="M76.1542 75.1527L71.1829 81.4205L85.4891 92.7677L90.4605 86.4999L76.1542 75.1527Z" fill="#FDBA2D"/>
<path d="M237.232 81.2543L232.153 75.0734L218.045 86.666L223.124 92.847L237.232 81.2543Z" fill="#FDBA2D"/>
<path d="M95.8177 38.7798L101.438 48.5139L106.539 45.5689L100.919 35.8348L95.8177 38.7798Z" fill="#FDBA2D"/>
<path d="M158.9 85.92C151.1 87.36 149.94 88.52 148.5 96.32C147.06 88.52 145.9 87.36 138.1 85.92C145.9 84.48 147.06 83.32 148.5 75.52C149.94 83.32 151.1 84.48 158.9 85.92Z" fill="#FD912D"/>
<path d="M83.0999 9.91995C78.8999 10.6899 78.2699 11.3199 77.4999 15.5199C76.7299 11.3199 76.0999 10.6899 71.8999 9.91995C76.0999 9.14995 76.7299 8.51995 77.4999 4.31995C78.2699 8.51995 78.8999 9.14995 83.0999 9.91995Z" fill="#08D8CD"/>
<path d="M198.1 61.9199C193.9 62.6899 193.27 63.3199 192.5 67.5199C191.73 63.3199 191.1 62.6899 186.9 61.9199C191.1 61.1499 191.73 60.5199 192.5 56.3199C193.27 60.5199 193.9 61.1499 198.1 61.9199Z" fill="#08D8CD"/>
<path d="M148.9 50.92C148.9 43.85 154.99 38.12 162.5 38.12V34.92C153.11 34.92 145.5 42.08 145.5 50.92H148.9Z" fill="#FDBA2D" stroke="#FDBA2D" stroke-width="3" stroke-miterlimit="10"/>
<path d="M111.78 4.59C114.06 7.85 113.09 12.45 109.63 14.87L110.66 16.35C114.99 13.33 116.19 7.57 113.35 3.5L111.78 4.59Z" fill="#FD912D" stroke="#FD912D" stroke-width="3" stroke-miterlimit="10"/>
</g>
<defs>
<clipPath id="clip0_507_945">
<rect width="303" height="339.42" fill="white"/>
</clipPath>
</defs>
</svg>
