<svg width="48" height="48" viewBox="0 0 48 48" fill="none" xmlns="http://www.w3.org/2000/svg">
<path d="M31.3946 44.9997H16.2117L13.2939 12.333H33.941L31.3946 44.9997Z" fill="white" stroke="#757575" stroke-width="2" stroke-linecap="round" stroke-linejoin="round"/>
<path d="M33.3088 35H14.2549L12 20H35L33.3088 35Z" fill="#FFB92C" stroke="#757575" stroke-width="2" stroke-linecap="round" stroke-linejoin="round"/>
<path d="M37 7.66699H11V12.3337H37V7.66699Z" fill="#E0E0E0" stroke="#757575" stroke-width="2" stroke-linecap="round" stroke-linejoin="round"/>
<path d="M34.7057 7.66667H13.2939L14.6723 3H33.1304L34.7057 7.66667Z" fill="#E0E0E0" stroke="#757575" stroke-width="2" stroke-linecap="round" stroke-linejoin="round"/>
<path d="M25.2172 29.2113C27.009 27.3888 27.4932 24.9265 26.2986 23.7116C25.1041 22.4966 22.6832 22.989 20.8913 24.8115C19.0995 26.6339 18.6153 29.0963 19.8099 30.3112C21.0044 31.5262 23.4254 31.0337 25.2172 29.2113Z" fill="white" stroke="#757575" stroke-width="2" stroke-linecap="round" stroke-linejoin="round"/>
<path d="M19.9414 30.4444C20.9679 30.0526 22.264 29.2921 22.6684 28.2204C23.0002 27.3561 23.0936 26.5725 23.7261 25.8926C24.3586 25.2127 25.1984 24.9592 26.0591 25.0053" fill="#EBFFFE"/>
<path d="M19.9414 30.4444C20.9679 30.0526 22.264 29.2921 22.6684 28.2204C23.0002 27.3561 23.0936 26.5725 23.7261 25.8926C24.3586 25.2127 25.1984 24.9592 26.0591 25.0053" stroke="#757575" stroke-width="1.5" stroke-linecap="round" stroke-linejoin="round"/>
</svg>
