<svg width="46" height="24" viewBox="0 0 46 24" fill="none" xmlns="http://www.w3.org/2000/svg">
<g clip-path="url(#clip0_1050_290)">
<path d="M43.8871 12.3655C40.7526 12.8025 37.6994 12.9118 34.8531 12.5641C34.3385 12.5006 33.8276 12.4251 33.3284 12.3317C32.717 12.2165 32.3958 11.857 32.3494 11.2233C32.3378 11.0564 32.3339 10.8916 32.3436 10.7346H32.3455C32.3823 10.1228 32.6222 9.63019 33.3304 9.4971C33.8315 9.40374 34.3404 9.32826 34.8551 9.26469C37.7013 8.91707 40.7545 9.02632 43.8891 9.46333C46.2051 9.78712 46.0832 6.33869 45.9304 4.89853C45.7156 2.85052 42.9294 1.7858 41.2015 1.15213C38.9783 0.337692 36.5907 0 34.2243 0C30.2849 0 26.7943 0.917729 23.95 3.01142C23.6076 3.2637 23.3309 3.55968 23.1316 3.89737C23.1529 4.10793 23.1664 4.32246 23.1664 4.54097V4.81311C23.2206 7.05976 23.4412 8.87535 24.3332 10.4268C24.575 10.8479 24.9426 11.3306 25.3296 11.8411C26.3706 13.2117 27.667 14.92 27.667 17.0098C27.667 17.3792 27.6302 17.7567 27.5547 18.1321C27.3226 19.2961 26.7943 20.347 25.9817 21.2746C28.4371 22.5877 31.2949 23.3445 34.3462 23.3445C38.481 23.3445 42.2618 21.9619 45.1641 19.6775C45.6305 19.312 45.9071 18.732 45.9071 18.1142V16.7714C45.9071 15.3809 46.1413 12.0516 43.8871 12.3655Z" fill="#FFB92C"/>
<path d="M25.9274 17.0098C25.9274 14.8844 23.8165 13.039 22.8355 11.3346C21.7036 9.36607 21.4811 7.17902 21.4269 4.83305V4.53906C21.4269 2.32817 19.7803 0.534424 17.7467 0.534424C17.1798 0.534424 16.6187 0.677446 16.1176 0.9476C15.2933 1.39057 14.6645 2.15336 14.3355 3.03533C13.9215 4.14773 14.0666 5.41507 14.0666 6.58111C14.0666 6.9923 14.0356 7.36574 13.7822 7.70542C13.5809 7.97359 13.2849 8.14244 12.9618 8.19607C12.6386 8.14442 12.3407 7.97359 12.1414 7.70542C11.886 7.36574 11.855 6.9923 11.857 6.58111C11.857 5.41507 12.0021 4.14972 11.588 3.03533C11.2591 2.15535 10.6302 1.39057 9.80597 0.9476C9.30483 0.679433 8.74372 0.534424 8.1768 0.534424C6.14516 0.534424 4.49664 2.32817 4.49664 4.53906V4.83305C4.44053 7.17902 4.21995 9.36607 3.08611 11.3346C2.10512 13.039 -0.00390625 14.8844 -0.00390625 17.0098C-0.00390625 19.4591 2.20573 21.1595 4.17738 22.1209C8.42253 24.1967 13.4261 24.4371 17.9809 23.4041C20.8851 22.7466 25.167 21.1952 25.8462 17.7786C25.8965 17.5243 25.9236 17.2681 25.9236 17.0098H25.9274Z" fill="#08D8CD"/>
</g>
<defs>
<clipPath id="clip0_1050_290">
<rect width="46" height="24" fill="white"/>
</clipPath>
</defs>
</svg>
