<svg width="46" height="24" viewBox="0 0 46 24" fill="none" xmlns="http://www.w3.org/2000/svg">
<g clip-path="url(#clip0_530_235)">
<path d="M44.0024 12.1937C41.033 12.6295 38.1406 12.7344 35.4411 12.3874C34.9552 12.3228 34.4693 12.2502 33.9988 12.1614C33.4203 12.0484 33.1118 11.6933 33.0732 11.072C33.0655 10.9025 33.0578 10.7411 33.0732 10.5878C33.1118 9.98252 33.3354 9.49832 34.0065 9.3692C34.4847 9.28043 34.9629 9.19973 35.4488 9.14324C38.1483 8.8043 41.0407 8.90921 44.0102 9.33692C46.2084 9.65972 46.0927 6.2542 45.9461 4.83389C45.7456 2.81641 43.1 1.75925 41.4649 1.13786C39.3593 0.338937 37.0917 0 34.8549 0C31.1218 0 27.813 0.903833 25.1212 2.96974C24.427 3.50235 24.0105 4.21251 24.0105 5.14862V11.4835C24.1339 11.653 24.2573 11.8225 24.3884 12C25.3757 13.3477 26.6098 15.0182 26.6098 17.0356C26.6098 17.3988 26.5712 17.7619 26.5018 18.117C26.3784 18.7545 26.1393 19.4486 25.7305 20.1587C27.4505 21.3531 29.4327 22.2165 31.5769 22.6685C32.6721 22.8944 33.8059 23.0155 34.9783 23.0155C36.6906 23.0155 38.3411 22.7572 39.8837 22.273C40.5471 22.0632 41.1872 21.8211 41.8043 21.5306C43.046 20.9576 44.1953 20.2394 45.2211 19.4001C45.2828 19.3517 45.3368 19.2952 45.3908 19.2387C45.7224 18.8837 45.9153 18.3914 45.9153 17.8668V16.5434C45.9153 15.1715 46.1312 11.887 43.9947 12.1937H44.0024Z" fill="#FDBA2D"/>
<path d="M24.9822 17.8103C25.0285 17.5601 25.0594 17.3019 25.0594 17.0436C25.0594 14.9293 23.0231 13.0894 22.0744 11.3947C20.9792 9.43367 20.7632 7.25479 20.7093 4.92258V4.63206C20.7093 2.42896 19.1204 0.645508 17.1536 0.645508C16.606 0.645508 16.0661 0.790767 15.5801 1.05707C14.7857 1.50092 14.1764 2.2595 13.8602 3.13912C13.4591 4.2447 13.5979 5.51168 13.5979 6.66568C13.5979 7.07725 13.5671 7.44847 13.3203 7.7874C13.1274 8.05371 12.8421 8.22318 12.5258 8.2716C12.2096 8.21511 11.9242 8.05371 11.7314 7.7874C11.4846 7.44847 11.4537 7.07725 11.4537 6.66568C11.4537 5.50361 11.5926 4.2447 11.1915 3.13912C10.8753 2.2595 10.2659 1.50092 9.4715 1.05707C8.98558 0.790767 8.44567 0.645508 7.89806 0.645508C5.93125 0.645508 4.34239 2.42896 4.34239 4.63206V4.92258C4.2884 7.25479 4.07243 9.43367 2.9772 11.3947C2.03622 13.0894 0 14.9212 0 17.0436C0 19.4807 2.13649 21.1754 4.04158 22.1358C6.60999 23.4269 9.46378 24.008 12.3176 24.008C14.0298 24.008 15.7344 23.7982 17.385 23.4189C20.1925 22.7652 24.3266 21.2158 24.9822 17.8183V17.8103Z" fill="#08D8CD"/>
</g>
<defs>
<clipPath id="clip0_530_235">
<rect width="46" height="24" fill="white"/>
</clipPath>
</defs>
</svg>
