<svg width="251" height="251" viewBox="0 0 251 251" fill="none" xmlns="http://www.w3.org/2000/svg">
<circle opacity="0.5" cx="125.5" cy="125.5" r="125.5" fill="#FFFADE"/>
<circle opacity="0.6" cx="125.5" cy="125.5" r="101.5" fill="#FFFADE"/>
<circle cx="125.5" cy="125.5" r="77.5" fill="#FFF9D7"/>
<path d="M107.437 164.65H95.8547L99.7156 188.16C100.49 193.25 103.001 196 107.05 196C111.1 196 113.611 193.26 114.385 188.16L118.246 164.65H107.437Z" fill="#00B5AB"/>
<path d="M152.23 164.65H140.647L144.508 188.16C145.282 193.25 147.793 196 151.843 196C155.892 196 158.403 193.26 159.177 188.16L163.038 164.65H152.23Z" fill="#00B5AB"/>
<path d="M191.99 141.09C191.99 130.11 181.092 120.58 176.02 111.78C170.165 101.61 169.023 90.32 168.735 78.2V76.68C168.735 65.26 160.22 56 149.719 56C146.791 56 143.893 56.74 141.302 58.13C137.044 60.42 133.789 64.36 132.092 68.91C129.948 74.66 130.702 81.2 130.702 87.22C130.702 89.34 130.543 91.27 129.233 93.03C128.191 94.42 126.662 95.29 124.995 95.56C123.328 95.29 121.789 94.41 120.757 93.03C119.437 91.28 119.278 89.35 119.288 87.22C119.288 81.2 120.042 74.66 117.899 68.91C116.201 64.36 112.946 60.41 108.688 58.13C106.097 56.74 103.199 56 100.271 56C89.7705 56 81.2547 65.26 81.2547 76.68V78.2C80.9669 90.32 79.8255 101.61 73.9696 111.78C68.8979 120.58 58 130.11 58 141.09C58 153.74 69.4239 162.52 79.6071 167.49C101.552 178.21 127.407 179.45 150.949 174.12C165.956 170.72 188.089 162.71 191.603 145.06C191.861 143.75 192 142.42 192 141.09H191.99Z" fill="#08D8CD"/>
<path d="M132.667 113.38C132.667 116.84 129.233 119.64 124.995 119.64C120.757 119.64 117.323 116.84 117.323 113.38" stroke="#00B5AB" stroke-width="3" stroke-linecap="round" stroke-linejoin="round"/>
<path d="M104.837 115.74C111.311 115.74 116.559 110.385 116.559 103.78C116.559 97.1747 111.311 91.8201 104.837 91.8201C98.3634 91.8201 93.1155 97.1747 93.1155 103.78C93.1155 110.385 98.3634 115.74 104.837 115.74Z" fill="white"/>
<path d="M104.837 111.71C109.129 111.71 112.609 108.16 112.609 103.78C112.609 99.4005 109.129 95.8501 104.837 95.8501C100.545 95.8501 97.0657 99.4005 97.0657 103.78C97.0657 108.16 100.545 111.71 104.837 111.71Z" fill="#262626"/>
<path d="M108.351 98.86C109.206 98.86 109.899 98.1526 109.899 97.2799C109.899 96.4073 109.206 95.7 108.351 95.7C107.496 95.7 106.802 96.4073 106.802 97.2799C106.802 98.1526 107.496 98.86 108.351 98.86Z" fill="white"/>
<path d="M145.153 115.74C151.627 115.74 156.875 110.385 156.875 103.78C156.875 97.1747 151.627 91.8201 145.153 91.8201C138.679 91.8201 133.431 97.1747 133.431 103.78C133.431 110.385 138.679 115.74 145.153 115.74Z" fill="white"/>
<path d="M145.153 111.71C149.445 111.71 152.924 108.16 152.924 103.78C152.924 99.4005 149.445 95.8501 145.153 95.8501C140.861 95.8501 137.382 99.4005 137.382 103.78C137.382 108.16 140.861 111.71 145.153 111.71Z" fill="#262626"/>
<path d="M148.667 98.86C149.522 98.86 150.215 98.1526 150.215 97.2799C150.215 96.4073 149.522 95.7 148.667 95.7C147.812 95.7 147.118 96.4073 147.118 97.2799C147.118 98.1526 147.812 98.86 148.667 98.86Z" fill="white"/>
<path d="M154.245 166.07C129.829 173.16 102.584 173.49 78.8529 163.6C72.61 161 65.8807 157.14 61.0769 151.85C65.1363 158.88 72.7192 164.09 79.7164 167.51C101.661 178.23 127.516 179.47 151.059 174.14C166.066 170.74 188.199 162.72 191.712 145.07C191.901 144.11 191.95 143.14 192 142.16C184.655 155.05 167.038 162.35 154.255 166.06L154.245 166.07Z" fill="#00B5AB"/>
</svg>
