<svg width="24" height="24" viewBox="0 0 24 24" fill="none" xmlns="http://www.w3.org/2000/svg">
<path fill-rule="evenodd" clip-rule="evenodd" d="M17.6009 7.60094C17.9329 7.26899 17.9329 6.7308 17.6009 6.39886C17.269 6.06692 16.7308 6.06692 16.3989 6.39886L11.9999 10.7978L7.60095 6.39886C7.269 6.06692 6.73081 6.06692 6.39886 6.39886C6.06692 6.7308 6.06692 7.26899 6.39886 7.60094L10.7978 11.9999L6.39886 16.3989C6.06692 16.7309 6.06692 17.2691 6.39886 17.601C6.73081 17.9329 7.269 17.9329 7.60094 17.601L11.9999 13.202L16.3989 17.601C16.7308 17.9329 17.269 17.9329 17.6009 17.601C17.9329 17.2691 17.9329 16.7309 17.6009 16.3989L13.202 11.9999L17.6009 7.60094Z" fill="#6F6F6F"/>
</svg>
