<svg width="117" height="62" viewBox="0 0 117 62" fill="none" xmlns="http://www.w3.org/2000/svg">
<g clip-path="url(#clip0_530_372)">
<path d="M111.919 31.5003C104.366 32.6261 97.0095 32.8971 90.1433 32.0007C88.9074 31.8339 87.6714 31.6463 86.4748 31.4169C85.0034 31.1251 84.2187 30.2078 84.1206 28.6026C84.101 28.1648 84.0814 27.7478 84.1206 27.3517C84.2187 25.7882 84.7876 24.5373 86.4944 24.2038C87.7107 23.9744 88.927 23.766 90.1629 23.62C97.0291 22.7445 104.386 23.0155 111.939 24.1204C117.53 24.9543 117.235 16.1567 116.863 12.4876C116.353 7.27572 109.624 4.54472 105.465 2.93948C100.109 0.875588 94.3414 0 88.6523 0C79.1573 0 70.7414 2.3349 63.8948 7.67182C62.1292 9.04775 61.0698 10.8823 61.0698 13.3006V29.6658C61.3837 30.1036 61.6976 30.5414 62.0311 31C64.5422 34.4815 67.681 38.7969 67.681 44.0087C67.681 44.9469 67.5829 45.885 67.4063 46.8023C67.0925 48.4492 66.4843 50.2421 65.4446 52.0767C69.8193 55.1621 74.8611 57.3927 80.3148 58.5602C83.1005 59.1439 85.9843 59.4566 88.9662 59.4566C93.3213 59.4566 97.5195 58.7895 101.443 57.5387C103.13 56.9966 104.758 56.3712 106.328 55.6207C109.486 54.1406 112.409 52.2851 115.019 50.117C115.175 49.9919 115.313 49.846 115.45 49.7001C116.294 48.7828 116.784 47.5111 116.784 46.156V42.7371C116.784 39.193 117.333 30.7081 111.899 31.5003H111.919Z" fill="#FDBA2D"/>
<path d="M63.5418 46.0102C63.6595 45.3639 63.7379 44.6968 63.7379 44.0297C63.7379 38.5676 58.5589 33.8144 56.1459 29.4365C53.3602 24.3706 52.8109 18.7418 52.6735 12.7169V11.9664C52.6735 6.27511 48.6323 1.66785 43.6298 1.66785C42.2369 1.66785 40.8637 2.0431 39.6278 2.73106C37.6071 3.87767 36.0573 5.83732 35.253 8.10968C34.2329 10.9658 34.586 14.2388 34.586 17.22C34.586 18.2832 34.5075 19.2422 33.8798 20.1177C33.3893 20.8057 32.6635 21.2435 31.8592 21.3686C31.0548 21.2227 30.329 20.8057 29.8385 20.1177C29.2108 19.2422 29.1323 18.2832 29.1323 17.22C29.1323 14.2179 29.4854 10.9658 28.4653 8.10968C27.661 5.83732 26.1112 3.87767 24.0905 2.73106C22.8546 2.0431 21.4814 1.66785 20.0885 1.66785C15.086 1.66785 11.0448 6.27511 11.0448 11.9664V12.7169C10.9074 18.7418 10.3581 24.3706 7.57243 29.4365C5.17907 33.8144 0 38.5468 0 44.0297C0 50.3256 5.4341 54.7035 10.2797 57.1843C16.8124 60.5199 24.0709 62.0209 31.3295 62.0209C35.6846 62.0209 40.0201 61.4789 44.2183 60.4991C51.3592 58.8104 61.8742 54.8077 63.5418 46.031V46.0102Z" fill="#08D8CD"/>
</g>
<defs>
<clipPath id="clip0_530_372">
<rect width="117" height="62" fill="white"/>
</clipPath>
</defs>
</svg>
