<svg width="121" height="121" viewBox="0 0 121 121" fill="none" xmlns="http://www.w3.org/2000/svg">
<rect width="121" height="121" rx="25" fill="white"/>
<g clip-path="url(#clip0_1053_415)">
<path d="M100.912 61.731C94.8474 62.605 88.94 62.8235 83.4332 62.1283C82.4374 62.0012 81.4491 61.8502 80.4832 61.6635C79.3002 61.433 78.6788 60.714 78.589 59.4466C78.5665 59.1129 78.559 58.7831 78.5777 58.4693H78.5815C78.6526 57.2457 79.1168 56.2604 80.487 55.9942C81.4565 55.8075 82.4411 55.6565 83.4369 55.5294C88.9437 54.8341 94.8511 55.0526 100.916 55.9267C105.397 56.5742 105.161 49.6774 104.865 46.7971C104.45 42.701 99.0589 40.5716 95.7159 39.3043C91.4145 37.6754 86.7949 37 82.2165 37C74.5946 37 67.8411 38.8355 62.3381 43.0228C61.6754 43.5274 61.1401 44.1194 60.7545 44.7947C60.7957 45.2159 60.8219 45.6449 60.8219 46.0819V46.6262C60.9267 51.1195 61.3535 54.7507 63.0793 57.8535C63.5472 58.6957 64.2585 59.6611 65.0072 60.6822C67.0213 63.4234 69.5295 66.8401 69.5295 71.0195C69.5295 71.7585 69.4584 72.5133 69.3124 73.2642C68.8631 75.5923 67.8411 77.6939 66.2688 79.5492C71.0194 82.1753 76.5487 83.689 82.4523 83.689C90.4524 83.689 97.7673 80.9239 103.383 76.3551C104.285 75.6241 104.82 74.464 104.82 73.2284V70.5428C104.82 67.7618 105.273 61.1033 100.912 61.731Z" fill="#FFB92C"/>
<path d="M66.164 71.0196C66.164 66.7686 62.0797 63.0778 60.1817 59.6691C57.9917 55.732 57.5612 51.3579 57.4564 46.666V46.078C57.4564 41.6562 54.2706 38.0687 50.3361 38.0687C49.2392 38.0687 48.1536 38.3548 47.184 38.8951C45.5892 39.781 44.3726 41.3066 43.7361 43.0705C42.935 45.2953 43.2158 47.83 43.2158 50.1621C43.2158 50.9845 43.1559 51.7314 42.6655 52.4107C42.2761 52.9471 41.7034 53.2847 41.0782 53.392C40.453 53.2887 39.8765 52.9471 39.4909 52.4107C38.9968 51.7314 38.9369 50.9845 38.9406 50.1621C38.9406 47.83 39.2214 45.2993 38.4203 43.0705C37.7838 41.3106 36.5672 39.781 34.9724 38.8951C34.0028 38.3587 32.9172 38.0687 31.8203 38.0687C27.8895 38.0687 24.7 41.6562 24.7 46.078V46.666C24.5914 51.3579 24.1647 55.732 21.9709 59.6691C20.0729 63.0778 15.9924 66.7686 15.9924 71.0196C15.9924 75.9181 20.2676 79.3188 24.0823 81.2417C32.2957 85.3933 41.9767 85.8741 50.7891 83.8082C56.4082 82.4932 64.6927 79.3904 66.0067 72.5571C66.1041 72.0485 66.1565 71.536 66.1565 71.0196H66.164Z" fill="#08D8CD"/>
</g>
<defs>
<clipPath id="clip0_1053_415">
<rect width="89" height="48" fill="white" transform="translate(16 37)"/>
</clipPath>
</defs>
</svg>
