<svg width="28" height="28" viewBox="0 0 28 28" fill="none" xmlns="http://www.w3.org/2000/svg">
<path d="M22.5103 16.4897L21.0273 15.6973C21.3472 14.5538 21.3375 13.3922 21.0273 12.3117L22.5103 11.5193C22.9756 11.2671 23.1403 10.7089 22.8689 10.2766L21.9093 8.73687C21.6379 8.30465 21.037 8.15158 20.5717 8.4037L19.0887 9.1961C18.3327 8.50275 17.4119 7.95348 16.336 7.61131C16.2003 7.56628 16.0646 7.53927 15.9386 7.50325V5.90945C15.9386 5.4052 15.5024 5 14.9596 5H13.0404C12.4976 5 12.0614 5.4052 12.0614 5.90945V7.49425C10.8789 7.8004 9.79332 8.38569 8.91127 9.18709L7.42827 8.3947C6.96301 8.14257 6.36206 8.29565 6.09066 8.72786L5.13107 10.2676C4.85967 10.6998 5.02445 11.2581 5.4897 11.5103L6.9727 12.3027C6.65284 13.4462 6.66253 14.6078 6.9727 15.6883L5.4897 16.4807C5.02445 16.7329 4.85967 17.2911 5.13107 17.7234L6.09066 19.2631C6.36206 19.6953 6.96301 19.8484 7.42827 19.5963L8.91127 18.8039C9.66731 19.4972 10.5881 20.0465 11.664 20.3887C11.7997 20.4337 11.9354 20.4607 12.0614 20.4967V22.0905C12.0614 22.5948 12.4976 23 13.0404 23H14.9596C15.5024 23 15.9386 22.5948 15.9386 22.0905V20.5058C17.1211 20.1996 18.2067 19.6143 19.0887 18.8129L20.5717 19.6053C21.037 19.8574 21.6379 19.7044 21.9093 19.2721L22.8689 17.7324C23.1403 17.3002 22.9756 16.7419 22.5103 16.4897Z" stroke="#6F6F6F" stroke-width="2" stroke-linecap="round" stroke-linejoin="round"/>
<circle cx="14" cy="14" r="3" stroke="#6F6F6F" stroke-width="2" stroke-linecap="round" stroke-linejoin="round"/>
</svg>
