<svg width="315" height="370" viewBox="0 0 315 370" fill="none" xmlns="http://www.w3.org/2000/svg">
<rect width="315" height="370" rx="20" fill="white"/>
<path d="M144 81.5C144 68.5213 154.521 58 167.5 58H242C255.255 58 266 68.7452 266 82V105H167.5C154.521 105 144 94.4787 144 81.5Z" fill="#E0E0E0"/>
<circle cx="183" cy="82" r="5" fill="#08D8CD"/>
<circle cx="205" cy="82" r="5" fill="#08D8CD"/>
<circle cx="227" cy="82" r="5" fill="#08D8CD"/>
<path d="M127.437 198.65H115.855L119.716 222.16C120.49 227.25 123.001 230 127.05 230C131.1 230 133.611 227.26 134.385 222.16L138.246 198.65H127.437Z" fill="#00B5AB"/>
<path d="M172.23 198.65H160.647L164.508 222.16C165.282 227.25 167.793 230 171.843 230C175.892 230 178.403 227.26 179.177 222.16L183.038 198.65H172.23Z" fill="#00B5AB"/>
<path d="M211.99 175.09C211.99 164.11 201.092 154.58 196.02 145.78C190.165 135.61 189.023 124.32 188.735 112.2V110.68C188.735 99.26 180.22 90 169.719 90C166.791 90 163.893 90.74 161.302 92.13C157.044 94.42 153.789 98.36 152.092 102.91C149.948 108.66 150.702 115.2 150.702 121.22C150.702 123.34 150.543 125.27 149.233 127.03C148.191 128.42 146.662 129.29 144.995 129.56C143.328 129.29 141.789 128.41 140.757 127.03C139.437 125.28 139.278 123.35 139.288 121.22C139.288 115.2 140.042 108.66 137.899 102.91C136.201 98.36 132.946 94.41 128.688 92.13C126.097 90.74 123.199 90 120.271 90C109.771 90 101.255 99.26 101.255 110.68V112.2C100.967 124.32 99.8255 135.61 93.9696 145.78C88.8979 154.58 78 164.11 78 175.09C78 187.74 89.4239 196.52 99.6071 201.49C121.552 212.21 147.407 213.45 170.949 208.12C185.956 204.72 208.089 196.71 211.603 179.06C211.861 177.75 212 176.42 212 175.09H211.99Z" fill="#08D8CD"/>
<path d="M152.667 147.38C152.667 150.84 149.233 153.64 144.995 153.64C140.757 153.64 137.323 150.84 137.323 147.38" stroke="#00B5AB" stroke-width="3" stroke-linecap="round" stroke-linejoin="round"/>
<path d="M124.837 149.74C131.311 149.74 136.559 144.385 136.559 137.78C136.559 131.175 131.311 125.82 124.837 125.82C118.363 125.82 113.115 131.175 113.115 137.78C113.115 144.385 118.363 149.74 124.837 149.74Z" fill="white"/>
<path d="M124.837 145.71C129.129 145.71 132.609 142.16 132.609 137.78C132.609 133.4 129.129 129.85 124.837 129.85C120.545 129.85 117.066 133.4 117.066 137.78C117.066 142.16 120.545 145.71 124.837 145.71Z" fill="#262626"/>
<path d="M128.351 132.86C129.206 132.86 129.899 132.153 129.899 131.28C129.899 130.407 129.206 129.7 128.351 129.7C127.496 129.7 126.802 130.407 126.802 131.28C126.802 132.153 127.496 132.86 128.351 132.86Z" fill="white"/>
<path d="M165.153 149.74C171.627 149.74 176.875 144.385 176.875 137.78C176.875 131.175 171.627 125.82 165.153 125.82C158.679 125.82 153.431 131.175 153.431 137.78C153.431 144.385 158.679 149.74 165.153 149.74Z" fill="white"/>
<path d="M165.153 145.71C169.445 145.71 172.924 142.16 172.924 137.78C172.924 133.4 169.445 129.85 165.153 129.85C160.861 129.85 157.382 133.4 157.382 137.78C157.382 142.16 160.861 145.71 165.153 145.71Z" fill="#262626"/>
<path d="M168.667 132.86C169.522 132.86 170.215 132.153 170.215 131.28C170.215 130.407 169.522 129.7 168.667 129.7C167.812 129.7 167.118 130.407 167.118 131.28C167.118 132.153 167.812 132.86 168.667 132.86Z" fill="white"/>
<path d="M174.245 200.07C149.829 207.16 122.584 207.49 98.8529 197.6C92.61 195 85.8807 191.14 81.0769 185.85C85.1363 192.88 92.7192 198.09 99.7164 201.51C121.661 212.23 147.516 213.47 171.059 208.14C186.066 204.74 208.199 196.72 211.712 179.07C211.901 178.11 211.95 177.14 212 176.16C204.655 189.05 187.038 196.35 174.255 200.06L174.245 200.07Z" fill="#00B5AB"/>
<path d="M266 196C266 176.118 249.882 160 230 160H85C65.1178 160 49 176.118 49 196V312H230C249.882 312 266 295.882 266 276V196Z" fill="#F4F4F4"/>
<path d="M77 192H157.5" stroke="#E0E0E0" stroke-width="3" stroke-linecap="round"/>
<path d="M77 214H238" stroke="#E0E0E0" stroke-width="3" stroke-linecap="round"/>
<path d="M77 236H238" stroke="#E0E0E0" stroke-width="3" stroke-linecap="round"/>
<path d="M77 258H238" stroke="#E0E0E0" stroke-width="3" stroke-linecap="round"/>
<path d="M77 280H238" stroke="#E0E0E0" stroke-width="3" stroke-linecap="round"/>
</svg>
