<svg width="315" height="370" viewBox="0 0 315 370" fill="none" xmlns="http://www.w3.org/2000/svg">
<path d="M144 73.5C144 60.5213 154.521 50 167.5 50H242C255.255 50 266 60.7452 266 74V97H167.5C154.521 97 144 86.4787 144 73.5Z" fill="#ECFFFD"/>
<circle cx="183" cy="74" r="5" fill="#08D8CD"/>
<circle cx="205" cy="74" r="5" fill="#08D8CD"/>
<circle cx="227" cy="74" r="5" fill="#08D8CD"/>
<path d="M127.437 192.65H115.855L119.716 216.16C120.49 221.25 123.001 224 127.05 224C131.1 224 133.611 221.26 134.385 216.16L138.246 192.65H127.437Z" fill="#00B5AB"/>
<path d="M172.23 192.65H160.647L164.508 216.16C165.282 221.25 167.793 224 171.843 224C175.892 224 178.403 221.26 179.177 216.16L183.038 192.65H172.23Z" fill="#00B5AB"/>
<path d="M211.99 169.09C211.99 158.11 201.092 148.58 196.02 139.78C190.165 129.61 189.023 118.32 188.735 106.2V104.68C188.735 93.26 180.22 84 169.719 84C166.791 84 163.893 84.74 161.302 86.13C157.044 88.42 153.789 92.36 152.092 96.91C149.948 102.66 150.702 109.2 150.702 115.22C150.702 117.34 150.543 119.27 149.233 121.03C148.191 122.42 146.662 123.29 144.995 123.56C143.328 123.29 141.789 122.41 140.757 121.03C139.437 119.28 139.278 117.35 139.288 115.22C139.288 109.2 140.042 102.66 137.899 96.91C136.201 92.36 132.946 88.41 128.688 86.13C126.097 84.74 123.199 84 120.271 84C109.771 84 101.255 93.26 101.255 104.68V106.2C100.967 118.32 99.8255 129.61 93.9696 139.78C88.8979 148.58 78 158.11 78 169.09C78 181.74 89.4239 190.52 99.6071 195.49C121.552 206.21 147.407 207.45 170.949 202.12C185.956 198.72 208.089 190.71 211.603 173.06C211.861 171.75 212 170.42 212 169.09H211.99Z" fill="#08D8CD"/>
<path d="M152.667 141.38C152.667 144.84 149.233 147.64 144.995 147.64C140.757 147.64 137.323 144.84 137.323 141.38" stroke="#00B5AB" stroke-width="3" stroke-linecap="round" stroke-linejoin="round"/>
<path d="M124.837 143.74C131.311 143.74 136.559 138.385 136.559 131.78C136.559 125.175 131.311 119.82 124.837 119.82C118.363 119.82 113.115 125.175 113.115 131.78C113.115 138.385 118.363 143.74 124.837 143.74Z" fill="white"/>
<path d="M124.837 139.71C129.129 139.71 132.609 136.16 132.609 131.78C132.609 127.4 129.129 123.85 124.837 123.85C120.545 123.85 117.066 127.4 117.066 131.78C117.066 136.16 120.545 139.71 124.837 139.71Z" fill="#262626"/>
<path d="M128.351 126.86C129.206 126.86 129.899 126.153 129.899 125.28C129.899 124.407 129.206 123.7 128.351 123.7C127.496 123.7 126.802 124.407 126.802 125.28C126.802 126.153 127.496 126.86 128.351 126.86Z" fill="white"/>
<path d="M165.153 143.74C171.627 143.74 176.875 138.385 176.875 131.78C176.875 125.175 171.627 119.82 165.153 119.82C158.679 119.82 153.431 125.175 153.431 131.78C153.431 138.385 158.679 143.74 165.153 143.74Z" fill="white"/>
<path d="M165.153 139.71C169.445 139.71 172.924 136.16 172.924 131.78C172.924 127.4 169.445 123.85 165.153 123.85C160.861 123.85 157.382 127.4 157.382 131.78C157.382 136.16 160.861 139.71 165.153 139.71Z" fill="#262626"/>
<path d="M168.667 126.86C169.522 126.86 170.215 126.153 170.215 125.28C170.215 124.407 169.522 123.7 168.667 123.7C167.812 123.7 167.118 124.407 167.118 125.28C167.118 126.153 167.812 126.86 168.667 126.86Z" fill="white"/>
<path d="M174.245 194.07C149.829 201.16 122.584 201.49 98.8529 191.6C92.61 189 85.8807 185.14 81.0769 179.85C85.1363 186.88 92.7192 192.09 99.7164 195.51C121.661 206.23 147.516 207.47 171.059 202.14C186.066 198.74 208.199 190.72 211.712 173.07C211.901 172.11 211.95 171.14 212 170.16C204.655 183.05 187.038 190.35 174.255 194.06L174.245 194.07Z" fill="#00B5AB"/>
<path d="M266 190C266 170.118 249.882 154 230 154H85C65.1178 154 49 170.118 49 190V306H230C249.882 306 266 289.882 266 270V190Z" fill="#F4F4F4"/>
<path d="M77 184H158" stroke="#E0E0E0" stroke-width="4" stroke-linecap="round"/>
<path d="M77 206H238" stroke="#E0E0E0" stroke-width="4" stroke-linecap="round"/>
<path d="M77 228H238" stroke="#E0E0E0" stroke-width="4" stroke-linecap="round"/>
<path d="M77 250H238" stroke="#E0E0E0" stroke-width="4" stroke-linecap="round"/>
<path d="M77 272H238" stroke="#E0E0E0" stroke-width="4" stroke-linecap="round"/>
</svg>
