<svg width="315" height="370" viewBox="0 0 315 370" fill="none" xmlns="http://www.w3.org/2000/svg">
<rect width="315" height="370" rx="20" fill="white"/>
<path d="M90.7621 103.565C94.7658 103.565 98.0169 100.263 98.0169 96.1897C98.0169 92.1168 94.7658 88.8145 90.7621 88.8145C86.7584 88.8145 83.5073 92.1168 83.5073 96.1897C83.5073 100.263 86.7584 103.565 90.7621 103.565Z" fill="#262626"/>
<path d="M94.0431 91.6061C94.8458 91.6061 95.488 90.9457 95.488 90.1351C95.488 89.3245 94.8458 88.6641 94.0431 88.6641C93.2403 88.6641 92.5981 89.3245 92.5981 90.1351C92.5981 90.9457 93.2403 91.6061 94.0431 91.6061Z" fill="white"/>
<path d="M92.9894 155.221H82.353L85.8951 176.756C86.6076 181.419 88.9155 183.941 92.6281 183.941C96.3408 183.941 98.6588 181.429 99.3612 176.756L102.903 155.221H92.9794H92.9894Z" fill="#00B5AB"/>
<path d="M134.13 155.221H123.494L127.036 176.756C127.748 181.419 130.056 183.941 133.769 183.941C137.481 183.941 139.799 181.429 140.502 176.756L144.044 155.221H134.12H134.13Z" fill="#00B5AB"/>
<path d="M171.107 134.556C171.107 124.499 161.092 115.773 156.436 107.707C151.058 98.3909 150.014 88.0536 149.744 76.9457V75.5547C149.744 65.0973 141.917 56.6113 132.274 56.6113C129.585 56.6113 126.926 57.2918 124.547 58.5627C120.634 60.6642 117.644 64.2667 116.088 68.4397C114.122 73.7034 114.814 79.6976 114.814 85.2115C114.814 87.1529 114.664 88.9242 113.47 90.5353C112.667 91.6061 111.533 92.3466 110.289 92.6968C109.827 92.8269 109.335 92.8269 108.864 92.6968C107.609 92.3466 106.486 91.6061 105.683 90.5353C104.469 88.9342 104.328 87.1629 104.338 85.2115C104.338 79.6976 105.031 73.7034 103.064 68.4397C101.509 64.2667 98.5184 60.6542 94.605 58.5627C92.2269 57.2918 89.5678 56.6113 86.8786 56.6113C77.2357 56.6113 69.4089 65.0973 69.4089 75.5547V76.9457C69.148 88.0435 68.0944 98.3909 62.716 107.707C58.0601 115.773 48.0459 124.499 48.0459 134.556C48.0459 146.145 58.5418 154.19 67.8937 158.744C88.0526 168.56 111.804 169.701 133.428 164.818C147.215 161.706 167.544 154.37 170.765 138.199C171.006 136.998 171.127 135.777 171.127 134.566L171.107 134.556Z" fill="#08D8CD"/>
<path d="M136.438 157.412C114.012 163.907 88.986 164.207 67.1915 155.151C61.4619 152.769 55.2808 149.237 50.8657 144.383C54.5985 150.828 61.5623 155.591 67.9842 158.723C88.1431 168.54 111.894 169.681 133.518 164.798C147.305 161.685 167.635 154.34 170.856 138.169C171.026 137.288 171.077 136.397 171.117 135.507C164.374 147.315 148.188 154 136.448 157.402L136.438 157.412Z" fill="#00B5AB"/>
<path fill-rule="evenodd" clip-rule="evenodd" d="M102.482 107.188C103.245 107.188 103.857 107.798 103.857 108.558C103.857 110.52 105.914 112.551 109.075 112.551C112.235 112.551 114.292 110.52 114.292 108.558C114.292 107.798 114.905 107.188 115.667 107.188C116.43 107.188 117.042 107.798 117.042 108.558C117.042 112.531 113.199 115.293 109.075 115.293C104.951 115.293 101.107 112.531 101.107 108.558C101.107 107.798 101.72 107.188 102.482 107.188Z" fill="#00B5AB"/>
<path d="M91.7551 110.58C97.3241 110.58 101.83 105.987 101.83 100.323C101.83 94.6587 97.3141 90.0654 91.7551 90.0654C86.1961 90.0654 81.6807 94.6587 81.6807 100.323C81.6807 105.987 86.1961 110.58 91.7551 110.58Z" fill="white"/>
<path d="M91.7551 107.127C95.4477 107.127 98.438 104.085 98.438 100.332C98.438 96.5793 95.4477 93.5371 91.7551 93.5371C88.0625 93.5371 85.0723 96.5793 85.0723 100.332C85.0723 104.085 88.0625 107.127 91.7551 107.127Z" fill="#262626"/>
<path d="M94.7755 96.1091C95.508 96.1091 96.11 95.4987 96.11 94.7582C96.11 94.0177 95.518 93.4072 94.7755 93.4072C94.0329 93.4072 93.4409 94.0177 93.4409 94.7582C93.4409 95.4987 94.0329 96.1091 94.7755 96.1091Z" fill="white"/>
<path d="M126.404 110.58C131.973 110.58 136.478 105.987 136.478 100.323C136.478 94.6587 131.963 90.0654 126.404 90.0654C120.845 90.0654 116.329 94.6587 116.329 100.323C116.329 105.987 120.845 110.58 126.404 110.58Z" fill="white"/>
<path d="M126.404 107.127C130.096 107.127 133.086 104.085 133.086 100.332C133.086 96.5793 130.096 93.5371 126.404 93.5371C122.711 93.5371 119.721 96.5793 119.721 100.332C119.721 104.085 122.711 107.127 126.404 107.127Z" fill="#262626"/>
<path d="M129.424 96.1091C130.156 96.1091 130.758 95.4987 130.758 94.7582C130.758 94.0177 130.166 93.4072 129.424 93.4072C128.681 93.4072 128.089 94.0177 128.089 94.7582C128.089 95.4987 128.681 96.1091 129.424 96.1091Z" fill="white"/>
<path d="M188.185 122.848H30.9675C24.9068 122.848 20 127.741 20 133.785V186.032C20 192.077 24.9068 196.97 30.9675 196.97H40.9918L61.6925 222.698L61.1306 196.97H188.195C194.256 196.97 199.162 192.077 199.162 186.032V133.785C199.162 127.741 194.256 122.848 188.195 122.848H188.185Z" fill="#ECFFFD"/>
<path d="M39.4268 143.633H179.716" stroke="#B1EDEA" stroke-width="4" stroke-linecap="round"/>
<path d="M39.4868 160.625H179.546" stroke="#B1EDEA" stroke-width="4" stroke-linecap="round"/>
<path d="M39.4868 176.196H116.059" stroke="#B1EDEA" stroke-width="4" stroke-linecap="round"/>
<path d="M174.94 66.9284C173.746 68.0592 172.462 69.0899 171.298 70.2708C170.344 71.2415 169.542 72.7125 167.926 72.4123C166.411 72.1321 165.869 70.7711 166.24 69.4302C166.531 68.3394 167.214 67.3887 168.067 66.6082C169.672 65.1371 173.264 63.8863 171.86 61.0442C170.766 58.8327 167.966 59.9335 166.923 61.4245C166.301 62.3252 165.327 63.3559 163.742 62.8555C163.09 62.6754 162.638 62.3051 162.337 61.7447C162.016 61.1643 161.976 60.4138 162.237 59.6933C163.571 56.0507 167.294 54.4496 171.117 55.1501C173.606 55.6004 175.502 56.8613 176.405 58.6125C178.091 62.055 176.766 65.1572 174.94 66.9284ZM168.187 76.265C168.398 76.7854 168.368 77.3958 168.097 78.0363C167.685 79.037 166.672 79.6174 165.618 79.4272C164.183 79.1671 163.531 77.8361 163.722 76.7754C163.902 75.8047 164.785 74.5338 166.22 74.794C166.391 74.824 166.571 74.874 166.732 74.9441C167.485 75.2443 167.996 75.7146 168.217 76.275H168.197L168.187 76.265Z" fill="#FFD029"/>
<path d="M52.6011 74.073C52.3 75.6842 51.8685 77.2753 51.6177 78.9064C51.417 80.2474 51.6277 81.9086 50.1426 82.6191C48.7479 83.2795 47.5137 82.489 47.022 81.178C46.6106 80.1273 46.6106 78.9465 46.8414 77.8257C47.2728 75.6942 49.4503 72.582 46.6407 71.1109C44.4532 69.9601 42.8377 72.4919 42.8678 74.3132C42.8979 75.404 42.7072 76.815 41.1318 77.3353C40.4997 77.5655 39.9177 77.5255 39.3457 77.2553C38.7437 76.9751 38.2721 76.3846 38.0614 75.6441C36.9977 71.9115 39.0748 68.439 42.5768 66.7679C44.8646 65.6771 47.1324 65.597 48.8884 66.4776C52.28 68.2889 53.0325 71.5712 52.591 74.063L52.6011 74.073ZM52.8318 84.5304C53.3637 84.8606 53.7349 85.441 53.9055 86.1916C54.1865 87.3724 53.6547 88.5533 52.5709 89.0636C51.1059 89.7641 49.6409 88.9836 49.1192 87.9028C48.6475 86.9021 48.6074 85.1809 50.0724 84.4804C50.243 84.4003 50.4437 84.3303 50.6343 84.2802C51.5173 84.0701 52.28 84.1501 52.8519 84.5204H52.8318V84.5304Z" fill="#00EB8C"/>
<path d="M191.275 88.8039C189.64 89.024 187.994 89.1241 186.369 89.4043C185.034 89.6345 183.509 90.365 182.375 89.1842C181.301 88.0734 181.663 86.6524 182.756 85.7818C183.629 85.0612 184.743 84.691 185.887 84.5509C188.054 84.2807 191.707 85.3615 192.219 82.2392C192.63 79.8075 189.7 79.077 187.984 79.6774C186.951 80.0577 185.556 80.3179 184.563 78.997C184.141 78.4666 183.991 77.9062 184.071 77.2757C184.151 76.6153 184.563 75.9848 185.195 75.5545C188.406 73.373 192.369 74.2336 195.068 77.0256C196.824 78.8469 197.627 80.9683 197.336 82.9097C196.694 86.6824 193.804 88.4436 191.285 88.8139L191.275 88.8039ZM181.402 92.3364C181.251 92.9468 180.82 93.4772 180.157 93.8775C179.124 94.5179 177.829 94.3878 176.997 93.5272C175.873 92.3564 176.144 90.7252 177.007 89.8947C177.799 89.1241 179.435 88.5537 180.569 89.7145C180.699 89.8546 180.83 90.0147 180.93 90.1849C181.412 90.9454 181.572 91.7059 181.412 92.3564L181.392 92.3364H181.402Z" fill="#FA6EE3"/>
<path d="M201.601 227.732C201.781 224.75 202.985 222.358 206.518 221.718C209.016 221.268 211.565 220.897 214.134 220.587C228.352 218.896 243.604 219.426 259.258 221.548C270.827 223.119 270.215 206.387 269.453 199.392C268.379 189.455 254.461 184.291 245.832 181.209C234.724 177.256 222.803 175.615 210.983 175.615C191.306 175.615 173.866 180.068 159.657 190.226C156.005 192.837 153.817 196.35 153.817 200.963V228.813V228.343V261.096C153.817 265.709 156.005 270.042 159.657 272.654C173.856 282.811 191.928 288.905 211.605 288.905C232.255 288.905 251.15 282.201 265.64 271.113C267.968 269.341 269.352 266.519 269.352 263.527V257.013C269.352 250.268 270.506 234.097 259.238 235.628C243.584 237.749 228.332 238.28 214.113 236.588C211.545 236.278 208.986 235.918 206.497 235.458C203.447 234.897 201.842 233.156 201.611 230.084C201.551 229.273 201.53 228.473 201.581 227.712L201.601 227.732Z" fill="#FFB92C"/>
<path d="M233.259 214.202C234.122 214.202 234.724 215.293 234.372 216.254C233.138 219.636 230.519 221.968 227.479 221.968C224.438 221.968 221.83 219.636 220.585 216.254C220.234 215.293 220.836 214.202 221.699 214.202H233.259Z" fill="#FF9739"/>
<path d="M208.193 215.634C214.575 215.634 219.743 210.55 219.743 204.286C219.743 198.021 214.575 192.938 208.193 192.938C201.811 192.938 196.644 198.021 196.644 204.286C196.644 210.55 201.811 215.634 208.193 215.634Z" fill="white"/>
<path d="M209.799 213.382C214.033 213.382 217.465 210.02 217.465 205.867C217.465 201.714 214.033 198.352 209.799 198.352C205.564 198.352 202.132 201.714 202.132 205.867C202.132 210.02 205.564 213.382 209.799 213.382Z" fill="#262626"/>
<path d="M215.97 202.764C216.812 202.764 217.495 202.093 217.495 201.263C217.495 200.432 216.812 199.762 215.97 199.762C215.127 199.762 214.444 200.432 214.444 201.263C214.444 202.093 215.127 202.764 215.97 202.764Z" fill="white"/>
<path d="M208.193 219.086C216.512 219.086 223.255 212.461 223.255 204.295C223.255 196.13 216.512 189.505 208.193 189.505C199.875 189.505 193.132 196.13 193.132 204.295C193.132 212.461 199.875 219.086 208.193 219.086Z" fill="#FFD029"/>
<path d="M208.193 215.634C214.575 215.634 219.743 210.55 219.743 204.286C219.743 198.021 214.575 192.938 208.193 192.938C201.811 192.938 196.644 198.021 196.644 204.286C196.644 210.55 201.811 215.634 208.193 215.634Z" fill="white"/>
<path d="M209.799 213.382C214.033 213.382 217.465 210.02 217.465 205.867C217.465 201.714 214.033 198.352 209.799 198.352C205.564 198.352 202.132 201.714 202.132 205.867C202.132 210.02 205.564 213.382 209.799 213.382Z" fill="#262626"/>
<path d="M215.5 203.002C216.342 203.002 217.025 202.332 217.025 201.501C217.025 200.67 216.342 200 215.5 200C214.657 200 213.974 200.67 213.974 201.501C213.974 202.332 214.657 203.002 215.5 203.002Z" fill="white"/>
<path d="M246.755 219.086C255.073 219.086 261.816 212.461 261.816 204.295C261.816 196.13 255.073 189.505 246.755 189.505C238.436 189.505 231.693 196.13 231.693 204.295C231.693 212.461 238.436 219.086 246.755 219.086Z" fill="#FFD029"/>
<path d="M246.755 215.634C253.137 215.634 258.305 210.55 258.305 204.286C258.305 198.021 253.137 192.938 246.755 192.938C240.373 192.938 235.206 198.021 235.206 204.286C235.206 210.55 240.373 215.634 246.755 215.634Z" fill="white"/>
<path d="M252.806 205.867C252.806 210.02 249.374 213.382 245.139 213.382C240.905 213.382 237.473 210.02 237.473 205.867C237.473 201.714 240.905 198.352 245.139 198.352C249.374 198.352 252.806 201.714 252.806 205.867Z" fill="#262626"/>
<path d="M239.526 203.002C240.369 203.002 241.051 202.332 241.051 201.501C241.051 200.67 240.369 200 239.526 200C238.683 200 238 200.67 238 201.501C238 202.332 238.683 203.002 239.526 203.002Z" fill="white"/>
<path d="M231.794 202.434H221.238V206.136H231.794V202.434Z" fill="#FFD029"/>
<path d="M194.727 202.154H187.884C186.858 202.154 186.027 202.983 186.027 204.006C186.027 205.028 186.858 205.857 187.884 205.857H194.727C195.752 205.857 196.583 205.028 196.583 204.006C196.583 202.983 195.752 202.154 194.727 202.154Z" fill="#FFD029"/>
<path d="M267.837 202.154H260.994C259.968 202.154 259.137 202.983 259.137 204.006C259.137 205.028 259.968 205.857 260.994 205.857H267.837C268.862 205.857 269.693 205.028 269.693 204.006C269.693 202.983 268.862 202.154 267.837 202.154Z" fill="#FFD029"/>
<path d="M284.434 256.572H139.208C133.368 256.572 128.642 261.286 128.642 267.11V301.584C128.642 307.408 133.368 312.122 139.208 312.122H252.615L255.335 337.99L273.085 312.122H284.434C290.274 312.122 295 307.408 295 301.584V267.11C295 261.286 290.274 256.572 284.434 256.572Z" fill="#FEFADD"/>
<path d="M175.742 289.586C178.64 289.586 180.99 287.242 180.99 284.352C180.99 281.461 178.64 279.118 175.742 279.118C172.844 279.118 170.494 281.461 170.494 284.352C170.494 287.242 172.844 289.586 175.742 289.586Z" fill="#FFB92C"/>
<path d="M199.794 289.586C202.693 289.586 205.042 287.242 205.042 284.352C205.042 281.461 202.693 279.118 199.794 279.118C196.896 279.118 194.546 281.461 194.546 284.352C194.546 287.242 196.896 289.586 199.794 289.586Z" fill="#FFB92C"/>
<path d="M223.847 289.586C226.745 289.586 229.095 287.242 229.095 284.352C229.095 281.461 226.745 279.118 223.847 279.118C220.948 279.118 218.599 281.461 218.599 284.352C218.599 287.242 220.948 289.586 223.847 289.586Z" fill="#FFB92C"/>
<path d="M247.909 289.586C250.807 289.586 253.157 287.242 253.157 284.352C253.157 281.461 250.807 279.118 247.909 279.118C245.01 279.118 242.661 281.461 242.661 284.352C242.661 287.242 245.01 289.586 247.909 289.586Z" fill="#FFB92C"/>
</svg>
