<svg width="24" height="24" viewBox="0 0 24 24" fill="none" xmlns="http://www.w3.org/2000/svg">
<path fill-rule="evenodd" clip-rule="evenodd" d="M18.1735 7.50107C18.5005 7.82802 18.5005 8.35811 18.1735 8.68506L10.3596 16.499C10.0326 16.826 9.50254 16.826 9.17559 16.499L5.82676 13.1502C5.49981 12.8232 5.49981 12.2931 5.82676 11.9662C6.15371 11.6392 6.6838 11.6392 7.01075 11.9662L9.76759 14.723L16.9895 7.50107C17.3165 7.17412 17.8466 7.17412 18.1735 7.50107Z" fill="#E0E0E0"/>
<path fill-rule="evenodd" clip-rule="evenodd" d="M0 12C0 5.37258 5.37258 0 12 0C18.6274 0 24 5.37258 24 12C24 18.6274 18.6274 24 12 24C5.37258 24 0 18.6274 0 12ZM12 1.67442C6.29734 1.67442 1.67442 6.29734 1.67442 12C1.67442 17.7026 6.29734 22.3256 12 22.3256C17.7026 22.3256 22.3256 17.7026 22.3256 12C22.3256 6.29734 17.7026 1.67442 12 1.67442Z" fill="#E0E0E0"/>
</svg>
