<svg width="315" height="370" viewBox="0 0 315 370" fill="none" xmlns="http://www.w3.org/2000/svg">
<path d="M62 291.095V196.954C62 192.05 64.4043 187.459 68.4389 184.679L149.055 129.061C154.139 125.551 160.861 125.551 165.952 129.061L246.561 184.679C250.596 187.459 253 192.05 253 196.954V291.095C253 299.33 246.338 306 238.112 306H76.8876C68.6696 306 62 299.33 62 291.095Z" fill="#F4F4F4"/>
<path d="M228.181 160.839H87.8982V306H228.181V160.839Z" fill="#08D8CD"/>
<path opacity="0.5" d="M153.979 242.64L70.8633 193.968C66.9677 191.686 62.0742 194.501 62.0742 199.02V291.971C62.0742 297.861 68.4535 301.528 73.5244 298.557L153.979 251.448C157.342 249.478 157.342 244.603 153.979 242.632V242.64Z" fill="#E0E0E0"/>
<path opacity="0.5" d="M161.096 242.64L244.211 193.968C248.106 191.686 253 194.501 253 199.02V291.971C253 297.861 246.621 301.528 241.55 298.557L161.096 251.448C157.732 249.478 157.732 244.603 161.096 242.632V242.64Z" fill="#E0E0E0"/>
<path opacity="0.8" d="M149.98 221.395L67.0353 283.496C57.4035 290.703 62.5132 306 74.5548 306H240.445C252.487 306 257.597 290.703 247.965 283.496L165.02 221.403C160.564 218.07 154.436 218.07 149.98 221.403V221.395Z" fill="#F4F4F4"/>
<path d="M145.794 185.975H148.321V200.118H146.063L139.364 190.457H139.247V200.118H136.712V185.975H138.998L145.669 195.643H145.794V185.975ZM160.184 200.118H150.95V185.975H160.136V188.115H153.485V191.969H159.652V194.103H153.485V197.977H160.184V200.118ZM168.088 200.118H165.568L161.59 185.975H164.318L166.88 196.389H167.011L169.732 185.975H172.232L174.967 196.396H175.084L177.646 185.975H180.381L176.396 200.118H173.876L171.044 190.173H170.934L168.088 200.118Z" fill="white"/>
<path d="M201.854 200.869C199.369 203.562 198.715 205.153 198.638 208.816C195.943 206.343 194.349 205.694 190.677 205.626C193.163 202.933 193.817 201.342 193.893 197.679C196.588 200.152 198.182 200.801 201.854 200.869Z" fill="#00B5AB"/>
<path d="M126.292 180.563C122.651 180.934 121.109 181.694 118.629 184.391C118.25 180.748 117.487 179.203 114.786 176.716C118.427 176.345 119.969 175.585 122.449 172.888C122.828 176.531 123.591 178.075 126.292 180.563Z" fill="#00B5AB"/>
<path d="M157.991 106V115.284" stroke="#08D8CD" stroke-width="4" stroke-linecap="round" stroke-linejoin="round"/>
<path d="M136.822 111.499L141.65 119.545" stroke="#FFB92C" stroke-width="4" stroke-linecap="round" stroke-linejoin="round"/>
<path d="M120.271 122.863L128.629 127.505" stroke="#08D8CD" stroke-width="4" stroke-linecap="round" stroke-linejoin="round"/>
<path d="M195.808 122.719L187.439 127.361" stroke="#08D8CD" stroke-width="4" stroke-linecap="round" stroke-linejoin="round"/>
<path d="M179.182 111.225L174.354 119.261" stroke="#FFB92C" stroke-width="4" stroke-linecap="round" stroke-linejoin="round"/>
<rect x="97" y="47" width="122" height="47" rx="23.5" fill="#ECFFFD"/>
<rect width="20" height="23" rx="2" transform="matrix(-1 0 0 1 129 59)" fill="white"/>
<rect width="20" height="23" rx="2" transform="matrix(-1 0 0 1 184 59)" fill="white"/>
<rect width="20" height="23" rx="2" transform="matrix(-1 0 0 1 152 59)" fill="white"/>
<rect width="20" height="23" rx="2" transform="matrix(-1 0 0 1 207 59)" fill="white"/>
<path d="M118.999 78.3039C122.542 78.297 124.69 75.5898 124.676 70.942C124.669 66.308 122.528 63.663 118.999 63.663C115.47 63.663 113.316 66.3218 113.323 70.942C113.323 75.6036 115.463 78.3039 118.999 78.3039ZM118.999 75.8591C117.363 75.8591 116.313 74.2155 116.313 70.942C116.32 67.7099 117.37 66.0801 118.999 66.0801C120.629 66.0801 121.679 67.7099 121.686 70.942C121.693 74.2155 120.636 75.8591 118.999 75.8591Z" fill="#08D8CD"/>
<path d="M173.999 78.3039C177.542 78.297 179.69 75.5898 179.676 70.942C179.669 66.308 177.528 63.663 173.999 63.663C170.47 63.663 168.316 66.3218 168.323 70.942C168.323 75.6036 170.463 78.3039 173.999 78.3039ZM173.999 75.8591C172.363 75.8591 171.313 74.2155 171.313 70.942C171.32 67.7099 172.37 66.0801 173.999 66.0801C175.629 66.0801 176.679 67.7099 176.686 70.942C176.693 74.2155 175.636 75.8591 173.999 75.8591Z" fill="#08D8CD"/>
<path d="M141.852 63.663C144.773 63.6768 147.542 65.4171 147.556 70.5552C147.563 75.3688 145.277 78.1934 141.734 78.1934C138.882 78.1934 136.935 76.4116 136.645 74.0221H139.538C139.78 75.058 140.588 75.6727 141.734 75.6727C143.647 75.6727 144.67 73.9461 144.683 71.1285H144.552C143.896 72.3715 142.501 73.1174 140.933 73.1174C138.392 73.1174 136.507 71.2044 136.5 68.5663C136.493 65.721 138.647 63.6492 141.852 63.663ZM141.866 65.9765C140.415 65.9765 139.345 67.0815 139.359 68.4834C139.366 69.8854 140.395 70.9696 141.845 70.9696C143.274 70.9696 144.379 69.8301 144.373 68.4696C144.366 67.1229 143.309 65.9765 141.866 65.9765Z" fill="#08D8CD"/>
<path d="M197.001 78.3039C193.458 78.297 191.31 75.5898 191.324 70.942C191.331 66.308 193.472 63.663 197.001 63.663C200.53 63.663 202.684 66.3218 202.677 70.942C202.677 75.6036 200.537 78.3039 197.001 78.3039ZM197.001 75.8591C198.637 75.8591 199.687 74.2155 199.687 70.942C199.68 67.7099 198.63 66.0801 197.001 66.0801C195.371 66.0801 194.321 67.7099 194.314 70.942C194.307 74.2155 195.364 75.8591 197.001 75.8591Z" fill="#08D8CD"/>
<path d="M158.009 69.7279C157.098 69.7279 156.352 68.9959 156.366 68.0912C156.352 67.1934 157.098 66.4613 158.009 66.4613C158.879 66.4613 159.639 67.1934 159.646 68.0912C159.639 68.9959 158.879 69.7279 158.009 69.7279ZM158.002 77.1727C157.098 77.1727 156.345 76.4406 156.359 75.5359C156.345 74.6381 157.098 73.9061 158.002 73.9061C158.872 73.9061 159.632 74.6381 159.639 75.5359C159.632 76.4406 158.872 77.1727 158.002 77.1727Z" fill="#08D8CD"/>
</svg>
