<svg width="315" height="370" viewBox="0 0 315 370" fill="none" xmlns="http://www.w3.org/2000/svg">
<rect width="315" height="370" rx="20" fill="white"/>
<path d="M202.806 248.715H192.326L195.82 269.267C196.518 273.713 198.794 276.121 202.457 276.121C206.12 276.121 208.396 273.733 209.094 269.267L212.588 248.715H202.806Z" fill="#FF9739"/>
<path d="M240.684 248.674H230.204L233.697 269.226C234.396 273.672 236.672 276.08 240.335 276.08C243.998 276.08 246.274 273.692 246.972 269.226L250.466 248.674H240.684Z" fill="#FF9739"/>
<path d="M209.004 196.739C209.194 193.672 210.422 191.214 214.055 190.545C216.62 190.075 219.235 189.705 221.87 189.386C236.462 187.647 252.113 188.197 268.172 190.375C280.04 191.993 279.421 174.758 278.632 167.565C277.534 157.334 263.252 152.008 254.398 148.841C243 144.774 230.763 143.086 218.636 143.086C198.444 143.086 180.558 147.672 165.976 158.133C162.223 160.821 159.987 164.437 159.987 169.193V197.878V197.389V231.119C159.987 235.875 162.233 240.331 165.976 243.019C180.548 253.48 199.093 259.754 219.285 259.754C240.475 259.754 259.858 252.841 274.73 241.43C277.115 239.602 278.543 236.705 278.543 233.617V226.903C278.543 219.949 279.72 203.304 268.172 204.872C252.103 207.06 236.462 207.6 221.87 205.861C219.235 205.542 216.61 205.162 214.055 204.702C210.921 204.123 209.274 202.334 209.034 199.167C208.974 198.338 208.954 197.509 209.004 196.729V196.739Z" fill="#FFB92C"/>
<path d="M218.257 252.301C196.159 250.393 172.474 241.541 159.987 228.762V231.11C159.987 235.866 162.233 240.322 165.976 243.009C180.548 253.47 199.093 259.745 219.285 259.745C240.475 259.745 259.858 252.831 274.73 241.421C275.398 240.911 275.967 240.322 276.476 239.662C259.359 248.654 239.786 254.16 218.257 252.301Z" fill="#FF9739"/>
<path d="M242.379 183.188C243.243 183.188 243.845 184.278 243.494 185.238C242.259 188.62 239.638 190.951 236.596 190.951C233.554 190.951 230.944 188.62 229.699 185.238C229.347 184.278 229.95 183.188 230.813 183.188H242.379Z" fill="#FF9739"/>
<path d="M217.299 184.619C223.685 184.619 228.856 179.537 228.856 173.274C228.856 167.012 223.685 161.93 217.299 161.93C210.914 161.93 205.743 167.012 205.743 173.274C205.743 179.537 210.914 184.619 217.299 184.619Z" fill="white"/>
<path d="M218.906 182.368C223.143 182.368 226.577 179.007 226.577 174.855C226.577 170.703 223.143 167.342 218.906 167.342C214.669 167.342 211.235 170.703 211.235 174.855C211.235 179.007 214.669 182.368 218.906 182.368Z" fill="#262626"/>
<path d="M225.08 171.754C225.923 171.754 226.606 171.084 226.606 170.253C226.606 169.422 225.923 168.752 225.08 168.752C224.236 168.752 223.554 169.422 223.554 170.253C223.554 171.084 224.236 171.754 225.08 171.754Z" fill="white"/>
<path d="M217.299 188.07C225.622 188.07 232.369 181.447 232.369 173.284C232.369 165.121 225.622 158.498 217.299 158.498C208.976 158.498 202.229 165.121 202.229 173.284C202.229 181.447 208.976 188.07 217.299 188.07Z" fill="#FFD029"/>
<path d="M217.299 184.619C223.685 184.619 228.856 179.537 228.856 173.274C228.856 167.012 223.685 161.93 217.299 161.93C210.914 161.93 205.743 167.012 205.743 173.274C205.743 179.537 210.914 184.619 217.299 184.619Z" fill="white"/>
<path d="M218.906 182.368C223.143 182.368 226.577 179.007 226.577 174.855C226.577 170.703 223.143 167.342 218.906 167.342C214.669 167.342 211.235 170.703 211.235 174.855C211.235 179.007 214.669 182.368 218.906 182.368Z" fill="#262626"/>
<path d="M224.61 171.992C225.454 171.992 226.136 171.322 226.136 170.491C226.136 169.661 225.454 168.99 224.61 168.99C223.767 168.99 223.084 169.661 223.084 170.491C223.084 171.322 223.767 171.992 224.61 171.992Z" fill="white"/>
<path d="M255.883 188.07C264.206 188.07 270.953 181.447 270.953 173.284C270.953 165.121 264.206 158.498 255.883 158.498C247.559 158.498 240.812 165.121 240.812 173.284C240.812 181.447 247.559 188.07 255.883 188.07Z" fill="#FFD029"/>
<path d="M255.882 184.619C262.268 184.619 267.439 179.537 267.439 173.274C267.439 167.012 262.268 161.93 255.882 161.93C249.497 161.93 244.326 167.012 244.326 173.274C244.326 179.537 249.497 184.619 255.882 184.619Z" fill="white"/>
<path d="M261.936 174.855C261.936 179.007 258.502 182.368 254.265 182.368C250.028 182.368 246.595 179.007 246.595 174.855C246.595 170.703 250.028 167.342 254.265 167.342C258.502 167.342 261.936 170.703 261.936 174.855Z" fill="#262626"/>
<path d="M248.649 171.992C249.493 171.992 250.175 171.322 250.175 170.491C250.175 169.661 249.493 168.99 248.649 168.99C247.806 168.99 247.123 169.661 247.123 170.491C247.123 171.322 247.806 171.992 248.649 171.992Z" fill="white"/>
<path d="M240.913 171.424H230.351V175.125H240.913V171.424Z" fill="#FFD029"/>
<path d="M203.825 171.143H196.978C195.952 171.143 195.12 171.971 195.12 172.993C195.12 174.015 195.952 174.844 196.978 174.844H203.825C204.851 174.844 205.682 174.015 205.682 172.993C205.682 171.971 204.851 171.143 203.825 171.143Z" fill="#FFD029"/>
<path d="M276.978 171.143H270.131C269.105 171.143 268.273 171.971 268.273 172.993C268.273 174.015 269.105 174.844 270.131 174.844H276.978C278.004 174.844 278.836 174.015 278.836 172.993C278.836 171.971 278.004 171.143 276.978 171.143Z" fill="#FFD029"/>
<path fill-rule="evenodd" clip-rule="evenodd" d="M94.7983 195.121C95.6167 195.121 96.2855 195.791 96.2855 196.61C96.2855 198.738 98.5112 200.936 101.925 200.936C105.338 200.936 107.564 198.728 107.564 196.61C107.564 195.791 108.233 195.121 109.051 195.121C109.87 195.121 110.538 195.791 110.538 196.61C110.538 200.916 106.386 203.913 101.935 203.913C97.4832 203.913 93.3311 200.916 93.3311 196.61C93.3311 195.791 93.9998 195.121 94.8182 195.121H94.7983Z" fill="#00B5AB"/>
<path d="M84.538 247.176H73.0498L76.8825 270.515C77.6511 275.571 80.1364 278.299 84.1587 278.299C88.1811 278.299 90.6664 275.581 91.4349 270.515L95.2677 247.176H84.548H84.538Z" fill="#00B5AB"/>
<path d="M128.964 247.176H117.476L121.308 270.515C122.077 275.571 124.562 278.299 128.585 278.299C132.607 278.299 135.092 275.581 135.861 270.515L139.693 247.176H128.974H128.964Z" fill="#00B5AB"/>
<path d="M168.888 224.775C168.888 213.875 158.079 204.413 153.048 195.681C147.239 185.579 146.111 174.379 145.822 162.34V160.831C145.822 149.491 137.378 140.299 126.958 140.299C124.053 140.299 121.178 141.038 118.613 142.417C114.391 144.695 111.157 148.602 109.481 153.118C107.355 158.823 108.103 165.317 108.103 171.292C108.103 173.4 107.944 175.308 106.646 177.057C105.778 178.216 104.56 179.015 103.213 179.395C102.714 179.535 102.185 179.535 101.675 179.395C100.318 179.015 99.1004 178.206 98.242 177.057C96.9345 175.318 96.7748 173.4 96.7847 171.292C96.7847 165.317 97.5333 158.823 95.4074 153.118C93.7206 148.602 90.4967 144.675 86.2747 142.417C83.7095 141.038 80.835 140.299 77.9305 140.299C67.5202 140.299 59.0663 149.491 59.0663 160.831V162.34C58.7768 174.369 57.649 185.579 51.84 195.681C46.8095 204.413 36 213.875 36 224.775C36 237.334 47.3285 246.047 57.4294 250.983C79.1981 261.623 104.839 262.852 128.185 257.567C143.067 254.19 165.025 246.237 168.509 228.712C168.768 227.413 168.898 226.094 168.898 224.775H168.888Z" fill="#08D8CD"/>
<path d="M131.459 249.564C107.245 256.607 80.2266 256.927 56.6813 247.116C50.493 244.538 43.8157 240.701 39.0547 235.446C43.0771 242.43 50.6028 247.595 57.5396 250.992C79.3084 261.633 104.95 262.862 128.295 257.577C143.177 254.2 165.136 246.236 168.619 228.712C168.809 227.763 168.859 226.793 168.908 225.824C161.622 238.623 144.155 245.867 131.469 249.554L131.459 249.564Z" fill="#00B5AB"/>
<path d="M83.2104 198.809C89.219 198.809 94.0898 193.833 94.0898 187.698C94.0898 181.564 89.219 176.588 83.2104 176.588C77.2018 176.588 72.3311 181.564 72.3311 187.698C72.3311 193.833 77.2018 198.809 83.2104 198.809Z" fill="white"/>
<path d="M83.2105 195.061C87.1929 195.061 90.4268 191.764 90.4268 187.698C90.4268 183.631 87.1929 180.334 83.2105 180.334C79.228 180.334 75.9941 183.631 75.9941 187.698C75.9941 191.764 79.228 195.061 83.2105 195.061Z" fill="#262626"/>
<path d="M86.4636 183.122C87.2621 183.122 87.9009 182.462 87.9009 181.653C87.9009 180.843 87.2621 180.184 86.4636 180.184C85.6652 180.184 85.0264 180.843 85.0264 181.653C85.0264 182.462 85.6652 183.122 86.4636 183.122Z" fill="white"/>
<path d="M120.62 198.809C126.628 198.809 131.499 193.833 131.499 187.698C131.499 181.564 126.628 176.588 120.62 176.588C114.611 176.588 109.74 181.564 109.74 187.698C109.74 193.833 114.611 198.809 120.62 198.809Z" fill="white"/>
<path d="M120.62 195.061C124.602 195.061 127.836 191.764 127.836 187.698C127.836 183.631 124.602 180.334 120.62 180.334C116.637 180.334 113.403 183.631 113.403 187.698C113.403 191.764 116.637 195.061 120.62 195.061Z" fill="#262626"/>
<path d="M123.884 183.122C124.682 183.122 125.321 182.462 125.321 181.653C125.321 180.843 124.682 180.184 123.884 180.184C123.085 180.184 122.446 180.843 122.446 181.653C122.446 182.462 123.085 183.122 123.884 183.122Z" fill="white"/>
<path d="M107.355 197.799C108.333 197.799 109.031 199.078 108.622 200.217C107.215 204.193 104.231 206.941 100.767 206.941C97.3037 206.941 94.3294 204.203 92.922 200.217C92.5228 199.088 93.2115 197.799 94.1896 197.799H107.355Z" fill="#00B5AB"/>
<path d="M215.814 312.082C216.533 311.023 216.962 309.733 216.962 308.354V240.473C216.962 239.633 216.802 238.824 216.513 238.084L174.277 276.072L215.814 312.082Z" fill="#CFFFFB"/>
<path d="M97.488 238.084C97.1987 238.824 97.0391 239.623 97.0391 240.473V308.354C97.0391 309.733 97.458 311.023 98.1862 312.082L139.723 276.072L97.488 238.084Z" fill="#CFFFFB"/>
<path d="M210.328 315.001H103.663C100.84 315.001 98.4357 313.232 97.478 310.743L139.713 272.755L146.387 266.748C152.422 261.321 161.569 261.321 167.604 266.748L174.278 272.755L216.513 310.743C215.555 313.232 213.151 315.001 210.328 315.001Z" fill="#BEF6F3"/>
<path d="M210.328 233.826H103.663C100.84 233.826 98.4357 235.595 97.478 238.084L139.713 276.072L146.387 282.079C152.422 287.506 161.569 287.506 167.604 282.079L174.278 276.072L216.513 238.084C215.555 235.595 213.151 233.826 210.328 233.826Z" fill="#ECFFFD"/>
<path d="M96.9264 61.6885H67.3938C65.3558 61.6885 63.7036 63.3076 63.7036 65.3049V99.6725C63.7036 101.67 65.3558 103.289 67.3938 103.289H96.9264C98.9644 103.289 100.617 101.67 100.617 99.6725V65.3049C100.617 63.3076 98.9644 61.6885 96.9264 61.6885Z" fill="#F4F4F4"/>
<path d="M82.4512 95.1441C88.9712 95.1441 92.9444 90.3739 92.9444 81.9983C92.9444 73.6227 88.9825 68.8525 82.4512 68.8525C75.9198 68.8525 71.958 73.656 71.958 81.9983C71.958 90.3406 75.9198 95.1441 82.4512 95.1441ZM82.4512 90.7622C79.4289 90.7622 77.4819 87.9 77.5159 81.9983C77.5159 76.1742 79.4289 73.2012 82.4512 73.2012C85.4735 73.2012 87.3865 76.1631 87.3865 81.9983C87.4204 87.9 85.4735 90.7622 82.4512 90.7622Z" fill="#C6C6C6"/>
<path d="M201.475 61.7891H171.943C169.905 61.7891 168.252 63.4082 168.252 65.4055V99.7731C168.252 101.77 169.905 103.39 171.943 103.39H201.475C203.513 103.39 205.165 101.77 205.165 99.7731V65.4055C205.165 63.4082 203.513 61.7891 201.475 61.7891Z" fill="#F4F4F4"/>
<path d="M187.013 95.2339C193.533 95.2339 197.506 90.4637 197.506 82.0881C197.506 73.7126 193.544 68.9424 187.013 68.9424C180.481 68.9424 176.52 73.7459 176.52 82.0881C176.52 90.4304 180.481 95.2339 187.013 95.2339ZM187.013 90.852C183.99 90.852 182.043 87.9899 182.077 82.0881C182.077 76.2641 183.99 73.291 187.013 73.291C190.035 73.291 191.948 76.253 191.948 82.0881C191.982 87.9899 190.035 90.852 187.013 90.852Z" fill="#C6C6C6"/>
<path d="M247.014 61.8887H217.482C215.444 61.8887 213.792 63.5078 213.792 65.5051V99.8727C213.792 101.87 215.444 103.489 217.482 103.489H247.014C249.052 103.489 250.704 101.87 250.704 99.8727V65.5051C250.704 63.5078 249.052 61.8887 247.014 61.8887Z" fill="#F4F4F4"/>
<path d="M232.552 95.3335C239.072 95.3335 243.045 90.5633 243.045 82.1878C243.045 73.8122 239.083 69.042 232.552 69.042C226.02 69.042 222.059 73.8455 222.059 82.1878C222.059 90.53 226.02 95.3335 232.552 95.3335ZM232.552 90.9516C229.529 90.9516 227.583 88.0895 227.616 82.1878C227.616 76.3637 229.529 73.3906 232.552 73.3906C235.574 73.3906 237.487 76.3526 237.487 82.1878C237.521 88.0895 235.574 90.9516 232.552 90.9516Z" fill="#C6C6C6"/>
<path d="M142.431 61.4893H112.899C110.861 61.4893 109.208 63.1084 109.208 65.1057V99.4733C109.208 101.471 110.861 103.09 112.899 103.09H142.431C144.469 103.09 146.121 101.471 146.121 99.4733V65.1057C146.121 63.1084 144.469 61.4893 142.431 61.4893Z" fill="#F4F4F4"/>
<path d="M127.638 68.665C133.049 68.6983 138.165 71.8489 138.165 81.1341C138.199 89.8203 133.988 94.9455 127.423 94.9455C122.16 94.9455 118.594 91.7284 118.051 87.3908H123.382C123.812 89.2656 125.329 90.3972 127.423 90.3972C130.989 90.3972 132.868 87.291 132.868 82.1658H132.653C131.43 84.4289 128.872 85.7712 125.952 85.7712C121.265 85.7712 117.802 82.31 117.768 77.5398C117.768 72.3814 121.729 68.6318 127.649 68.6761L127.638 68.665ZM127.672 72.8362C125.001 72.8362 123.02 74.8552 123.054 77.3956C123.054 79.9027 124.967 81.8774 127.627 81.8774C130.287 81.8774 132.313 79.8251 132.313 77.3512C132.279 74.9107 130.332 72.8251 127.661 72.8251L127.672 72.8362Z" fill="#C6C6C6"/>
<path d="M157.204 92.0736C155.506 92.0736 154.136 90.7313 154.17 89.1116C154.136 87.492 155.506 86.1829 157.204 86.1829C158.788 86.1829 160.192 87.492 160.192 89.1116C160.192 90.7313 158.788 92.0736 157.204 92.0736ZM157.204 78.6172C155.506 78.6172 154.136 77.2749 154.17 75.6552C154.136 74.0356 155.506 72.7266 157.204 72.7266C158.788 72.7266 160.192 74.0356 160.192 75.6552C160.192 77.2749 158.788 78.6172 157.204 78.6172Z" fill="#F4F4F4"/>
<path d="M57.4076 56.4996C58.1367 56.5267 58.5148 57.4077 58.0287 57.9363C53.3572 63.0733 51.818 66.7329 51.494 73.5641C51.467 74.2553 50.6299 74.6077 50.0899 74.1604C44.6623 69.647 40.8414 68.156 33.6586 67.8307C32.9295 67.8036 32.5515 66.9226 33.0375 66.394C37.709 61.257 39.2482 57.5975 39.5722 50.7663C39.5992 50.075 40.4363 49.7226 40.9764 50.1699C46.404 54.6834 50.2249 56.1743 57.4076 56.4996Z" fill="#FA6EE3"/>
<path d="M81.9671 38.4999C82.3991 38.5406 82.6152 39.0692 82.3046 39.3809C79.3883 42.3763 78.3892 44.5314 78.0517 48.6383C78.0112 49.0585 77.5116 49.2482 77.2011 48.9636C74.0282 46.1443 71.76 45.1685 67.4665 44.8161C67.0345 44.7754 66.8185 44.2468 67.129 43.935C70.0453 40.9396 71.0444 38.7845 71.382 34.6777C71.4225 34.2575 71.922 34.0677 72.2326 34.3524C75.4054 37.1716 77.6736 38.1475 81.9671 38.4999Z" fill="#00EB8C"/>
<path d="M62.3581 118.782C62.3822 119.146 61.9562 119.401 61.645 119.187C58.6644 117.195 56.6704 116.673 53.0846 116.977C52.7169 117.003 52.4851 116.616 52.6879 116.318C54.6837 113.286 55.2146 111.267 54.931 107.656C54.907 107.292 55.333 107.038 55.6442 107.251C58.6248 109.244 60.6188 109.766 64.2046 109.462C64.5722 109.435 64.8041 109.823 64.6013 110.121C62.6054 113.152 62.0746 115.172 62.3581 118.782Z" fill="#FFD029"/>
<path d="M261.327 60.2862C261.303 60.6503 260.848 60.847 260.567 60.5952C257.871 58.2323 255.962 57.4554 252.367 57.2906C251.999 57.2688 251.819 56.8546 252.059 56.5856C254.432 53.8391 255.221 51.9057 255.409 48.2892C255.433 47.9252 255.888 47.7284 256.169 47.9802C258.865 50.3432 260.775 51.1201 264.369 51.2849C264.737 51.3067 264.917 51.7208 264.677 51.9899C262.304 54.7364 261.515 56.6698 261.327 60.2862Z" fill="#FA6EE3"/>
<path d="M257.942 102.209C257.199 102.181 256.814 101.283 257.309 100.744C262.066 95.5066 263.634 91.7756 263.964 84.8111C263.991 84.1063 264.844 83.747 265.394 84.2031C270.921 88.8046 274.812 90.3247 282.127 90.6563C282.869 90.6839 283.254 91.5821 282.759 92.1211C278.002 97.3583 276.435 101.089 276.105 108.054C276.077 108.759 275.225 109.118 274.675 108.662C269.147 104.06 265.256 102.54 257.942 102.209Z" fill="#FFD029"/>
<path d="M233.823 119.645C233.401 119.603 233.19 119.066 233.494 118.749C236.341 115.702 237.317 113.511 237.647 109.334C237.686 108.907 238.174 108.714 238.477 109.003C241.576 111.87 243.791 112.863 247.983 113.221C248.405 113.262 248.616 113.8 248.313 114.117C245.465 117.163 244.489 119.355 244.16 123.532C244.12 123.959 243.632 124.152 243.329 123.862C240.231 120.995 238.016 120.003 233.823 119.645Z" fill="#00EB8C"/>
<path d="M157 279C156.5 278 155 276 151.5 276C148 276 145 279.53 145 284C145 290.5 154.86 296.54 157 297C159.14 296.54 169 290.5 169 284C169 279.53 166 276 162.5 276C159 276 157.5 278 157 279Z" fill="#FA6EE3"/>
</svg>
