<svg width="315" height="370" viewBox="0 0 315 370" fill="none" xmlns="http://www.w3.org/2000/svg">
<rect y="-0.00012207" width="315" height="370" rx="20" fill="white"/>
<circle opacity="0.2" cx="157.5" cy="196.5" r="125.5" fill="#FFFADD"/>
<circle opacity="0.4" cx="157.5" cy="196.5" r="101.5" fill="#FFFADD"/>
<circle cx="157.5" cy="196.5" r="77.5" fill="#FFFADD"/>
<path d="M69 298.138V210.587C69 206.027 71.2281 201.757 74.9669 199.172L149.674 147.447C154.385 144.182 160.615 144.182 165.333 147.447L240.033 199.172C243.772 201.757 246 206.027 246 210.587V298.138C246 305.797 239.826 312 232.204 312H82.7963C75.1808 312 69 305.797 69 298.138Z" fill="#F4F4F4"/>
<path d="M223 177H93V312H223V177Z" fill="#08D8CD"/>
<path opacity="0.5" d="M154.237 253.075L77.2137 207.81C73.6037 205.688 69.0688 208.306 69.0688 212.509V298.953C69.0688 304.431 74.9805 307.841 79.6797 305.078L154.237 261.267C157.354 259.434 157.354 254.901 154.237 253.068V253.075Z" fill="#E0E0E0"/>
<path opacity="0.5" d="M160.832 253.075L237.855 207.81C241.465 205.688 246 208.306 246 212.509V298.953C246 304.431 240.088 307.841 235.389 305.078L160.832 261.267C157.715 259.434 157.715 254.901 160.832 253.068V253.075Z" fill="#E0E0E0"/>
<path opacity="0.8" d="M150.532 233.318L73.6662 291.071C64.7404 297.774 69.4755 312 80.6345 312H234.365C245.524 312 250.26 297.774 241.334 291.071L164.468 233.324C160.34 230.225 154.66 230.225 150.532 233.324V233.318Z" fill="#F4F4F4"/>
<path d="M145.754 200.856H148.282V215H146.023L139.325 205.338H139.207V215H136.673V200.856H138.958L145.63 210.525H145.754V200.856ZM160.144 215H150.911V200.856H160.096V202.997H153.445V206.851H159.613V208.985H153.445V212.859H160.144V215ZM168.049 215H165.528L161.55 200.856H164.278L166.84 211.271H166.971L169.692 200.856H172.192L174.927 211.278H175.045L177.607 200.856H180.342L176.357 215H173.836L171.005 205.055H170.894L168.049 215Z" fill="white"/>
<path d="M198.603 214.228C196.3 216.732 195.694 218.213 195.623 221.619C193.126 219.319 191.648 218.716 188.245 218.653C190.549 216.148 191.155 214.668 191.226 211.262C193.723 213.561 195.2 214.165 198.603 214.228Z" fill="#00B5AB"/>
<path d="M128.579 195.343C125.206 195.689 123.777 196.395 121.478 198.903C121.127 195.515 120.42 194.079 117.917 191.766C121.291 191.421 122.719 190.714 125.018 188.206C125.369 191.594 126.076 193.03 128.579 195.343Z" fill="#00B5AB"/>
<path d="M157.955 126V134.634" stroke="#08D8CD" stroke-width="5" stroke-linecap="round" stroke-linejoin="round"/>
<path d="M138.338 131.114L142.812 138.597" stroke="#FFB92C" stroke-width="5" stroke-linecap="round" stroke-linejoin="round"/>
<path d="M123 141.683L130.746 146" stroke="#08D8CD" stroke-width="5" stroke-linecap="round" stroke-linejoin="round"/>
<path d="M193 141.548L185.244 145.866" stroke="#08D8CD" stroke-width="5" stroke-linecap="round" stroke-linejoin="round"/>
<path d="M177.592 130.859L173.118 138.332" stroke="#FFB92C" stroke-width="5" stroke-linecap="round" stroke-linejoin="round"/>
<rect x="143" y="58" width="122" height="47" rx="23.5" fill="#ECFFFD"/>
<rect width="20" height="23" rx="2" transform="matrix(-1 0 0 1 175 70)" fill="white"/>
<rect width="20" height="23" rx="2" transform="matrix(-1 0 0 1 230 70)" fill="white"/>
<rect width="20" height="23" rx="2" transform="matrix(-1 0 0 1 198 70)" fill="white"/>
<rect width="20" height="23" rx="2" transform="matrix(-1 0 0 1 253 70)" fill="white"/>
<path d="M164.999 89.2693C168.41 89.2624 170.441 86.576 170.434 81.942C170.434 77.3218 168.389 74.663 164.999 74.663C161.615 74.663 159.564 77.3287 159.564 81.942C159.57 86.5898 161.594 89.2693 164.999 89.2693ZM164.999 87.1146C163.231 87.1146 162.133 85.3398 162.133 81.942C162.139 78.5649 163.238 76.7831 164.999 76.7831C166.767 76.7831 167.865 78.5649 167.872 81.942C167.872 85.3398 166.773 87.1146 164.999 87.1146Z" fill="#08D8CD"/>
<path d="M219.999 89.2693C223.41 89.2624 225.441 86.576 225.434 81.942C225.434 77.3218 223.389 74.663 219.999 74.663C216.615 74.663 214.564 77.3287 214.564 81.942C214.57 86.5898 216.594 89.2693 219.999 89.2693ZM219.999 87.1146C218.231 87.1146 217.133 85.3398 217.133 81.942C217.139 78.5649 218.238 76.7831 219.999 76.7831C221.767 76.7831 222.865 78.5649 222.872 81.942C222.872 85.3398 221.773 87.1146 219.999 87.1146Z" fill="#08D8CD"/>
<path d="M187.867 74.663C190.629 74.6768 193.378 76.3343 193.385 81.4931C193.385 86.3757 191.182 89.1934 187.715 89.1934C184.98 89.1934 183.095 87.4945 182.784 85.1602H185.298C185.56 86.2721 186.423 86.9903 187.715 86.9903C189.759 86.9903 190.905 85.1809 190.919 82.1492H190.767C190.056 83.3715 188.695 84.1036 187.148 84.1036C184.614 84.1036 182.659 82.1837 182.653 79.511C182.646 76.7417 184.731 74.6492 187.867 74.663ZM187.88 76.721C186.292 76.721 185.111 77.9365 185.125 79.4489C185.132 80.9682 186.258 82.163 187.846 82.163C189.414 82.163 190.629 80.8923 190.622 79.4351C190.615 77.9917 189.462 76.721 187.88 76.721Z" fill="#08D8CD"/>
<path d="M243.001 89.2693C239.59 89.2624 237.559 86.576 237.566 81.942C237.566 77.3218 239.611 74.663 243.001 74.663C246.385 74.663 248.436 77.3287 248.436 81.942C248.43 86.5898 246.406 89.2693 243.001 89.2693ZM243.001 87.1146C244.769 87.1146 245.867 85.3398 245.867 81.942C245.861 78.5649 244.762 76.7831 243.001 76.7831C241.233 76.7831 240.135 78.5649 240.128 81.942C240.128 85.3398 241.227 87.1146 243.001 87.1146Z" fill="#08D8CD"/>
<path d="M204.01 80.5691C203.181 80.5691 202.484 79.8923 202.498 79.0566C202.484 78.2279 203.181 77.558 204.01 77.558C204.825 77.558 205.523 78.2279 205.523 79.0566C205.523 79.8923 204.825 80.5691 204.01 80.5691ZM204.003 88.1519C203.168 88.1519 202.477 87.4751 202.491 86.6395C202.477 85.8108 203.168 85.1409 204.003 85.1409C204.818 85.1409 205.509 85.8108 205.516 86.6395C205.509 87.4751 204.818 88.1519 204.003 88.1519Z" fill="#08D8CD"/>
</svg>
