<svg width="323" height="378" viewBox="0 0 323 378" fill="none" xmlns="http://www.w3.org/2000/svg">
<g filter="url(#filter0_d_657_131)">
<rect x="4" width="315" height="370" rx="20" fill="white"/>
<circle opacity="0.2" cx="161.5" cy="196.5" r="125.5" fill="#FFFADD"/>
<circle opacity="0.4" cx="161.5" cy="196.5" r="101.5" fill="#FFFADD"/>
<circle cx="161.5" cy="196.5" r="77.5" fill="#FFFADD"/>
<g clip-path="url(#clip0_657_131)">
<path d="M73.0693 298.138V210.587C73.0693 206.027 75.3083 201.757 79.0653 199.172L154.136 147.447C158.87 144.182 165.13 144.182 169.871 147.447L244.935 199.172C248.692 201.757 250.931 206.027 250.931 210.587V298.138C250.931 305.797 244.727 312 237.067 312H86.9328C79.2802 312 73.0693 305.797 73.0693 298.138Z" fill="#C6C6C6"/>
<path d="M226.539 176.721H97V298.939H226.539V176.721Z" fill="#08D8CD"/>
<path d="M159.252 253.351L81.3112 207.815C77.6581 205.68 73.0693 208.314 73.0693 212.542V299.504C73.0693 305.014 79.0514 308.444 83.8066 305.665L159.252 261.592C162.406 259.748 162.406 255.187 159.252 253.344V253.351Z" fill="#E0E0E0"/>
<path d="M164.749 253.351L242.689 207.815C246.342 205.68 250.931 208.314 250.931 212.542V299.504C250.931 305.014 244.949 308.444 240.194 305.665L164.749 261.592C161.595 259.748 161.595 255.187 164.749 253.344V253.351Z" fill="#E0E0E0"/>
<path d="M154.995 233.002L77.6927 290.992C68.7162 297.722 73.4783 312.007 84.7007 312.007H239.306C250.529 312.007 255.291 297.722 246.314 290.992L169.011 233.009C164.859 229.897 159.148 229.897 154.995 233.009V233.002Z" fill="#F4F4F4"/>
<path d="M150.254 196.856H152.782V211H150.523L143.825 201.338H143.707V211H141.173V196.856H143.458L150.13 206.525H150.254V196.856ZM164.644 211H155.411V196.856H164.596V198.997H157.945V202.851H164.113V204.985H157.945V208.859H164.644V211ZM172.549 211H170.028L166.05 196.856H168.778L171.34 207.271H171.471L174.192 196.856H176.692L179.427 207.278H179.545L182.107 196.856H184.842L180.857 211H178.336L175.505 201.055H175.394L172.549 211Z" fill="white"/>
<path d="M190.61 175.227C188.308 177.728 187.703 179.207 187.635 182.612C185.135 180.311 183.656 179.707 180.252 179.64C182.554 177.139 183.159 175.66 183.227 172.255C185.727 174.556 187.205 175.16 190.61 175.227Z" fill="white"/>
<path d="M130.772 199.212C127.39 199.56 125.957 200.267 123.651 202.773C123.303 199.392 122.596 197.96 120.09 195.655C123.472 195.306 124.905 194.599 127.211 192.094C127.559 195.474 128.266 196.907 130.772 199.212Z" fill="white"/>
</g>
<g clip-path="url(#clip1_657_131)">
<path d="M227.996 166.992C247.323 166.992 262.992 151.621 262.992 132.66C262.992 113.7 247.323 98.3293 227.996 98.3293C208.668 98.3293 193 113.7 193 132.66C193 151.621 208.668 166.992 227.996 166.992Z" fill="#E0E0E0"/>
<path d="M228.033 161.925C244.619 161.925 258.066 148.734 258.066 132.462C258.066 116.191 244.619 103 228.033 103C211.446 103 198 116.191 198 132.462C198 148.734 211.446 161.925 228.033 161.925Z" fill="#ECFFFD"/>
<path d="M217.254 94.6862H222.888V102.148C224.562 101.939 226.271 101.822 228.004 101.822C229.738 101.822 231.438 101.939 233.12 102.148V94.6862H238.755C240.633 94.6862 242.162 93.1855 242.162 91.3431C242.162 89.5006 240.633 88 238.755 88H217.254C215.376 88 213.846 89.5006 213.846 91.3431C213.846 93.1855 215.376 94.6862 217.254 94.6862Z" fill="#E0E0E0"/>
<path d="M205.628 108.2C207.32 106.683 209.147 105.316 211.076 104.09L206.385 99.4966C205.051 98.1877 202.892 98.1877 201.566 99.4966C200.232 100.805 200.232 102.923 201.566 104.224L205.62 108.2H205.628Z" fill="#E0E0E0"/>
<path d="M227.996 112.602V134.72H208.858" stroke="#08D8CD" stroke-width="4" stroke-linecap="round" stroke-linejoin="round"/>
</g>
<g clip-path="url(#clip2_657_131)">
<path d="M105.33 123.687C105.33 125.569 103.511 127.635 101.188 127.635C98.8646 127.635 97 126.105 97 124.222C97 122.34 98.6354 120.656 100.943 120.656C103.251 120.656 105.33 121.804 105.33 123.687Z" fill="#08D8CD"/>
<path d="M104.565 123.794V102.781C104.565 102.781 113.399 103.025 112.712 116.509" stroke="#08D8CD" stroke-miterlimit="10"/>
<path d="M125 145.052C125 146.934 123.181 149 120.858 149C118.535 149 116.67 147.47 116.67 145.587C116.67 143.705 118.306 142.021 120.614 142.021C122.922 142.021 125 143.169 125 145.052Z" fill="#08D8CD"/>
<path d="M124.22 145.159V124.161" stroke="#08D8CD" stroke-miterlimit="10"/>
</g>
</g>
<defs>
<filter id="filter0_d_657_131" x="0" y="0" width="323" height="378" filterUnits="userSpaceOnUse" color-interpolation-filters="sRGB">
<feFlood flood-opacity="0" result="BackgroundImageFix"/>
<feColorMatrix in="SourceAlpha" type="matrix" values="0 0 0 0 0 0 0 0 0 0 0 0 0 0 0 0 0 0 127 0" result="hardAlpha"/>
<feOffset dy="4"/>
<feGaussianBlur stdDeviation="2"/>
<feComposite in2="hardAlpha" operator="out"/>
<feColorMatrix type="matrix" values="0 0 0 0 0 0 0 0 0 0 0 0 0 0 0 0 0 0 0.25 0"/>
<feBlend mode="normal" in2="BackgroundImageFix" result="effect1_dropShadow_657_131"/>
<feBlend mode="normal" in="SourceGraphic" in2="effect1_dropShadow_657_131" result="shape"/>
</filter>
<clipPath id="clip0_657_131">
<rect width="178" height="167" fill="white" transform="translate(73 145)"/>
</clipPath>
<clipPath id="clip1_657_131">
<rect width="70" height="79" fill="white" transform="translate(193 88)"/>
</clipPath>
<clipPath id="clip2_657_131">
<rect width="28" height="47" fill="white" transform="translate(97 102)"/>
</clipPath>
</defs>
</svg>
