<svg width="315" height="370" viewBox="0 0 315 370" fill="none" xmlns="http://www.w3.org/2000/svg">
<rect width="315" height="370" rx="20" fill="white"/>
<path d="M77.0374 301.778L189.166 252.405L124.129 104L12 153.374L77.0374 301.778Z" fill="#ECFFFD"/>
<path d="M294.559 115.685L182.131 67L118 215.801L230.428 264.486L294.559 115.685Z" fill="#FFFADD"/>
<path d="M215.632 123.904H124.368C115.328 123.904 108 131.223 108 140.251V209.653C108 218.681 115.328 226 124.368 226H215.632C224.672 226 232 218.681 232 209.653V140.251C232 131.223 224.672 123.904 215.632 123.904Z" fill="#F4F4F4"/>
<path d="M232 150.138V140.251C232 131.22 224.674 123.904 215.632 123.904H124.368C115.326 123.904 108 131.22 108 140.251V150.138H232Z" fill="#E0E0E0"/>
<path d="M139.739 116H136.056C135.19 116 134.489 116.701 134.489 117.565V130.592C134.489 131.457 135.19 132.157 136.056 132.157H139.739C140.604 132.157 141.306 131.457 141.306 130.592V117.565C141.306 116.701 140.604 116 139.739 116Z" fill="#C6C6C6"/>
<path d="M203.944 116H200.262C199.396 116 198.695 116.701 198.695 117.565V130.592C198.695 131.457 199.396 132.157 200.262 132.157H203.944C204.81 132.157 205.511 131.457 205.511 130.592V117.565C205.511 116.701 204.81 116 203.944 116Z" fill="#C6C6C6"/>
<path d="M138.93 162.617H132.093C130.826 162.617 129.798 163.644 129.798 164.91V171.738C129.798 173.004 130.826 174.03 132.093 174.03H138.93C140.198 174.03 141.226 173.004 141.226 171.738V164.91C141.226 163.644 140.198 162.617 138.93 162.617Z" fill="white"/>
<path d="M162.385 162.617H155.548C154.28 162.617 153.252 163.644 153.252 164.91V171.738C153.252 173.004 154.28 174.03 155.548 174.03H162.385C163.653 174.03 164.68 173.004 164.68 171.738V164.91C164.68 163.644 163.653 162.617 162.385 162.617Z" fill="#FFB92C"/>
<path d="M185.839 162.617H179.003C177.735 162.617 176.707 163.644 176.707 164.91V171.738C176.707 173.004 177.735 174.03 179.003 174.03H185.839C187.107 174.03 188.135 173.004 188.135 171.738V164.91C188.135 163.644 187.107 162.617 185.839 162.617Z" fill="#FFB92C"/>
<path d="M209.284 162.617H202.447C201.179 162.617 200.152 163.644 200.152 164.91V171.738C200.152 173.004 201.179 174.03 202.447 174.03H209.284C210.552 174.03 211.579 173.004 211.579 171.738V164.91C211.579 163.644 210.552 162.617 209.284 162.617Z" fill="#FFB92C"/>
<path d="M138.93 182.084H132.093C130.826 182.084 129.798 183.11 129.798 184.376V191.204C129.798 192.47 130.826 193.496 132.093 193.496H138.93C140.198 193.496 141.226 192.47 141.226 191.204V184.376C141.226 183.11 140.198 182.084 138.93 182.084Z" fill="white"/>
<path d="M162.385 182.084H155.548C154.28 182.084 153.252 183.11 153.252 184.376V191.204C153.252 192.47 154.28 193.496 155.548 193.496H162.385C163.653 193.496 164.68 192.47 164.68 191.204V184.376C164.68 183.11 163.653 182.084 162.385 182.084Z" fill="white"/>
<path d="M185.839 182.084H179.003C177.735 182.084 176.707 183.11 176.707 184.376V191.204C176.707 192.47 177.735 193.496 179.003 193.496H185.839C187.107 193.496 188.135 192.47 188.135 191.204V184.376C188.135 183.11 187.107 182.084 185.839 182.084Z" fill="white"/>
<path d="M209.284 182.084H202.447C201.179 182.084 200.152 183.11 200.152 184.376V191.204C200.152 192.47 201.179 193.496 202.447 193.496H209.284C210.552 193.496 211.579 192.47 211.579 191.204V184.376C211.579 183.11 210.552 182.084 209.284 182.084Z" fill="white"/>
<path d="M138.93 201.56H132.093C130.826 201.56 129.798 202.586 129.798 203.853V210.68C129.798 211.946 130.826 212.973 132.093 212.973H138.93C140.198 212.973 141.226 211.946 141.226 210.68V203.853C141.226 202.586 140.198 201.56 138.93 201.56Z" fill="white"/>
<path d="M162.385 201.56H155.548C154.28 201.56 153.252 202.586 153.252 203.853V210.68C153.252 211.946 154.28 212.973 155.548 212.973H162.385C163.653 212.973 164.68 211.946 164.68 210.68V203.853C164.68 202.586 163.653 201.56 162.385 201.56Z" fill="white"/>
<path d="M185.839 201.56H179.003C177.735 201.56 176.707 202.586 176.707 203.853V210.68C176.707 211.946 177.735 212.973 179.003 212.973H185.839C187.107 212.973 188.135 211.946 188.135 210.68V203.853C188.135 202.586 187.107 201.56 185.839 201.56Z" fill="white"/>
<path d="M209.284 201.56H202.447C201.179 201.56 200.152 202.586 200.152 203.853V210.68C200.152 211.946 201.179 212.973 202.447 212.973H209.284C210.552 212.973 211.579 211.946 211.579 210.68V203.853C211.579 202.586 210.552 201.56 209.284 201.56Z" fill="white"/>
<path d="M195.677 289.402H185.107L188.627 310.101C189.327 314.58 191.627 317 195.317 317C199.006 317 201.306 314.59 202.006 310.101L205.526 289.402H195.667H195.677Z" fill="#FF9739"/>
<path d="M233.874 289.352H223.304L226.824 310.051C227.524 314.53 229.824 316.95 233.514 316.95C237.203 316.95 239.503 314.54 240.203 310.051L243.723 289.352H233.864H233.874Z" fill="#FF9739"/>
<path d="M202.426 236.046C202.616 232.956 203.856 230.476 207.516 229.806C210.106 229.336 212.735 228.957 215.395 228.637C230.104 226.887 245.883 227.437 262.082 229.636C274.051 231.266 273.421 213.908 272.631 206.658C271.521 196.349 257.122 190.989 248.193 187.8C236.704 183.7 224.365 182 212.135 182C191.777 182 173.738 186.62 159.04 197.159C155.26 199.869 153 203.508 153 208.298V237.186V236.696V270.673C153 275.463 155.26 279.953 159.04 282.663C173.728 293.202 192.427 299.521 212.785 299.521C234.154 299.521 253.692 292.562 268.691 281.063C271.101 279.223 272.531 276.303 272.531 273.193V266.434C272.531 259.434 273.721 242.666 262.072 244.245C245.873 246.445 230.094 246.995 215.385 245.245C212.725 244.925 210.086 244.545 207.506 244.075C204.346 243.495 202.686 241.686 202.446 238.496C202.386 237.656 202.366 236.826 202.416 236.036L202.426 236.046Z" fill="#FFB92C"/>
<path d="M211.766 292.022C189.487 290.102 165.599 281.183 153.01 268.314V270.684C153.01 275.473 155.27 279.963 159.05 282.673C173.738 293.212 192.437 299.531 212.795 299.531C234.164 299.531 253.702 292.572 268.701 281.073C269.371 280.563 269.951 279.963 270.461 279.303C253.202 288.362 233.464 293.902 211.766 292.032V292.022Z" fill="#FF9739"/>
<path d="M235.174 224.277C236.064 224.277 236.694 225.407 236.324 226.407C235.044 229.917 232.334 232.337 229.194 232.337C226.054 232.337 223.345 229.917 222.065 226.407C221.705 225.407 222.325 224.277 223.215 224.277H235.164H235.174Z" fill="#FF9739"/>
<path d="M209.246 225.767C215.845 225.767 221.195 220.498 221.195 213.998C221.195 207.498 215.845 202.229 209.246 202.229C202.646 202.229 197.297 207.498 197.297 213.998C197.297 220.498 202.646 225.767 209.246 225.767Z" fill="white"/>
<path d="M210.905 223.427C215.285 223.427 218.835 219.935 218.835 215.628C218.835 211.32 215.285 207.828 210.905 207.828C206.526 207.828 202.976 211.32 202.976 215.628C202.976 219.935 206.526 223.427 210.905 223.427Z" fill="#262626"/>
<path d="M217.295 212.418C218.168 212.418 218.875 211.72 218.875 210.858C218.875 209.997 218.168 209.298 217.295 209.298C216.423 209.298 215.715 209.997 215.715 210.858C215.715 211.72 216.423 212.418 217.295 212.418Z" fill="white"/>
<path d="M249.142 225.767C255.742 225.767 261.092 220.498 261.092 213.998C261.092 207.498 255.742 202.229 249.142 202.229C242.543 202.229 237.193 207.498 237.193 213.998C237.193 220.498 242.543 225.767 249.142 225.767Z" fill="white"/>
<path d="M255.402 215.628C255.402 219.937 251.852 223.427 247.473 223.427C243.093 223.427 239.543 219.937 239.543 215.628C239.543 211.318 243.093 207.828 247.473 207.828C251.852 207.828 255.402 211.318 255.402 215.628Z" fill="#262626"/>
<path d="M241.093 212.418C241.966 212.418 242.673 211.72 242.673 210.858C242.673 209.997 241.966 209.298 241.093 209.298C240.221 209.298 239.513 209.997 239.513 210.858C239.513 211.72 240.221 212.418 241.093 212.418Z" fill="white"/>
<path d="M209.246 225.767C215.845 225.767 221.195 220.498 221.195 213.998C221.195 207.498 215.845 202.229 209.246 202.229C202.646 202.229 197.297 207.498 197.297 213.998C197.297 220.498 202.646 225.767 209.246 225.767Z" fill="white"/>
<path d="M210.905 223.427C215.285 223.427 218.835 219.935 218.835 215.628C218.835 211.32 215.285 207.828 210.905 207.828C206.526 207.828 202.976 211.32 202.976 215.628C202.976 219.935 206.526 223.427 210.905 223.427Z" fill="#262626"/>
<path d="M217.295 212.418C218.168 212.418 218.875 211.72 218.875 210.858C218.875 209.997 218.168 209.298 217.295 209.298C216.423 209.298 215.715 209.997 215.715 210.858C215.715 211.72 216.423 212.418 217.295 212.418Z" fill="white"/>
</svg>
