<svg width="315" height="370" viewBox="0 0 315 370" fill="none" xmlns="http://www.w3.org/2000/svg">
<rect x="17" y="194.039" width="106" height="140" transform="rotate(-40.6407 17 194.039)" fill="#ECFFFD"/>
<rect x="33" y="155.312" width="106" height="140" transform="rotate(-30.8227 33 155.312)" fill="#FFFADE"/>
<path d="M58.1296 165.732L120.895 128.282" stroke="white" stroke-width="4" stroke-miterlimit="10" stroke-linecap="round" stroke-linejoin="round"/>
<path d="M66.3579 179.522L129.123 142.073" stroke="white" stroke-width="4" stroke-miterlimit="10" stroke-linecap="round" stroke-linejoin="round"/>
<path d="M74.5862 193.313L137.352 155.864" stroke="white" stroke-width="4" stroke-miterlimit="10" stroke-linecap="round" stroke-linejoin="round"/>
<path d="M82.8145 207.104L145.58 169.654" stroke="white" stroke-width="4" stroke-miterlimit="10" stroke-linecap="round" stroke-linejoin="round"/>
<path d="M91.043 220.894L153.808 183.445" stroke="white" stroke-width="4" stroke-miterlimit="10" stroke-linecap="round" stroke-linejoin="round"/>
<path d="M99.271 234.685L162.036 197.236" stroke="white" stroke-width="4" stroke-miterlimit="10" stroke-linecap="round" stroke-linejoin="round"/>
<path d="M107.499 248.475L170.265 211.026" stroke="white" stroke-width="4" stroke-miterlimit="10" stroke-linecap="round" stroke-linejoin="round"/>
<path d="M201.312 71.8013H102.688C92.9193 71.8013 85 79.7852 85 89.6338V165.346C85 175.195 92.9193 183.179 102.688 183.179H201.312C211.081 183.179 219 175.195 219 165.346V89.6338C219 79.7852 211.081 71.8013 201.312 71.8013Z" fill="#F4F4F4"/>
<path d="M219 100.42V89.6338C219 79.7824 211.083 71.8013 201.312 71.8013H102.688C92.9166 71.8013 85 79.7824 85 89.6338V100.42H219Z" fill="#E0E0E0"/>
<path d="M119.298 63.1787H115.318C114.383 63.1787 113.625 63.943 113.625 64.8859V79.0975C113.625 80.0404 114.383 80.8047 115.318 80.8047H119.298C120.233 80.8047 120.991 80.0404 120.991 79.0975V64.8859C120.991 63.943 120.233 63.1787 119.298 63.1787Z" fill="#C6C6C6"/>
<path d="M188.682 63.1787H184.702C183.767 63.1787 183.009 63.943 183.009 64.8859V79.0975C183.009 80.0404 183.767 80.8047 184.702 80.8047H188.682C189.617 80.8047 190.375 80.0404 190.375 79.0975V64.8859C190.375 63.943 189.617 63.1787 188.682 63.1787Z" fill="#C6C6C6"/>
<path d="M118.424 114.034H111.036C109.666 114.034 108.556 115.154 108.556 116.535V123.983C108.556 125.364 109.666 126.484 111.036 126.484H118.424C119.795 126.484 120.905 125.364 120.905 123.983V116.535C120.905 115.154 119.795 114.034 118.424 114.034Z" fill="white"/>
<path d="M143.77 114.034H136.382C135.012 114.034 133.902 115.154 133.902 116.535V123.983C133.902 125.364 135.012 126.484 136.382 126.484H143.77C145.14 126.484 146.251 125.364 146.251 123.983V116.535C146.251 115.154 145.14 114.034 143.77 114.034Z" fill="#FF9739"/>
<path d="M169.117 114.034H161.728C160.358 114.034 159.248 115.154 159.248 116.535V123.983C159.248 125.364 160.358 126.484 161.728 126.484H169.117C170.487 126.484 171.597 125.364 171.597 123.983V116.535C171.597 115.154 170.487 114.034 169.117 114.034Z" fill="#FF9739"/>
<path d="M194.452 114.034H187.064C185.694 114.034 184.583 115.154 184.583 116.535V123.983C184.583 125.364 185.694 126.484 187.064 126.484H194.452C195.822 126.484 196.932 125.364 196.932 123.983V116.535C196.932 115.154 195.822 114.034 194.452 114.034Z" fill="#FF9739"/>
<path d="M118.424 135.27H111.036C109.666 135.27 108.556 136.39 108.556 137.771V145.219C108.556 146.6 109.666 147.72 111.036 147.72H118.424C119.795 147.72 120.905 146.6 120.905 145.219V137.771C120.905 136.39 119.795 135.27 118.424 135.27Z" fill="white"/>
<path d="M143.77 135.27H136.382C135.012 135.27 133.902 136.39 133.902 137.771V145.219C133.902 146.6 135.012 147.72 136.382 147.72H143.77C145.14 147.72 146.251 146.6 146.251 145.219V137.771C146.251 136.39 145.14 135.27 143.77 135.27Z" fill="white"/>
<path d="M169.117 135.27H161.728C160.358 135.27 159.248 136.39 159.248 137.771V145.219C159.248 146.6 160.358 147.72 161.728 147.72H169.117C170.487 147.72 171.597 146.6 171.597 145.219V137.771C171.597 136.39 170.487 135.27 169.117 135.27Z" fill="white"/>
<path d="M194.452 135.27H187.064C185.694 135.27 184.583 136.39 184.583 137.771V145.219C184.583 146.6 185.694 147.72 187.064 147.72H194.452C195.822 147.72 196.932 146.6 196.932 145.219V137.771C196.932 136.39 195.822 135.27 194.452 135.27Z" fill="white"/>
<path d="M118.424 156.517H111.036C109.666 156.517 108.556 157.637 108.556 159.018V166.466C108.556 167.847 109.666 168.967 111.036 168.967H118.424C119.795 168.967 120.905 167.847 120.905 166.466V159.018C120.905 157.637 119.795 156.517 118.424 156.517Z" fill="white"/>
<path d="M143.77 156.517H136.382C135.012 156.517 133.902 157.637 133.902 159.018V166.466C133.902 167.847 135.012 168.967 136.382 168.967H143.77C145.14 168.967 146.251 167.847 146.251 166.466V159.018C146.251 157.637 145.14 156.517 143.77 156.517Z" fill="white"/>
<path d="M169.117 156.517H161.728C160.358 156.517 159.248 157.637 159.248 159.018V166.466C159.248 167.847 160.358 168.967 161.728 168.967H169.117C170.487 168.967 171.597 167.847 171.597 166.466V159.018C171.597 157.637 170.487 156.517 169.117 156.517Z" fill="white"/>
<path d="M194.452 156.517H187.064C185.694 156.517 184.583 157.637 184.583 159.018V166.466C184.583 167.847 185.694 168.967 187.064 168.967H194.452C195.822 168.967 196.932 167.847 196.932 166.466V159.018C196.932 157.637 195.822 156.517 194.452 156.517Z" fill="white"/>
<path d="M252.857 90.6415C254.315 89.1828 256.637 89.1399 258.043 90.5458L265.68 98.1824C267.086 99.5883 267.043 101.91 265.584 103.369L228.782 140.171L216.055 127.443L252.857 90.6415Z" fill="#FFB92C"/>
<path d="M216.054 127.443L228.782 140.171L216.119 144.672C213.222 145.701 210.524 143.003 211.553 140.106L216.054 127.443Z" fill="#FF9739"/>
<path fill-rule="evenodd" clip-rule="evenodd" d="M258.365 110.589L245.637 97.8608L249.159 94.3391L261.886 107.067L258.365 110.589Z" fill="white"/>
<path fill-rule="evenodd" clip-rule="evenodd" d="M228.782 140.171L216.054 127.443L219.576 123.921L232.304 136.649L228.782 140.171Z" fill="white"/>
<path d="M187.677 278.402H177.107L180.627 299.101C181.327 303.58 183.627 306 187.317 306C191.006 306 193.306 303.59 194.006 299.101L197.526 278.402H187.667H187.677Z" fill="#FF9739"/>
<path d="M225.874 278.352H215.304L218.824 299.051C219.524 303.53 221.824 305.95 225.514 305.95C229.203 305.95 231.503 303.54 232.203 299.051L235.723 278.352H225.864H225.874Z" fill="#FF9739"/>
<path d="M194.426 225.046C194.616 221.956 195.856 219.476 199.516 218.806C202.106 218.336 204.735 217.957 207.395 217.637C222.104 215.887 237.883 216.437 254.082 218.636C266.051 220.266 265.421 202.908 264.631 195.658C263.521 185.349 249.122 179.989 240.193 176.8C228.704 172.7 216.365 171 204.135 171C183.777 171 165.738 175.62 151.04 186.159C147.26 188.869 145 192.508 145 197.298V226.186V225.696V259.673C145 264.463 147.26 268.953 151.04 271.663C165.728 282.202 184.427 288.521 204.785 288.521C226.154 288.521 245.692 281.562 260.691 270.063C263.101 268.223 264.531 265.303 264.531 262.193V255.434C264.531 248.434 265.721 231.666 254.072 233.245C237.873 235.445 222.094 235.995 207.385 234.245C204.725 233.925 202.086 233.545 199.506 233.075C196.346 232.495 194.686 230.686 194.446 227.496C194.386 226.656 194.366 225.826 194.416 225.036L194.426 225.046Z" fill="#FFB92C"/>
<path d="M203.766 281.022C181.487 279.102 157.599 270.183 145.01 257.314V259.684C145.01 264.473 147.27 268.963 151.05 271.673C165.738 282.212 184.437 288.531 204.795 288.531C226.164 288.531 245.702 281.572 260.701 270.073C261.371 269.563 261.951 268.963 262.461 268.303C245.202 277.362 225.464 282.902 203.766 281.032V281.022Z" fill="#FF9739"/>
<path d="M227.174 213.277C228.064 213.277 228.694 214.407 228.324 215.407C227.044 218.917 224.334 221.337 221.194 221.337C218.054 221.337 215.345 218.917 214.065 215.407C213.705 214.407 214.325 213.277 215.215 213.277H227.164H227.174Z" fill="#FF9739"/>
<path d="M201.246 214.767C207.845 214.767 213.195 209.498 213.195 202.998C213.195 196.498 207.845 191.229 201.246 191.229C194.646 191.229 189.297 196.498 189.297 202.998C189.297 209.498 194.646 214.767 201.246 214.767Z" fill="white"/>
<path d="M202.905 212.427C207.285 212.427 210.835 208.935 210.835 204.628C210.835 200.32 207.285 196.828 202.905 196.828C198.526 196.828 194.976 200.32 194.976 204.628C194.976 208.935 198.526 212.427 202.905 212.427Z" fill="#262626"/>
<path d="M209.295 201.418C210.168 201.418 210.875 200.72 210.875 199.858C210.875 198.997 210.168 198.298 209.295 198.298C208.423 198.298 207.715 198.997 207.715 199.858C207.715 200.72 208.423 201.418 209.295 201.418Z" fill="white"/>
<path d="M241.142 214.767C247.742 214.767 253.092 209.498 253.092 202.998C253.092 196.498 247.742 191.229 241.142 191.229C234.543 191.229 229.193 196.498 229.193 202.998C229.193 209.498 234.543 214.767 241.142 214.767Z" fill="white"/>
<path d="M247.402 204.628C247.402 208.937 243.852 212.427 239.473 212.427C235.093 212.427 231.543 208.937 231.543 204.628C231.543 200.318 235.093 196.828 239.473 196.828C243.852 196.828 247.402 200.318 247.402 204.628Z" fill="#262626"/>
<path d="M233.093 201.418C233.966 201.418 234.673 200.72 234.673 199.858C234.673 198.997 233.966 198.298 233.093 198.298C232.221 198.298 231.513 198.997 231.513 199.858C231.513 200.72 232.221 201.418 233.093 201.418Z" fill="white"/>
<path d="M201.246 214.767C207.845 214.767 213.195 209.498 213.195 202.998C213.195 196.498 207.845 191.229 201.246 191.229C194.646 191.229 189.297 196.498 189.297 202.998C189.297 209.498 194.646 214.767 201.246 214.767Z" fill="white"/>
<path d="M202.905 212.427C207.285 212.427 210.835 208.935 210.835 204.628C210.835 200.32 207.285 196.828 202.905 196.828C198.526 196.828 194.976 200.32 194.976 204.628C194.976 208.935 198.526 212.427 202.905 212.427Z" fill="#262626"/>
<path d="M209.295 201.418C210.168 201.418 210.875 200.72 210.875 199.858C210.875 198.997 210.168 198.298 209.295 198.298C208.423 198.298 207.715 198.997 207.715 199.858C207.715 200.72 208.423 201.418 209.295 201.418Z" fill="white"/>
</svg>
