<svg width="315" height="370" viewBox="0 0 315 370" fill="none" xmlns="http://www.w3.org/2000/svg">
<rect width="315" height="370" rx="20" fill="white"/>
<path d="M206.437 75.5479H108.553C98.8571 75.5479 91 83.4668 91 93.2328V168.315C91 178.081 98.8571 186 108.553 186H206.437C216.133 186 223.99 178.081 223.99 168.315V93.2328C223.99 83.4668 216.133 75.5479 206.437 75.5479Z" fill="#F4F4F4"/>
<path d="M223.693 104.421V93.722C223.693 83.956 215.836 76.0371 206.14 76.0371H108.256C98.5602 76.0371 90.7031 83.956 90.7031 93.722V104.421H223.703H223.693Z" fill="#E0E0E0"/>
<path d="M124.749 67H120.796C119.871 67 119.114 67.7565 119.114 68.6899V82.7789C119.114 83.7123 119.871 84.4688 120.796 84.4688H124.749C125.673 84.4688 126.43 83.7123 126.43 82.7789V68.6899C126.43 67.7565 125.673 67 124.749 67Z" fill="#C6C6C6"/>
<path d="M193.899 67H189.946C189.022 67 188.265 67.7565 188.265 68.6899V82.7789C188.265 83.7123 189.022 84.4688 189.946 84.4688H193.899C194.824 84.4688 195.581 83.7123 195.581 82.7789V68.6899C195.581 67.7565 194.824 67 193.899 67Z" fill="#C6C6C6"/>
<path d="M124.168 117.432H116.832C115.475 117.432 114.374 118.542 114.374 119.908V127.296C114.374 128.662 115.475 129.772 116.832 129.772H124.168C125.525 129.772 126.626 128.662 126.626 127.296V119.908C126.626 118.542 125.525 117.432 124.168 117.432Z" fill="white"/>
<path d="M149.323 117.432H141.987C140.63 117.432 139.529 118.542 139.529 119.908V127.296C139.529 128.662 140.63 129.772 141.987 129.772H149.323C150.68 129.772 151.782 128.662 151.782 127.296V119.908C151.782 118.542 150.68 117.432 149.323 117.432Z" fill="#08D8CD"/>
<path d="M174.487 117.432H167.151C165.794 117.432 164.693 118.542 164.693 119.908V127.296C164.693 128.662 165.794 129.772 167.151 129.772H174.487C175.844 129.772 176.946 128.662 176.946 127.296V119.908C176.946 118.542 175.844 117.432 174.487 117.432Z" fill="#08D8CD"/>
<path d="M199.632 117.432H192.296C190.939 117.432 189.837 118.542 189.837 119.908V127.296C189.837 128.662 190.939 129.772 192.296 129.772H199.632C200.989 129.772 202.09 128.662 202.09 127.296V119.908C202.09 118.542 200.989 117.432 199.632 117.432Z" fill="#08D8CD"/>
<path d="M124.168 138.486H116.832C115.475 138.486 114.374 139.597 114.374 140.962V148.351C114.374 149.716 115.475 150.826 116.832 150.826H124.168C125.525 150.826 126.626 149.716 126.626 148.351V140.962C126.626 139.597 125.525 138.486 124.168 138.486Z" fill="white"/>
<path d="M149.323 138.486H141.987C140.63 138.486 139.529 139.597 139.529 140.962V148.351C139.529 149.716 140.63 150.826 141.987 150.826H149.323C150.68 150.826 151.782 149.716 151.782 148.351V140.962C151.782 139.597 150.68 138.486 149.323 138.486Z" fill="white"/>
<path d="M174.487 138.486H167.151C165.794 138.486 164.693 139.597 164.693 140.962V148.351C164.693 149.716 165.794 150.826 167.151 150.826H174.487C175.844 150.826 176.946 149.716 176.946 148.351V140.962C176.946 139.597 175.844 138.486 174.487 138.486Z" fill="white"/>
<path d="M199.632 138.486H192.296C190.939 138.486 189.837 139.597 189.837 140.962V148.351C189.837 149.716 190.939 150.826 192.296 150.826H199.632C200.989 150.826 202.09 149.716 202.09 148.351V140.962C202.09 139.597 200.989 138.486 199.632 138.486Z" fill="white"/>
<path d="M124.168 159.561H116.832C115.475 159.561 114.374 160.671 114.374 162.036V169.425C114.374 170.79 115.475 171.901 116.832 171.901H124.168C125.525 171.901 126.626 170.79 126.626 169.425V162.036C126.626 160.671 125.525 159.561 124.168 159.561Z" fill="white"/>
<path d="M149.323 159.561H141.987C140.63 159.561 139.529 160.671 139.529 162.036V169.425C139.529 170.79 140.63 171.901 141.987 171.901H149.323C150.68 171.901 151.782 170.79 151.782 169.425V162.036C151.782 160.671 150.68 159.561 149.323 159.561Z" fill="white"/>
<path d="M174.487 159.561H167.151C165.794 159.561 164.693 160.671 164.693 162.036V169.425C164.693 170.79 165.794 171.901 167.151 171.901H174.487C175.844 171.901 176.946 170.79 176.946 169.425V162.036C176.946 160.671 175.844 159.561 174.487 159.561Z" fill="white"/>
<path d="M199.632 159.561H192.296C190.939 159.561 189.837 160.671 189.837 162.036V169.425C189.837 170.79 190.939 171.901 192.296 171.901H199.632C200.989 171.901 202.09 170.79 202.09 169.425V162.036C202.09 160.671 200.989 159.561 199.632 159.561Z" fill="white"/>
<path d="M109.993 317.018C110.761 317.018 111.38 316.377 111.38 315.596C111.38 314.815 110.761 314.175 109.993 314.175C109.224 314.175 108.605 314.805 108.605 315.596C108.605 316.387 109.224 317.018 109.993 317.018Z" fill="white"/>
<path d="M146.145 317.018C146.914 317.018 147.533 316.377 147.533 315.596C147.533 314.815 146.914 314.175 146.145 314.175C145.377 314.175 144.758 314.805 144.758 315.596C144.758 316.387 145.377 317.018 146.145 317.018Z" fill="white"/>
<path d="M202.807 279.661H192.326L195.82 300.213C196.518 304.659 198.794 307.067 202.457 307.067C206.121 307.067 208.396 304.679 209.095 300.213L212.588 279.661H202.807Z" fill="#FF9739"/>
<path d="M240.685 279.621H230.204L233.698 300.173C234.396 304.619 236.672 307.027 240.335 307.027C243.998 307.027 246.274 304.639 246.973 300.173L250.466 279.621H240.685Z" fill="#FF9739"/>
<path d="M209.012 228.346C209.201 225.296 210.429 222.852 214.061 222.187C216.626 221.72 219.241 221.352 221.876 221.034C236.467 219.306 252.115 219.852 268.173 222.018C280.039 223.627 279.42 206.491 278.632 199.338C277.534 189.166 263.253 183.871 254.401 180.722C243.003 176.679 230.768 175 218.642 175C198.453 175 180.569 179.56 165.988 189.961C162.236 192.633 160 196.229 160 200.958V229.478V228.992V262.529C160 267.258 162.245 271.688 165.988 274.36C180.559 284.761 199.102 291 219.291 291C240.478 291 259.86 284.126 274.73 272.781C277.115 270.963 278.542 268.082 278.542 265.013V258.337C278.542 251.423 279.72 234.873 268.173 236.432C252.105 238.608 236.467 239.144 221.876 237.416C219.241 237.098 216.616 236.72 214.061 236.263C210.928 235.687 209.281 233.909 209.042 230.76C208.982 229.935 208.962 229.111 209.012 228.336V228.346Z" fill="#FFB92C"/>
<path d="M218.257 283.248C196.159 281.34 172.474 272.488 159.987 259.709V262.057C159.987 266.813 162.233 271.269 165.976 273.957C180.548 284.417 199.093 290.692 219.285 290.692C240.475 290.692 259.858 283.778 274.73 272.368C275.398 271.858 275.967 271.269 276.476 270.609C259.359 279.602 239.786 285.107 218.257 283.248Z" fill="#FF9739"/>
<path d="M246.231 214.942C247.094 214.942 247.696 216.033 247.345 216.994C246.111 220.376 243.492 222.708 240.452 222.708C237.411 222.708 234.802 220.376 233.558 216.994C233.207 216.033 233.809 214.942 234.672 214.942H246.231Z" fill="#FF9739"/>
<path d="M221.166 216.374C227.548 216.374 232.715 211.29 232.715 205.026C232.715 198.761 227.548 193.678 221.166 193.678C214.784 193.678 209.616 198.761 209.616 205.026C209.616 211.29 214.784 216.374 221.166 216.374Z" fill="white"/>
<path d="M222.771 214.122C227.006 214.122 230.437 210.76 230.437 206.607C230.437 202.454 227.006 199.092 222.771 199.092C218.537 199.092 215.105 202.454 215.105 206.607C215.105 210.76 218.537 214.122 222.771 214.122Z" fill="#262626"/>
<path d="M228.942 203.505C229.785 203.505 230.467 202.835 230.467 202.004C230.467 201.173 229.785 200.503 228.942 200.503C228.099 200.503 227.417 201.173 227.417 202.004C227.417 202.835 228.099 203.505 228.942 203.505Z" fill="white"/>
<path d="M221.166 216.374C227.548 216.374 232.715 211.29 232.715 205.026C232.715 198.761 227.548 193.678 221.166 193.678C214.784 193.678 209.616 198.761 209.616 205.026C209.616 211.29 214.784 216.374 221.166 216.374Z" fill="white"/>
<path d="M222.771 214.122C227.006 214.122 230.437 210.76 230.437 206.607C230.437 202.454 227.006 199.092 222.771 199.092C218.537 199.092 215.105 202.454 215.105 206.607C215.105 210.76 218.537 214.122 222.771 214.122Z" fill="#262626"/>
<path d="M228.472 203.742C229.315 203.742 229.997 203.072 229.997 202.241C229.997 201.411 229.315 200.74 228.472 200.74C227.629 200.74 226.947 201.411 226.947 202.241C226.947 203.072 227.629 203.742 228.472 203.742Z" fill="white"/>
<path d="M259.728 216.374C266.11 216.374 271.277 211.29 271.277 205.026C271.277 198.761 266.11 193.678 259.728 193.678C253.346 193.678 248.178 198.761 248.178 205.026C248.178 211.29 253.346 216.374 259.728 216.374Z" fill="white"/>
<path d="M265.778 206.607C265.778 210.76 262.346 214.122 258.112 214.122C253.878 214.122 250.446 210.76 250.446 206.607C250.446 202.454 253.878 199.092 258.112 199.092C262.346 199.092 265.778 202.454 265.778 206.607Z" fill="#262626"/>
<path d="M252.498 203.742C253.341 203.742 254.024 203.072 254.024 202.241C254.024 201.411 253.341 200.74 252.498 200.74C251.655 200.74 250.973 201.411 250.973 202.241C250.973 203.072 251.655 203.742 252.498 203.742Z" fill="white"/>
<path fill-rule="evenodd" clip-rule="evenodd" d="M94.7983 226.068C95.6168 226.068 96.2856 226.738 96.2856 227.557C96.2856 229.685 98.5114 231.883 101.925 231.883C105.339 231.883 107.565 229.675 107.565 227.557C107.565 226.738 108.233 226.068 109.052 226.068C109.87 226.068 110.539 226.738 110.539 227.557C110.539 231.863 106.387 234.861 101.935 234.861C97.4833 234.861 93.3311 231.863 93.3311 227.557C93.3311 226.738 93.9998 226.068 94.8183 226.068H94.7983Z" fill="#00B5AB"/>
<path d="M84.5384 278.123H73.0498L76.8827 301.463C77.6512 306.518 80.1366 309.246 84.1591 309.246C88.1817 309.246 90.667 306.528 91.4356 301.463L95.2685 278.123H84.5484H84.5384Z" fill="#00B5AB"/>
<path d="M128.964 278.123H117.476L121.308 301.463C122.077 306.518 124.562 309.246 128.585 309.246C132.607 309.246 135.093 306.528 135.861 301.463L139.694 278.123H128.974H128.964Z" fill="#00B5AB"/>
<path d="M168.888 255.723C168.888 244.822 158.079 235.36 153.048 226.628C147.239 216.527 146.111 205.326 145.822 193.287V191.778C145.822 180.438 137.378 171.246 126.958 171.246C124.053 171.246 121.178 171.985 118.613 173.364C114.391 175.642 111.158 179.549 109.481 184.065C107.355 189.77 108.103 196.264 108.103 202.239C108.103 204.347 107.944 206.256 106.646 208.004C105.778 209.163 104.56 209.962 103.213 210.342C102.714 210.482 102.185 210.482 101.675 210.342C100.318 209.962 99.1004 209.153 98.242 208.004C96.9345 206.266 96.7748 204.347 96.7848 202.239C96.7848 196.264 97.5333 189.77 95.4074 184.065C93.7206 179.549 90.4967 175.622 86.2747 173.364C83.7095 171.985 80.835 171.246 77.9305 171.246C67.5202 171.246 59.0663 180.438 59.0663 191.778V193.287C58.7768 205.316 57.649 216.527 51.84 226.628C46.8095 235.36 36 244.822 36 255.723C36 268.282 47.3285 276.994 57.4294 281.93C79.1981 292.57 104.839 293.799 128.185 288.514C143.067 285.137 165.025 277.184 168.509 259.659C168.768 258.36 168.898 257.041 168.898 255.723H168.888Z" fill="#08D8CD"/>
<path d="M131.459 280.511C107.245 287.555 80.2266 287.874 56.6813 278.063C50.493 275.485 43.8157 271.649 39.0547 266.393C43.0771 273.377 50.6028 278.543 57.5396 281.94C79.3084 292.58 104.95 293.809 128.295 288.524C143.177 285.147 165.136 277.184 168.619 259.659C168.809 258.71 168.859 257.741 168.908 256.771C161.622 269.57 144.155 276.814 131.469 280.501L131.459 280.511Z" fill="#00B5AB"/>
<path d="M83.2108 229.745C89.2196 229.745 94.0906 224.769 94.0906 218.635C94.0906 212.5 89.2196 207.524 83.2108 207.524C77.202 207.524 72.3311 212.5 72.3311 218.635C72.3311 224.769 77.202 229.745 83.2108 229.745Z" fill="white"/>
<path d="M83.2117 226.008C87.1943 226.008 90.4283 222.711 90.4283 218.645C90.4283 214.578 87.1943 211.281 83.2117 211.281C79.2291 211.281 75.9951 214.578 75.9951 218.645C75.9951 222.711 79.2291 226.008 83.2117 226.008Z" fill="#262626"/>
<path d="M86.4647 214.069C87.2632 214.069 87.902 213.41 87.902 212.601C87.902 211.791 87.2632 211.132 86.4647 211.132C85.6662 211.132 85.0273 211.791 85.0273 212.601C85.0273 213.41 85.6662 214.069 86.4647 214.069Z" fill="white"/>
<path d="M120.62 229.745C126.629 229.745 131.5 224.769 131.5 218.635C131.5 212.5 126.629 207.524 120.62 207.524C114.611 207.524 109.74 212.5 109.74 218.635C109.74 224.769 114.611 229.745 120.62 229.745Z" fill="white"/>
<path d="M120.62 226.008C124.602 226.008 127.836 222.711 127.836 218.645C127.836 214.578 124.602 211.281 120.62 211.281C116.637 211.281 113.403 214.578 113.403 218.645C113.403 222.711 116.637 226.008 120.62 226.008Z" fill="#262626"/>
<path d="M123.884 214.069C124.682 214.069 125.321 213.41 125.321 212.601C125.321 211.791 124.682 211.132 123.884 211.132C123.085 211.132 122.446 211.791 122.446 212.601C122.446 213.41 123.085 214.069 123.884 214.069Z" fill="white"/>
<path d="M107.355 228.746C108.333 228.746 109.032 230.025 108.623 231.164C107.215 235.141 104.231 237.888 100.767 237.888C97.3039 237.888 94.3294 235.151 92.922 231.164C92.5228 230.035 93.2115 228.746 94.1897 228.746H107.355Z" fill="#00B5AB"/>
<path fill-rule="evenodd" clip-rule="evenodd" d="M71.322 210.812C77.1309 208.933 90.4956 208.913 98.2409 217.786H105.577C113.332 208.913 126.687 208.933 132.496 210.812C133.115 211.011 133.554 211.551 133.664 212.19C135.49 222.751 130.44 229.106 127.595 231.014C115.259 240.416 106.795 230.035 104.11 223.67H99.7081C97.0132 230.035 88.5493 240.426 76.2227 231.014C73.3781 229.116 68.3276 222.751 70.1542 212.19C70.264 211.551 70.7031 211.011 71.322 210.812Z" fill="#262626"/>
<path fill-rule="evenodd" clip-rule="evenodd" d="M73.927 225.689L85.8348 212.301C85.8348 212.301 88.2304 212.72 89.4281 213.19L75.7935 228.497C75.7935 228.497 74.7255 227.607 73.917 225.689H73.927Z" fill="white"/>
<path d="M106.675 224.5L115.339 213.969C115.339 213.969 118.074 213.07 120.389 212.601L108.461 227.168C108.461 227.168 107.483 226.289 106.675 224.5Z" fill="white"/>
<path d="M282 103.429C281.583 102.619 280.333 101 277.417 101C274.5 101 272 103.857 272 107.476C272 112.738 280.217 117.628 282 118C283.783 117.628 292 112.738 292 107.476C292 103.857 289.5 101 286.583 101C283.667 101 282.417 102.619 282 103.429Z" fill="#FA6EE3"/>
<path d="M33 112.429C32.5833 111.619 31.3333 110 28.4167 110C25.5 110 23 112.857 23 116.476C23 121.738 31.2166 126.628 33 127C34.7834 126.628 43 121.738 43 116.476C43 112.857 40.5 110 37.5833 110C34.6667 110 33.4167 111.619 33 112.429Z" fill="#00EB8C"/>
<path d="M257 62.8571C256.667 62.2381 255.667 61 253.333 61C251 61 249 63.185 249 65.9524C249 69.9762 255.573 73.7154 257 74C258.427 73.7154 265 69.9762 265 65.9524C265 63.185 263 61 260.667 61C258.333 61 257.333 62.2381 257 62.8571Z" fill="#FFD029"/>
<path d="M256.154 123.429C255.897 122.952 255.128 122 253.333 122C251.538 122 250 123.681 250 125.81C250 128.905 255.056 131.781 256.154 132C257.251 131.781 262.308 128.905 262.308 125.81C262.308 123.681 260.769 122 258.974 122C257.179 122 256.41 122.952 256.154 123.429Z" fill="#00EB8C"/>
<path d="M59.1538 98.4286C58.8974 97.9524 58.1282 97 56.3333 97C54.5385 97 53 98.6807 53 100.81C53 103.905 58.0564 106.781 59.1538 107C60.2513 106.781 65.3077 103.905 65.3077 100.81C65.3077 98.6807 63.7692 97 61.9744 97C60.1795 97 59.4103 97.9524 59.1538 98.4286Z" fill="#FFE894"/>
<path d="M47 60.8571C46.6667 60.2381 45.6667 59 43.3333 59C41 59 39 61.185 39 63.9524C39 67.9762 45.5733 71.7154 47 72C48.4267 71.7154 55 67.9762 55 63.9524C55 61.185 53 59 50.6667 59C48.3333 59 47.3333 60.2381 47 60.8571Z" fill="#FA6EE3"/>
<path d="M53 185.163C43.0589 185.163 35 177.739 35 168.582C35 159.424 43.0589 152 53 152C62.9411 152 71 159.424 71 168.582C71 172.641 69.4168 176.359 66.7881 179.241C66.7416 179.292 66.7241 179.364 66.7424 179.43L68.6957 186.553C68.742 186.722 68.5639 186.865 68.409 186.783L61.6743 183.208C61.6172 183.178 61.5489 183.177 61.4909 183.206C58.9615 184.455 56.0706 185.163 53 185.163Z" fill="#ECFFFD"/>
<circle cx="45" cy="169" r="2" fill="#B1EDEA"/>
<circle cx="53" cy="169" r="2" fill="#B1EDEA"/>
<circle cx="61" cy="169" r="2" fill="#B1EDEA"/>
<path d="M265 186.163C274.941 186.163 283 178.739 283 169.582C283 160.424 274.941 153 265 153C255.059 153 247 160.424 247 169.582C247 173.641 248.583 177.359 251.212 180.241C251.258 180.292 251.276 180.364 251.258 180.43L249.304 187.553C249.258 187.722 249.436 187.865 249.591 187.783L256.326 184.208C256.383 184.178 256.451 184.177 256.509 184.206C259.038 185.455 261.929 186.163 265 186.163Z" fill="#FEFADD"/>
<circle cx="2" cy="2" r="2" transform="matrix(-1 0 0 1 275 168)" fill="#FFB92C"/>
<circle cx="2" cy="2" r="2" transform="matrix(-1 0 0 1 267 168)" fill="#FFB92C"/>
<circle cx="2" cy="2" r="2" transform="matrix(-1 0 0 1 259 168)" fill="#FFB92C"/>
</svg>
