<svg width="191" height="109" viewBox="0 0 191 109" fill="none" xmlns="http://www.w3.org/2000/svg">
<g clip-path="url(#clip0_530_475)">
<path d="M130.021 87.1665H121.842L124.569 103.543C125.115 107.089 126.89 109 129.751 109C132.613 109 134.388 107.089 134.934 103.543L137.661 87.1665H130.021Z" fill="#FD912D"/>
<path d="M159.601 87.1215H151.422L154.148 103.498C154.695 107.044 156.469 108.955 159.331 108.955C162.192 108.955 163.967 107.044 164.514 103.498L167.24 87.1215H159.601Z" fill="#FD912D"/>
<path d="M136.342 44.941C136.49 42.4957 137.448 40.5331 140.284 40.0054C142.29 39.6322 144.329 39.3298 146.386 39.0788C157.775 37.6953 169.999 38.1265 182.538 39.8703C191.81 41.1573 191.315 27.4253 190.711 21.6854C189.849 13.5324 178.699 9.28544 171.786 6.76298C162.893 3.51981 153.331 2.17493 143.866 2.17493C128.099 2.17493 114.126 5.82992 102.75 14.1695C99.8245 16.3187 98.0754 19.1951 98.0754 22.9852V45.8419V45.4558V72.3406C98.0754 76.1307 99.8245 79.6828 102.75 81.8256C114.126 90.1651 128.607 95.165 144.367 95.165C160.919 95.165 176.043 89.6568 187.656 80.5579C189.521 79.0972 190.634 76.7935 190.634 74.329V68.9816C190.634 63.4412 191.56 50.1725 182.538 51.4273C169.992 53.1712 157.775 53.6023 146.386 52.2188C144.322 51.9678 142.284 51.6654 140.278 51.2922C137.828 50.8353 136.542 49.4003 136.362 46.8779C136.31 46.2086 136.297 45.5587 136.336 44.9345L136.342 44.941Z" fill="#FDBA2D"/>
<path d="M143.583 89.2321C126.337 87.7135 107.83 80.6544 98.0818 70.4745V72.347C98.0818 76.1372 99.8308 79.6892 102.757 81.832C114.132 90.1716 128.613 95.1715 144.374 95.1715C160.925 95.1715 176.049 89.6632 187.663 80.5643C188.184 80.1589 188.634 79.6828 189.026 79.1615C175.657 86.33 160.379 90.7121 143.576 89.2321H143.583Z" fill="#FD912D"/>
<path d="M161.408 35.6426C162.102 35.6426 162.591 36.5435 162.308 37.3414C161.311 40.1405 159.189 42.0774 156.739 42.0774C154.289 42.0774 152.167 40.147 151.171 37.3414C150.888 36.5435 151.376 35.6426 152.071 35.6426H161.408Z" fill="#FD912D"/>
<path d="M161.935 35.2822C162.707 35.2822 163.253 36.2861 162.938 37.1741C161.826 40.2885 159.472 42.4442 156.746 42.4442C154.019 42.4442 151.659 40.295 150.553 37.1741C150.238 36.2861 150.785 35.2822 151.557 35.2822H161.942H161.935Z" fill="#FD912D"/>
<path d="M171.851 36.8073C176.961 36.8073 181.104 32.6385 181.104 27.496C181.104 22.3536 176.961 18.1848 171.851 18.1848C166.74 18.1848 162.597 22.3536 162.597 27.496C162.597 32.6385 166.74 36.8073 171.851 36.8073Z" fill="white"/>
<path d="M170.565 34.954C173.953 34.954 176.699 32.1911 176.699 28.783C176.699 25.3748 173.953 22.6119 170.565 22.6119C167.177 22.6119 164.43 25.3748 164.43 28.783C164.43 32.1911 167.177 34.954 170.565 34.954Z" fill="#262626"/>
<path d="M165.62 26.2412C166.294 26.2412 166.841 25.6909 166.841 25.0121C166.841 24.3333 166.294 23.7831 165.62 23.7831C164.945 23.7831 164.398 24.3333 164.398 25.0121C164.398 25.6909 164.945 26.2412 165.62 26.2412Z" fill="white"/>
<path d="M141.628 36.8073C146.738 36.8073 150.881 32.6385 150.881 27.496C150.881 22.3536 146.738 18.1848 141.628 18.1848C136.518 18.1848 132.375 22.3536 132.375 27.496C132.375 32.6385 136.518 36.8073 141.628 36.8073Z" fill="white"/>
<path d="M142.914 34.954C146.302 34.954 149.049 32.1911 149.049 28.783C149.049 25.3748 146.302 22.6119 142.914 22.6119C139.526 22.6119 136.78 25.3748 136.78 28.783C136.78 32.1911 139.526 34.954 142.914 34.954Z" fill="#262626"/>
<path d="M147.859 26.2412C148.534 26.2412 149.081 25.6909 149.081 25.0121C149.081 24.3333 148.534 23.7831 147.859 23.7831C147.184 23.7831 146.637 24.3333 146.637 25.0121C146.637 25.6909 147.184 26.2412 147.859 26.2412Z" fill="white"/>
<path d="M171.851 36.8073C176.961 36.8073 181.104 32.6385 181.104 27.496C181.104 22.3536 176.961 18.1848 171.851 18.1848C166.74 18.1848 162.597 22.3536 162.597 27.496C162.597 32.6385 166.74 36.8073 171.851 36.8073Z" fill="white"/>
<path d="M170.565 34.954C173.953 34.954 176.699 32.1911 176.699 28.783C176.699 25.3748 173.953 22.6119 170.565 22.6119C167.177 22.6119 164.43 25.3748 164.43 28.783C164.43 32.1911 167.177 34.954 170.565 34.954Z" fill="#262626"/>
<path d="M165.62 26.2412C166.294 26.2412 166.841 25.6909 166.841 25.0121C166.841 24.3333 166.294 23.7831 165.62 23.7831C164.945 23.7831 164.398 24.3333 164.398 25.0121C164.398 25.6909 164.945 26.2412 165.62 26.2412Z" fill="white"/>
<path d="M141.628 36.8073C146.738 36.8073 150.881 32.6385 150.881 27.496C150.881 22.3536 146.738 18.1848 141.628 18.1848C136.518 18.1848 132.375 22.3536 132.375 27.496C132.375 32.6385 136.518 36.8073 141.628 36.8073Z" fill="white"/>
<path d="M142.914 34.954C146.302 34.954 149.049 32.1911 149.049 28.783C149.049 25.3748 146.302 22.6119 142.914 22.6119C139.526 22.6119 136.78 25.3748 136.78 28.783C136.78 32.1911 139.526 34.954 142.914 34.954Z" fill="#262626"/>
<path d="M147.859 26.2412C148.534 26.2412 149.081 25.6909 149.081 25.0121C149.081 24.3333 148.534 23.7831 147.859 23.7831C147.184 23.7831 146.637 24.3333 146.637 25.0121C146.637 25.6909 147.184 26.2412 147.859 26.2412Z" fill="white"/>
<path d="M39.0321 84.5927H29.8882L32.9362 102.9C33.547 106.864 35.5276 109 38.7299 109C41.9322 109 43.9127 106.864 44.5236 102.9L47.5716 84.5927H39.0321Z" fill="#00B5AB"/>
<path d="M74.3988 84.5927H65.2549L68.3029 102.9C68.9137 106.864 70.8943 109 74.0966 109C77.2989 109 79.2794 106.864 79.8903 102.9L82.9383 84.5927H74.3988Z" fill="#00B5AB"/>
<path d="M105.798 66.2535C105.798 57.7016 97.1944 50.2822 93.1883 43.4355C88.5649 35.5207 87.6582 26.7307 87.4332 17.2907V16.1067C87.4332 7.21375 80.7135 0.00671387 72.4183 0.00671387C70.1034 0.00671387 67.8142 0.585851 65.7758 1.66691C62.4128 3.44936 59.8406 6.51879 58.5031 10.0644C56.8119 14.5366 57.41 19.633 57.41 24.3176C57.41 25.9714 57.2878 27.4707 56.2461 28.8349C55.423 29.9159 54.2205 30.5916 52.8959 30.8039C51.5777 30.5916 50.3688 29.9095 49.5457 28.8349C48.504 27.4707 48.3818 25.9649 48.3818 24.3176C48.3818 19.6266 48.9798 14.5366 47.2886 10.0644C45.9511 6.51879 43.379 3.44936 40.0159 1.66691C37.9711 0.585851 35.6819 0.00671387 33.367 0.00671387C25.0783 0.00671387 18.3522 7.21375 18.3522 16.1067V17.2907C18.1271 26.7242 17.2204 35.5207 12.597 43.4355C8.60378 50.2822 0 57.7016 0 66.2535C0 76.1053 9.02175 82.9327 17.0597 86.8065C34.3894 95.1525 54.7992 96.1177 73.3893 91.9672C85.2404 89.3225 102.712 83.0807 105.49 69.3423C105.695 68.3256 105.805 67.2896 105.805 66.2535H105.798Z" fill="#08D8CD"/>
<path d="M58.9532 44.6772C58.9532 47.367 56.2396 49.5549 52.9023 49.5549C49.5649 49.5549 46.8513 47.3735 46.8513 44.6772" stroke="#00B5AB" stroke-width="4" stroke-linecap="round" stroke-linejoin="round"/>
<path d="M36.9808 46.5048C42.0912 46.5048 46.234 42.336 46.234 37.1936C46.234 32.0511 42.0912 27.8823 36.9808 27.8823C31.8704 27.8823 27.7275 32.0511 27.7275 37.1936C27.7275 42.336 31.8704 46.5048 36.9808 46.5048Z" fill="white"/>
<path d="M36.9807 43.3646C40.3687 43.3646 43.1153 40.6018 43.1153 37.1936C43.1153 33.7854 40.3687 31.0226 36.9807 31.0226C33.5927 31.0226 30.8462 33.7854 30.8462 37.1936C30.8462 40.6018 33.5927 43.3646 36.9807 43.3646Z" fill="#262626"/>
<path d="M39.7523 33.3649C40.427 33.3649 40.974 32.8146 40.974 32.1358C40.974 31.457 40.427 30.9067 39.7523 30.9067C39.0775 30.9067 38.5305 31.457 38.5305 32.1358C38.5305 32.8146 39.0775 33.3649 39.7523 33.3649Z" fill="white"/>
<path d="M68.8172 46.5048C73.9276 46.5048 78.0704 42.336 78.0704 37.1936C78.0704 32.0511 73.9276 27.8823 68.8172 27.8823C63.7068 27.8823 59.564 32.0511 59.564 37.1936C59.564 42.336 63.7068 46.5048 68.8172 46.5048Z" fill="white"/>
<path d="M68.8171 43.3646C72.2052 43.3646 74.9517 40.6018 74.9517 37.1936C74.9517 33.7854 72.2052 31.0226 68.8171 31.0226C65.4291 31.0226 62.6826 33.7854 62.6826 37.1936C62.6826 40.6018 65.4291 43.3646 68.8171 43.3646Z" fill="#262626"/>
<path d="M71.5887 33.3649C72.2635 33.3649 72.8105 32.8146 72.8105 32.1358C72.8105 31.457 72.2635 30.9067 71.5887 30.9067C70.9139 30.9067 70.3669 31.457 70.3669 32.1358C70.3669 32.8146 70.9139 33.3649 71.5887 33.3649Z" fill="white"/>
<path d="M75.9936 85.6995C56.7155 91.2141 35.1996 91.4715 16.4681 83.7755C11.5424 81.7485 6.22456 78.7434 2.43066 74.6315C5.6394 80.1076 11.626 84.168 17.1433 86.8256C34.473 95.1716 54.8828 96.1368 73.4729 91.9928C85.324 89.348 102.795 83.1062 105.573 69.3614C105.721 68.6149 105.76 67.8556 105.805 67.0963C100.004 77.1283 86.0956 82.8102 76 85.6995H75.9936Z" fill="#00B5AB"/>
</g>
<defs>
<clipPath id="clip0_530_475">
<rect width="191" height="109" fill="white"/>
</clipPath>
</defs>
</svg>
