<svg width="24" height="24" viewBox="0 0 24 24" fill="none" xmlns="http://www.w3.org/2000/svg">
<path d="M20.5103 14.4897L19.0273 13.6973C19.3472 12.5538 19.3375 11.3922 19.0273 10.3117L20.5103 9.51926C20.9756 9.26713 21.1403 8.70885 20.8689 8.27664L19.9093 6.73687C19.6379 6.30465 19.037 6.15158 18.5717 6.4037L17.0887 7.1961C16.3327 6.50275 15.4119 5.95348 14.336 5.61131C14.2003 5.56628 14.0646 5.53927 13.9386 5.50325V3.90945C13.9386 3.4052 13.5024 3 12.9596 3H11.0404C10.4976 3 10.0614 3.4052 10.0614 3.90945V5.49425C8.87891 5.8004 7.79332 6.38569 6.91127 7.18709L5.42827 6.3947C4.96301 6.14257 4.36206 6.29565 4.09066 6.72786L3.13107 8.26763C2.85967 8.69985 3.02445 9.25813 3.4897 9.51026L4.9727 10.3027C4.65284 11.4462 4.66253 12.6078 4.9727 13.6883L3.4897 14.4807C3.02445 14.7329 2.85967 15.2911 3.13107 15.7234L4.09066 17.2631C4.36206 17.6953 4.96301 17.8484 5.42827 17.5963L6.91127 16.8039C7.66731 17.4972 8.58813 18.0465 9.66403 18.3887C9.79973 18.4337 9.93543 18.4607 10.0614 18.4967V20.0905C10.0614 20.5948 10.4976 21 11.0404 21H12.9596C13.5024 21 13.9386 20.5948 13.9386 20.0905V18.5058C15.1211 18.1996 16.2067 17.6143 17.0887 16.8129L18.5717 17.6053C19.037 17.8574 19.6379 17.7044 19.9093 17.2721L20.8689 15.7324C21.1403 15.3002 20.9756 14.7419 20.5103 14.4897Z" stroke="#08D8CD" stroke-width="2" stroke-linecap="round" stroke-linejoin="round"/>
<circle cx="12" cy="12" r="3" stroke="#08D8CD" stroke-width="2" stroke-linecap="round" stroke-linejoin="round"/>
</svg>
