<svg width="223" height="140" viewBox="0 0 223 140" fill="none" xmlns="http://www.w3.org/2000/svg">
<path d="M145.677 112.402H135.107L138.627 133.101C139.327 137.58 141.627 140 145.317 140C149.006 140 151.306 137.59 152.006 133.101L155.526 112.402H145.667H145.677Z" fill="#FF9739"/>
<path d="M183.874 112.352H173.304L176.824 133.051C177.524 137.53 179.824 139.95 183.514 139.95C187.203 139.95 189.503 137.54 190.203 133.051L193.723 112.352H183.864H183.874Z" fill="#FF9739"/>
<path d="M152.426 59.046C152.616 55.9562 153.856 53.4764 157.516 52.8065C160.106 52.3365 162.735 51.9565 165.395 51.6365C180.104 49.8867 195.883 50.4366 212.082 52.6365C224.051 54.2664 223.421 36.9076 222.631 29.6582C221.521 19.3489 207.122 13.9893 198.193 10.7996C186.704 6.69987 174.365 5 162.135 5C141.777 5 123.738 9.61966 109.04 20.1589C105.26 22.8687 103 26.5084 103 31.2981V60.1859V59.6959V93.6734C103 98.4631 105.26 102.953 109.04 105.663C123.728 116.202 142.427 122.521 162.785 122.521C184.154 122.521 203.692 115.562 218.691 104.063C221.101 102.223 222.531 99.303 222.531 96.1933V89.4338C222.531 82.4343 223.721 65.6655 212.072 67.2454C195.873 69.4452 180.094 69.9952 165.385 68.2453C162.725 67.9253 160.086 67.5454 157.506 67.0754C154.346 66.4954 152.686 64.6856 152.446 61.4958C152.386 60.6559 152.366 59.8259 152.416 59.036L152.426 59.046Z" fill="#FFB92C"/>
<path d="M161.766 115.022C139.487 113.102 115.599 104.183 103.01 91.3137V93.6835C103.01 98.4732 105.27 102.963 109.05 105.673C123.738 116.212 142.437 122.531 162.795 122.531C184.164 122.531 203.702 115.572 218.701 104.073C219.371 103.563 219.951 102.963 220.461 102.303C203.202 111.362 183.464 116.902 161.766 115.032V115.022Z" fill="#FF9739"/>
<path d="M185.174 47.2769C186.064 47.2769 186.694 48.4069 186.324 49.4069C185.044 52.9169 182.334 55.3369 179.194 55.3369C176.054 55.3369 173.345 52.9169 172.065 49.4069C171.705 48.4069 172.325 47.2769 173.215 47.2769H185.164H185.174Z" fill="#FF9739"/>
<path d="M159.246 48.7668C165.845 48.7668 171.195 43.4976 171.195 36.9976C171.195 30.4977 165.845 25.2285 159.246 25.2285C152.646 25.2285 147.297 30.4977 147.297 36.9976C147.297 43.4976 152.646 48.7668 159.246 48.7668Z" fill="white"/>
<path d="M160.905 46.427C165.285 46.427 168.835 42.935 168.835 38.6275C168.835 34.32 165.285 30.8281 160.905 30.8281C156.526 30.8281 152.976 34.32 152.976 38.6275C152.976 42.935 156.526 46.427 160.905 46.427Z" fill="#262626"/>
<path d="M167.295 35.4181C168.168 35.4181 168.875 34.7197 168.875 33.8581C168.875 32.9965 168.168 32.2981 167.295 32.2981C166.423 32.2981 165.715 32.9965 165.715 33.8581C165.715 34.7197 166.423 35.4181 167.295 35.4181Z" fill="white"/>
<path d="M199.142 48.7668C205.742 48.7668 211.092 43.4976 211.092 36.9976C211.092 30.4977 205.742 25.2285 199.142 25.2285C192.543 25.2285 187.193 30.4977 187.193 36.9976C187.193 43.4976 192.543 48.7668 199.142 48.7668Z" fill="white"/>
<path d="M201.492 32C200.083 32 198.815 32.7484 197.99 33.9159C197.165 32.7484 195.907 32 194.488 32C192.013 32 190 34.3051 190 37.149C190 42.268 196.631 45.7106 198 46C199.369 45.7106 206 42.268 206 37.149C206 34.3051 203.987 32 201.502 32H201.492Z" fill="#262626"/>
<path d="M191.62 34.26C192.515 34.26 193.24 33.5302 193.24 32.63C193.24 31.7298 192.515 31 191.62 31C190.725 31 190 31.7298 190 32.63C190 33.5302 190.725 34.26 191.62 34.26Z" fill="white"/>
<path d="M159.246 48.7668C165.845 48.7668 171.195 43.4976 171.195 36.9976C171.195 30.4977 165.845 25.2285 159.246 25.2285C152.646 25.2285 147.297 30.4977 147.297 36.9976C147.297 43.4976 152.646 48.7668 159.246 48.7668Z" fill="white"/>
<path d="M163.492 32C162.083 32 160.815 32.7484 159.99 33.9159C159.165 32.7484 157.907 32 156.488 32C154.013 32 152 34.3051 152 37.149C152 42.268 158.631 45.7106 160 46C161.369 45.7106 168 42.268 168 37.149C168 34.3051 165.987 32 163.502 32H163.492Z" fill="#262626"/>
<path d="M166.62 34.26C167.515 34.26 168.24 33.5302 168.24 32.63C168.24 31.7298 167.515 31 166.62 31C165.725 31 165 31.7298 165 32.63C165 33.5302 165.725 34.26 166.62 34.26Z" fill="white"/>
<path d="M49.4374 108.65H37.8547L41.7156 132.16C42.4898 137.25 45.0009 140 49.0504 140C53.0998 140 55.6109 137.26 56.3851 132.16L60.246 108.65H49.4374Z" fill="#00B5AB"/>
<path d="M94.2297 108.65H82.647L86.5079 132.16C87.282 137.25 89.7931 140 93.8426 140C97.8921 140 100.403 137.26 101.177 132.16L105.038 108.65H94.2297Z" fill="#00B5AB"/>
<path d="M133.99 85.09C133.99 74.11 123.092 64.58 118.02 55.78C112.165 45.61 111.023 34.32 110.735 22.2V20.68C110.735 9.26 102.22 0 91.7187 0C88.7908 0 85.8926 0.74 83.3021 2.13C79.0442 4.42 75.7888 8.36 74.0916 12.91C71.9477 18.66 72.702 25.2 72.702 31.22C72.702 33.34 72.5432 35.27 71.2331 37.03C70.1909 38.42 68.6625 39.29 66.995 39.56C65.3276 39.29 63.7892 38.41 62.757 37.03C61.4369 35.28 61.2781 33.35 61.2881 31.22C61.2881 25.2 62.0424 18.66 59.8985 12.91C58.2013 8.36 54.9459 4.41 50.688 2.13C48.0975 0.74 45.1993 0 42.2714 0C31.7705 0 23.2547 9.26 23.2547 20.68V22.2C22.9669 34.32 21.8255 45.61 15.9696 55.78C10.8979 64.58 0 74.11 0 85.09C0 97.74 11.4239 106.52 21.6071 111.49C43.5517 122.21 69.4069 123.45 92.9494 118.12C107.956 114.72 130.089 106.71 133.603 89.06C133.861 87.75 134 86.42 134 85.09H133.99Z" fill="#08D8CD"/>
<path d="M74.5519 57.3801C74.5519 60.8401 71.1177 63.6401 66.8797 63.6401C62.6416 63.6401 59.2075 60.8401 59.2075 57.3801" stroke="#00B5AB" stroke-width="3" stroke-linecap="round" stroke-linejoin="round"/>
<path d="M46.7216 59.7401C53.1953 59.7401 58.4433 54.3854 58.4433 47.7801C58.4433 41.1747 53.1953 35.8201 46.7216 35.8201C40.248 35.8201 35 41.1747 35 47.7801C35 54.3854 40.248 59.7401 46.7216 59.7401Z" fill="white"/>
<path d="M50.3763 42C48.9675 42 47.6996 42.7484 46.8745 43.9159C46.0493 42.7484 44.7914 42 43.3726 42C40.8971 42 38.8845 44.3051 38.8845 47.149C38.8845 52.268 45.516 55.7106 46.8845 56C48.2531 55.7106 54.8845 52.268 54.8845 47.149C54.8845 44.3051 52.8719 42 50.3864 42H50.3763Z" fill="#262626"/>
<path d="M53.7445 45.74C54.6392 45.74 55.3645 45.0102 55.3645 44.11C55.3645 43.2098 54.6392 42.48 53.7445 42.48C52.8498 42.48 52.1245 43.2098 52.1245 44.11C52.1245 45.0102 52.8498 45.74 53.7445 45.74Z" fill="white"/>
<path d="M87.0376 59.7401C93.5113 59.7401 98.7592 54.3854 98.7592 47.7801C98.7592 41.1747 93.5113 35.8201 87.0376 35.8201C80.5639 35.8201 75.3159 41.1747 75.3159 47.7801C75.3159 54.3854 80.5639 59.7401 87.0376 59.7401Z" fill="white"/>
<path d="M90.3763 42C88.9675 42 87.6996 42.7484 86.8745 43.9159C86.0493 42.7484 84.7914 42 83.3726 42C80.8971 42 78.8845 44.3051 78.8845 47.149C78.8845 52.268 85.516 55.7106 86.8845 56C88.2531 55.7106 94.8845 52.268 94.8845 47.149C94.8845 44.3051 92.8719 42 90.3864 42H90.3763Z" fill="#262626"/>
<path d="M93.7445 45.74C94.6392 45.74 95.3645 45.0102 95.3645 44.11C95.3645 43.2098 94.6392 42.48 93.7445 42.48C92.8498 42.48 92.1245 43.2098 92.1245 44.11C92.1245 45.0102 92.8498 45.74 93.7445 45.74Z" fill="white"/>
<path d="M96.2447 110.07C71.8287 117.16 44.584 117.49 20.8529 107.6C14.61 105 7.8807 101.14 3.0769 95.8499C7.13631 102.88 14.7192 108.09 21.7164 111.51C43.661 122.23 69.5161 123.47 93.0587 118.14C108.066 114.74 130.199 106.72 133.712 89.0699C133.901 88.1099 133.95 87.1399 134 86.1599C126.655 99.0499 109.038 106.35 96.2546 110.06L96.2447 110.07Z" fill="#00B5AB"/>
</svg>
