<svg width="133" height="140" viewBox="0 0 133 140" fill="none" xmlns="http://www.w3.org/2000/svg">
<path d="M49.0685 108.65H37.5723L41.4044 132.16C42.1727 137.25 44.6651 140 48.6843 140C52.7036 140 55.1959 137.26 55.9643 132.16L59.7964 108.65H49.0685Z" fill="#00B5AB"/>
<path d="M93.5264 108.65H82.0302L85.8622 132.16C86.6306 137.25 89.123 140 93.1422 140C97.1615 140 99.6538 137.26 100.422 132.16L104.254 108.65H93.5264Z" fill="#00B5AB"/>
<path d="M132.99 85.09C132.99 74.11 122.174 64.58 117.14 55.78C111.327 45.61 110.195 34.32 109.909 22.2V20.68C109.909 9.26 101.457 0 91.0342 0C88.1281 0 85.2516 0.74 82.6804 2.13C78.4543 4.42 75.2231 8.36 73.5386 12.91C71.4108 18.66 72.1594 25.2 72.1594 31.22C72.1594 33.34 72.0018 35.27 70.7015 37.03C69.6671 38.42 68.15 39.29 66.4951 39.56C64.8401 39.29 63.3131 38.41 62.2886 37.03C60.9784 35.28 60.8208 33.35 60.8307 31.22C60.8307 25.2 61.5793 18.66 59.4515 12.91C57.767 8.36 54.5358 4.41 50.3097 2.13C47.7385 0.74 44.862 0 41.9559 0C31.5334 0 23.0812 9.26 23.0812 20.68V22.2C22.7955 34.32 21.6626 45.61 15.8505 55.78C10.8165 64.58 0 74.11 0 85.09C0 97.74 11.3386 106.52 21.4459 111.49C43.2267 122.21 68.8889 123.45 92.2557 118.12C107.151 114.72 129.119 106.71 132.606 89.06C132.862 87.75 133 86.42 133 85.09H132.99Z" fill="#08D8CD"/>
<path d="M72.1737 57C73.0636 57 73.6935 58.13 73.3236 59.13C72.0437 62.64 69.3339 65.06 66.1941 65.06C63.0544 65.06 60.3446 62.64 59.0647 59.13C58.7047 58.13 59.3246 57 60.2146 57H72.1637H72.1737Z" fill="#00B5AB"/>
<path d="M46.4876 59.7403C52.9129 59.7403 58.1217 54.3856 58.1217 47.7803C58.1217 41.175 52.9129 35.8203 46.4876 35.8203C40.0622 35.8203 34.8534 41.175 34.8534 47.7803C34.8534 54.3856 40.0622 59.7403 46.4876 59.7403Z" fill="white"/>
<path d="M46.4875 55.7106C50.7475 55.7106 54.2009 52.1602 54.2009 47.7806C54.2009 43.401 50.7475 39.8506 46.4875 39.8506C42.2275 39.8506 38.774 43.401 38.774 47.7806C38.774 52.1602 42.2275 55.7106 46.4875 55.7106Z" fill="#262626"/>
<path d="M49.9749 42.8602C50.8236 42.8602 51.5117 42.1528 51.5117 41.2802C51.5117 40.4076 50.8236 39.7002 49.9749 39.7002C49.1261 39.7002 48.4381 40.4076 48.4381 41.2802C48.4381 42.1528 49.1261 42.8602 49.9749 42.8602Z" fill="white"/>
<path d="M86.5025 59.7403C92.9278 59.7403 98.1366 54.3856 98.1366 47.7803C98.1366 41.175 92.9278 35.8203 86.5025 35.8203C80.0771 35.8203 74.8683 41.175 74.8683 47.7803C74.8683 54.3856 80.0771 59.7403 86.5025 59.7403Z" fill="white"/>
<path d="M86.5025 55.7106C90.7625 55.7106 94.2159 52.1602 94.2159 47.7806C94.2159 43.401 90.7625 39.8506 86.5025 39.8506C82.2425 39.8506 78.7891 43.401 78.7891 47.7806C78.7891 52.1602 82.2425 55.7106 86.5025 55.7106Z" fill="#262626"/>
<path d="M89.99 42.8602C90.8388 42.8602 91.5268 42.1528 91.5268 41.2802C91.5268 40.4076 90.8388 39.7002 89.99 39.7002C89.1413 39.7002 88.4532 40.4076 88.4532 41.2802C88.4532 42.1528 89.1413 42.8602 89.99 42.8602Z" fill="white"/>
<path d="M95.5264 110.07C71.2927 117.16 44.2513 117.49 20.6973 107.6C14.501 105 7.8219 101.14 3.05396 95.8497C7.08306 102.88 14.6093 108.09 21.5544 111.51C43.3352 122.23 68.9973 123.47 92.3642 118.14C107.259 114.74 129.227 106.72 132.714 89.0697C132.902 88.1097 132.951 87.1397 133 86.1597C125.71 99.0497 108.225 106.35 95.5363 110.06L95.5264 110.07Z" fill="#00B5AB"/>
</svg>
